<?xml version="1.0" standalone="no"?><!DOCTYPE svg PUBLIC "-//W3C//DTD SVG 1.1//EN" "http://www.w3.org/Graphics/SVG/1.1/DTD/svg11.dtd"><svg height="253" legacy-metrics="false" node-id="1" sillyvg="true" template-height="253" template-width="257" version="1.1" viewBox="0 0 257 253" width="257" xmlns="http://www.w3.org/2000/svg" xmlns:xlink="http://www.w3.org/1999/xlink"><defs node-id="167"></defs><g node-id="398"><path d="M 253.48 119.33 C 253.48 78.62 220.41 45.63 179.61 45.63 C 178.97 45.63 178.35 45.66 177.72 45.68 C 164.83 24.09 141.22 9.61 114.20 9.61 C 73.40 9.61 40.33 42.61 40.33 83.31 C 40.33 83.84 40.36 84.36 40.37 84.88 C 18.06 97.56 3.00 121.49 3.00 148.94 C 3.00 189.64 36.07 222.63 76.87 222.63 C 79.19 222.63 81.48 222.51 83.75 222.30 C 97.30 238.68 117.80 249.12 140.75 249.12 C 178.46 249.12 209.54 220.92 214.04 184.52 C 237.49 172.17 253.48 147.62 253.48 119.33 Z" fill="#d6f0ff" fill-rule="nonzero" group-id="1" node-id="170" stroke="none" target-height="239.504" target-width="250.479" target-x="3" target-y="9.612"></path><g node-id="400"><path d="M 46.15 44.78 C 44.96 44.78 43.78 44.36 42.83 43.52 C 40.76 41.68 40.58 38.52 42.41 36.46 C 57.38 19.62 77.01 8.44 99.18 4.13 C 117.28 0.61 135.97 2.04 153.22 8.27 C 155.81 9.21 157.16 12.07 156.22 14.67 C 155.28 17.27 152.42 18.61 149.82 17.68 C 134.27 12.06 117.42 10.77 101.09 13.95 C 81.09 17.83 63.38 27.91 49.88 43.10 C 48.90 44.21 47.52 44.78 46.15 44.78 Z" fill="#f59fb3" fill-opacity="0.44" fill-rule="nonzero" group-id="1,3" node-id="173" stroke-linecap="butt" stroke-opacity="0.44" stroke-width="1" target-height="42.52949" target-width="115.34683" target-x="41.15625" target-y="2.2505083"></path><path d="M 34.35 85.69 C 33.88 85.69 33.40 85.63 32.92 85.48 C 30.28 84.70 28.77 81.91 29.56 79.27 C 39.70 45.24 67.64 19.90 102.47 13.13 C 142.55 5.34 183.02 23.95 203.16 59.44 C 204.52 61.84 203.68 64.89 201.28 66.26 C 198.88 67.62 195.83 66.78 194.46 64.38 C 176.44 32.62 140.24 15.97 104.37 22.94 C 73.21 29.00 48.22 51.67 39.14 82.12 C 38.49 84.29 36.51 85.69 34.35 85.69 Z" fill="#ffff75" fill-opacity="0.44" fill-rule="nonzero" group-id="1,3" node-id="175" stroke-linecap="butt" stroke-opacity="0.44" stroke-width="1" target-height="74.27129" target-width="174.4596" target-x="29.355206" target-y="11.423706"></path><path d="M 39.17 100.72 C 38.96 100.72 38.74 100.70 38.53 100.68 C 35.79 100.32 33.86 97.82 34.21 95.08 C 39.03 57.70 67.15 27.75 104.18 20.55 C 131.77 15.19 160.45 23.53 180.90 42.87 C 182.91 44.77 182.99 47.93 181.10 49.94 C 179.20 51.94 176.03 52.03 174.03 50.13 C 155.92 33.01 130.52 25.62 106.09 30.36 C 73.30 36.74 48.40 63.26 44.13 96.36 C 43.80 98.88 41.65 100.72 39.17 100.72 Z" fill="#afeb75" fill-opacity="0.44" fill-rule="nonzero" group-id="1,3" node-id="177" stroke-linecap="butt" stroke-opacity="0.44" stroke-width="1" target-height="81.721954" target-width="148.25249" target-x="34.209" target-y="18.997051"></path><path d="M 191.28 86.58 C 189.22 86.58 187.28 85.29 186.56 83.23 C 175.25 50.81 141.26 31.32 107.50 37.88 C 89.82 41.31 74.35 51.29 63.94 65.98 C 62.34 68.23 59.23 68.77 56.97 67.17 C 54.72 65.57 54.19 62.45 55.78 60.20 C 67.69 43.40 85.37 31.99 105.59 28.06 C 124.51 24.39 144.09 27.68 160.75 37.34 C 177.24 46.90 189.76 62.03 196.00 79.94 C 196.91 82.54 195.54 85.39 192.93 86.30 C 192.39 86.50 191.83 86.58 191.28 86.58 Z" fill="#75d5eb" fill-opacity="0.44" fill-rule="nonzero" group-id="1,3" node-id="179" stroke-linecap="butt" stroke-opacity="0.44" stroke-width="1" target-height="59.95053" target-width="141.39297" target-x="54.878044" target-y="26.634468"></path></g><path d="M 3.57 139.83 C 3.20 142.82 3.00 145.86 3.00 148.94 C 3.00 189.64 36.07 222.63 76.87 222.63 C 79.19 222.63 81.48 222.51 83.75 222.30 C 97.30 238.68 117.80 249.12 140.75 249.12 C 178.46 249.12 209.54 220.92 214.04 184.52 C 231.59 175.28 244.96 159.20 250.58 139.83 L 3.57 139.83 L 3.57 139.83 Z" fill="#faf0e6" fill-rule="nonzero" group-id="1" node-id="182" stroke="none" target-height="109.284" target-width="247.576" target-x="3" target-y="139.832"></path><path d="M 127.96 120.72 L 180.47 45.56 L 243.31 120.72 Z" fill="#f0f0ff" fill-rule="nonzero" group-id="1,4" node-id="185" stroke="none" target-height="75.160995" target-width="115.353" target-x="127.959" target-y="45.56"></path><path d="M 243.33 122.22 C 243.33 122.22 243.32 122.22 243.31 122.22 L 127.96 122.22 C 127.40 122.22 126.89 121.91 126.63 121.41 C 126.37 120.92 126.41 120.32 126.73 119.86 L 179.25 44.70 C 179.51 44.32 179.94 44.08 180.41 44.06 C 180.88 44.05 181.33 44.24 181.63 44.60 L 244.34 119.60 C 244.64 119.88 244.83 120.28 244.83 120.72 C 244.83 121.55 244.16 122.22 243.33 122.22 Z M 130.84 119.22 L 240.10 119.22 L 180.58 48.03 L 130.84 119.22 Z" fill="#ccccde" fill-rule="nonzero" group-id="1,4" node-id="187" stroke="none" target-height="78.16" target-width="118.37062" target-x="126.46237" target-y="44.061"></path><path d="M 33.08 120.72 L 80.55 52.78 L 137.35 120.72 Z" fill="#f0f0ff" fill-rule="nonzero" group-id="1,4" node-id="189" stroke="none" target-height="67.938" target-width="104.267006" target-x="33.083" target-y="52.783"></path><path d="M 137.37 122.22 C 137.37 122.22 137.36 122.22 137.35 122.22 L 33.08 122.22 C 32.52 122.22 32.01 121.91 31.75 121.41 C 31.50 120.92 31.53 120.32 31.85 119.86 L 79.32 51.92 C 79.59 51.54 80.02 51.30 80.48 51.28 C 80.96 51.27 81.40 51.46 81.70 51.82 L 138.37 119.60 C 138.68 119.88 138.87 120.28 138.87 120.72 C 138.87 121.55 138.20 122.22 137.37 122.22 Z M 35.96 119.22 L 134.14 119.22 L 80.66 55.25 L 35.96 119.22 Z" fill="#ccccde" fill-rule="nonzero" group-id="1,4" node-id="191" stroke="none" target-height="70.937" target-width="107.283615" target-x="31.58638" target-y="51.284"></path><path d="M 62.75 120.72 L 128.74 26.27 L 207.71 120.72 Z" fill="#f0f0ff" fill-rule="nonzero" group-id="1,4" node-id="193" stroke="none" target-height="94.451004" target-width="144.95901" target-x="62.751" target-y="26.27"></path><path d="M 207.73 122.22 C 207.72 122.22 207.72 122.22 207.71 122.22 L 62.75 122.22 C 62.19 122.22 61.68 121.91 61.42 121.41 C 61.16 120.92 61.20 120.32 61.52 119.86 L 127.52 25.41 C 127.78 25.03 128.21 24.79 128.68 24.77 C 129.16 24.75 129.60 24.95 129.90 25.31 L 208.73 119.60 C 209.04 119.88 209.23 120.28 209.23 120.72 C 209.23 121.55 208.56 122.22 207.73 122.22 Z M 65.63 119.22 L 204.50 119.22 L 128.85 28.74 L 65.63 119.22 Z" fill="#ccccde" fill-rule="nonzero" group-id="1,4" node-id="195" stroke="none" target-height="97.45" target-width="147.97562" target-x="61.254375" target-y="24.771"></path><path d="M 128.74 26.27 L 169.66 103.23 L 128.49 70.92 L 148.24 106.38 L 87.32 112.39 L 118.11 41.48 L 62.75 120.72 L 207.16 120.04 Z" fill="#6e6e96" fill-opacity="0.1" fill-rule="nonzero" group-id="1,4,14" node-id="199" stroke-linecap="butt" stroke-opacity="0.1" stroke-width="1" target-height="94.451004" target-width="144.40799" target-x="62.751" target-y="26.27"></path><path d="M 80.55 52.78 L 51.16 112.69 L 93.82 68.66 L 96.71 72.11 L 62.75 120.72 L 33.08 120.72 Z" fill="#6e6e96" fill-opacity="0.1" fill-rule="nonzero" group-id="1,4,15" node-id="204" stroke-linecap="butt" stroke-opacity="0.1" stroke-width="1" target-height="67.938" target-width="63.628" target-x="33.083" target-y="52.783"></path><path d="M 165.49 70.22 L 213.85 114.26 L 227.25 114.26 L 180.47 45.56 L 243.31 120.72 L 207.16 120.57 Z" fill="#6e6e96" fill-opacity="0.1" fill-rule="nonzero" group-id="1,4,16" node-id="209" stroke-linecap="butt" stroke-opacity="0.1" stroke-width="1" target-height="75.160995" target-width="77.819" target-x="165.493" target-y="45.56"></path><path d="M 3.49 140.50 L 250.37 140.50 C 252.39 133.79 253.48 126.69 253.48 119.33 C 253.48 111.15 252.12 103.30 249.66 95.95 L 25.57 95.95 C 13.57 107.51 5.48 123.08 3.49 140.50 Z" fill="#d6f0ff" fill-rule="nonzero" group-id="1" node-id="213" stroke="none" target-height="44.549004" target-width="249.989" target-x="3.489" target-y="95.951"></path><path d="M 25.57 94.45 L 249.66 94.45 L 249.66 97.45 L 25.57 97.45 Z" fill="#ccccde" fill-rule="nonzero" group-id="1" node-id="215" stroke="none" target-height="3" target-width="224.091" target-x="25.571" target-y="94.451"></path><path d="M 3.49 139.00 L 250.37 139.00 L 250.37 142.00 L 3.49 142.00 Z" fill="#ccccde" fill-rule="nonzero" group-id="1" node-id="217" stroke="none" target-height="3" target-width="246.883" target-x="3.489" target-y="139"></path><path d="M 15.58 106.33 L 41.00 106.33 L 41.00 109.33 L 15.58 109.33 Z" fill="#ffffff" fill-rule="nonzero" group-id="1" node-id="219" stroke="none" target-height="3" target-width="25.424" target-x="15.576" target-y="106.333"></path><path d="M 32.33 121.00 L 78.33 121.00 L 78.33 124.00 L 32.33 124.00 Z" fill="#ffffff" fill-rule="nonzero" group-id="1" node-id="221" stroke="none" target-height="3" target-width="46" target-x="32.333" target-y="121"></path><path d="M 114.33 104.33 L 153.67 104.33 L 153.67 107.33 L 114.33 107.33 Z" fill="#ffffff" fill-opacity="0.61" fill-rule="nonzero" group-id="1,5" node-id="225" stroke-linecap="butt" stroke-opacity="0.61" stroke-width="1" target-height="3" target-width="39.334007" target-x="114.333" target-y="104.333"></path><path d="M 227.00 111.00 L 239.67 111.00 L 239.67 114.00 L 227.00 114.00 Z" fill="#ffffff" fill-rule="nonzero" group-id="1" node-id="228" stroke="none" target-height="3" target-width="12.667007" target-x="227" target-y="111"></path><path d="M 181.67 129.67 L 216.33 129.67 L 216.33 132.67 L 181.67 132.67 Z" fill="#ffffff" fill-rule="nonzero" group-id="1" node-id="230" stroke="none" target-height="3" target-width="34.666992" target-x="181.667" target-y="129.667"></path><path d="M 194.33 107.00 L 204.33 107.00 L 204.33 110.00 L 194.33 110.00 Z" fill="#ffffff" fill-opacity="0.48" fill-rule="nonzero" group-id="1,6" node-id="234" stroke-linecap="butt" stroke-opacity="0.48" stroke-width="1" target-height="3" target-width="10" target-x="194.334" target-y="107"></path><path d="M 78.33 110.33 L 93.67 110.33 L 93.67 113.33 L 78.33 113.33 Z" fill="#ffffff" fill-opacity="0.48" fill-rule="nonzero" group-id="1,7" node-id="239" stroke-linecap="butt" stroke-opacity="0.48" stroke-width="1" target-height="3" target-width="15.334" target-x="78.333" target-y="110.333"></path><path d="M 7.67 126.33 L 13.00 126.33 L 13.00 129.33 L 7.67 129.33 Z" fill="#ffffff" fill-opacity="0.48" fill-rule="nonzero" group-id="1,8" node-id="244" stroke-linecap="butt" stroke-opacity="0.48" stroke-width="1" target-height="2.9999924" target-width="5.333" target-x="7.667" target-y="126.333"></path><path d="M 251.60 102.83 C 251.06 100.49 250.41 98.20 249.66 95.95 L 25.57 95.95 C 23.33 98.11 21.23 100.41 19.27 102.83 L 251.60 102.83 Z" fill="#6e6e96" fill-opacity="0.1" fill-rule="nonzero" group-id="1,9" node-id="249" stroke-linecap="butt" stroke-opacity="0.1" stroke-width="1" target-height="6.882004" target-width="232.326" target-x="19.272" target-y="95.951"></path><path d="M 0.00 133.50 L 256.00 133.50 L 256.00 138.83 L 0.00 138.83 Z" fill="#ffffff" fill-opacity="0.38" fill-rule="nonzero" group-id="1,10" node-id="254" stroke-linecap="butt" stroke-opacity="0.38" stroke-width="1" target-height="5.3339996" target-width="256" target-x="0" target-y="133.5"></path></g><g node-id="399"><g node-id="408"><path d="M 76.04 206.01 L 60.57 206.01 C 54.50 206.01 49.53 201.04 49.53 194.97 L 49.53 178.77 C 49.53 172.69 54.28 166.27 60.09 164.50 L 76.03 159.62" fill="#afe0cf" fill-rule="nonzero" group-id="2,11" node-id="261" stroke="none" target-height="46.386993" target-width="26.506004" target-x="49.53" target-y="159.623"></path><path d="M 76.04 207.51 L 60.57 207.51 C 53.66 207.51 48.03 201.88 48.03 194.97 L 48.03 178.77 C 48.03 172.06 53.24 165.02 59.66 163.06 L 75.60 158.19 L 76.47 161.06 L 60.53 165.93 C 55.38 167.50 51.03 173.38 51.03 178.77 L 51.03 194.97 C 51.03 200.23 55.31 204.51 60.58 204.51 L 76.04 204.51 L 76.04 207.51 Z" fill="#6e6e96" fill-rule="nonzero" group-id="2,11" node-id="263" stroke="none" target-height="49.321" target-width="28.444" target-x="48.03" target-y="158.189"></path><path d="M 178.86 206.01 L 194.32 206.01 C 200.40 206.01 205.37 201.04 205.37 194.97 L 205.37 178.77 C 205.37 172.69 200.61 166.27 194.81 164.50 L 178.86 159.62" fill="#afe0cf" fill-rule="nonzero" group-id="2,11" node-id="265" stroke="none" target-height="46.386993" target-width="26.50801" target-x="178.859" target-y="159.623"></path><path d="M 194.32 207.51 L 178.86 207.51 L 178.86 204.51 L 194.32 204.51 C 199.59 204.51 203.87 200.23 203.87 194.97 L 203.87 178.77 C 203.87 173.38 199.52 167.50 194.37 165.93 L 178.43 161.06 L 179.30 158.19 L 195.24 163.06 C 201.65 165.02 206.87 172.06 206.87 178.77 L 206.87 194.97 C 206.87 201.88 201.24 207.51 194.32 207.51 Z" fill="#6e6e96" fill-rule="nonzero" group-id="2,11" node-id="267" stroke="none" target-height="49.321" target-width="28.442001" target-x="178.425" target-y="158.189"></path><g node-id="414"><path d="M 178.86 187.91 L 178.86 206.01 L 194.32 206.01 C 200.40 206.01 205.37 201.04 205.37 194.97 L 205.37 187.91 C 199.08 195.06 190.01 190.53 182.74 191.03 C 180.31 190.67 178.73 190.28 178.86 187.91 Z" fill="#6e6e96" fill-opacity="0.15" fill-rule="nonzero" group-id="2,11,17" node-id="271" stroke-linecap="butt" stroke-opacity="0.15" stroke-width="1" target-height="18.103989" target-width="26.50801" target-x="178.859" target-y="187.906"></path></g><g node-id="415"><path d="M 49.53 194.97 C 49.53 201.04 54.50 206.01 60.57 206.01 L 76.03 206.01 L 76.03 187.91 C 76.22 189.02 76.22 190.53 75.46 191.28 C 67.15 193.55 55.06 194.31 49.53 187.91 L 49.53 194.97 L 49.53 194.97 Z" fill="#6e6e96" fill-opacity="0.15" fill-rule="nonzero" group-id="2,11,18" node-id="276" stroke-linecap="butt" stroke-opacity="0.15" stroke-width="1" target-height="18.103989" target-width="26.568993" target-x="49.529" target-y="187.906"></path></g><path d="M 188.20 206.01 C 188.20 220.18 176.60 231.78 162.43 231.78 L 92.48 231.78 C 78.31 231.78 66.71 220.18 66.71 206.01 L 66.71 113.44 C 66.71 99.27 78.31 87.67 92.48 87.67 L 162.43 87.67 C 176.61 87.67 188.20 99.27 188.20 113.44 L 188.20 206.01 L 188.20 206.01 Z" fill="#afe0cf" fill-rule="nonzero" group-id="2,11" node-id="279" stroke="none" target-height="144.107" target-width="121.492004" target-x="66.709" target-y="87.674"></path><path d="M 162.43 233.28 L 92.48 233.28 C 77.44 233.28 65.21 221.05 65.21 206.01 L 65.21 113.44 C 65.21 98.41 77.44 86.17 92.48 86.17 L 162.43 86.17 C 177.47 86.17 189.70 98.41 189.70 113.44 L 189.70 206.01 C 189.70 221.05 177.47 233.28 162.43 233.28 Z M 92.48 89.17 C 79.10 89.17 68.21 100.06 68.21 113.44 L 68.21 206.01 C 68.21 219.39 79.10 230.28 92.48 230.28 L 162.43 230.28 C 175.81 230.28 186.70 219.39 186.70 206.01 L 186.70 113.44 C 186.70 100.06 175.81 89.17 162.43 89.17 L 92.48 89.17 Z" fill="#6e6e96" fill-rule="nonzero" group-id="2,11" node-id="281" stroke="none" target-height="147.107" target-width="124.492004" target-x="65.209" target-y="86.173"></path><path d="M 66.71 116.68 C 66.71 116.68 70.54 137.08 90.33 137.08 C 110.12 137.08 166.04 137.08 166.04 137.08 C 166.04 137.08 188.20 130.66 188.20 116.68 L 66.71 116.68 Z" fill="#6e6e96" fill-opacity="0.15" fill-rule="nonzero" group-id="2,11,19" node-id="285" stroke-linecap="butt" stroke-opacity="0.15" stroke-width="1" target-height="20.394997" target-width="121.490005" target-x="66.709" target-y="116.682"></path><path d="M 148.22 171.22 C 158.79 213.53 130.44 215.50 114.92 215.50 C 96.59 215.50 65.36 217.32 66.71 175.25 L 66.71 206.01 C 66.71 220.18 78.31 231.78 92.48 231.78 L 162.43 231.78 C 176.61 231.78 188.20 220.18 188.20 206.01 L 188.20 150.31 C 183.63 244.75 143.53 152.46 148.22 171.22 Z" fill="#6e6e96" fill-opacity="0.15" fill-rule="nonzero" group-id="2,11,20" node-id="290" stroke-linecap="butt" stroke-opacity="0.15" stroke-width="1" target-height="81.47" target-width="121.492" target-x="66.71" target-y="150.311"></path><path d="M 198.50 237.16 C 198.50 243.39 193.40 248.49 187.17 248.49 C 187.17 248.49 183.92 248.49 178.50 248.34 C 175.21 248.04 171.91 247.78 168.61 247.56 C 141.85 246.15 115.41 246.15 88.66 247.55 C 85.35 247.76 82.05 248.02 78.76 248.32 C 73.34 248.49 70.09 248.50 70.09 248.50 C 63.86 248.50 58.76 243.40 58.76 237.16 L 58.76 228.85 C 58.76 222.62 63.86 217.52 70.09 217.52 C 70.09 217.52 73.34 217.53 78.76 217.72 C 111.64 221.97 145.63 221.97 178.50 217.72 C 183.92 217.53 187.17 217.52 187.17 217.52 C 193.40 217.52 198.50 222.62 198.50 228.85 L 198.50 237.16 L 198.50 237.16 Z" fill="#ffdfba" fill-rule="nonzero" group-id="2,11" node-id="293" stroke="none" target-height="30.970993" target-width="139.745" target-x="58.759" target-y="217.524"></path><path d="M 70.09 249.99 L 70.09 249.99 C 63.02 249.99 57.26 244.24 57.26 237.16 L 57.26 228.85 C 57.26 221.78 63.02 216.02 70.09 216.02 C 70.12 216.02 73.43 216.03 78.82 216.22 L 78.96 216.23 C 111.55 220.45 145.72 220.45 178.31 216.23 L 178.45 216.22 C 183.83 216.03 187.14 216.02 187.17 216.02 C 194.25 216.02 200.00 221.78 200.00 228.85 L 200.00 237.16 C 200.00 240.58 198.67 243.80 196.24 246.22 C 193.81 248.66 190.59 249.99 187.17 249.99 C 187.14 249.99 183.84 249.99 178.46 249.84 C 174.84 249.52 171.62 249.26 168.51 249.06 C 155.21 248.35 141.75 248.00 128.51 248.00 C 115.38 248.00 102.00 248.35 88.74 249.04 C 85.67 249.24 82.45 249.50 78.90 249.81 C 73.43 249.99 70.13 249.99 70.09 249.99 Z M 70.09 219.02 C 64.67 219.02 60.26 223.43 60.26 228.85 L 60.26 237.16 C 60.26 242.58 64.67 246.99 70.09 246.99 C 70.14 246.99 73.40 246.98 78.72 246.82 C 82.20 246.50 85.45 246.25 88.56 246.05 C 101.89 245.35 115.33 245.00 128.51 245.00 C 141.80 245.00 155.32 245.35 168.69 246.06 C 171.84 246.27 175.09 246.52 178.63 246.84 C 183.88 246.99 187.14 246.99 187.17 246.99 C 192.59 246.99 197.00 242.58 197.00 237.16 L 197.00 228.85 C 197.00 223.43 192.59 219.02 187.17 219.02 C 187.14 219.02 183.91 219.03 178.62 219.21 C 145.82 223.45 111.44 223.45 78.64 219.21 C 73.35 219.03 70.12 219.02 70.09 219.02 Z" fill="#6e6e96" fill-rule="nonzero" group-id="2,11" node-id="295" stroke="none" target-height="33.97101" target-width="142.745" target-x="57.259" target-y="216.023"></path><path d="M 64.83 236.07 C 64.83 236.07 61.25 222.29 79.50 225.58 C 97.74 228.87 118.95 228.87 134.24 228.87 C 149.53 228.87 193.42 220.41 196.63 232.63 C 196.63 232.63 201.02 212.48 171.25 219.62 C 143.38 226.30 92.33 219.22 70.87 218.77 C 70.87 218.77 52.21 219.03 64.83 236.07 Z" fill="#fff1e0" fill-rule="nonzero" group-id="2,11" node-id="297" stroke="none" target-height="17.9608" target-width="136.363" target-x="60.48803" target-y="218.1052"></path><path d="M 101.06 244.26 C 101.06 247.01 98.81 249.26 96.06 249.26 L 95.33 249.26 C 92.58 249.26 90.33 247.01 90.33 244.26 L 90.33 128.86 C 90.33 126.11 92.48 124.53 95.10 125.36 L 96.29 125.74 C 98.92 126.56 101.06 129.49 101.06 132.24 L 101.06 244.26 L 101.06 244.26 Z" fill="#d9b8a7" fill-rule="nonzero" group-id="2,11" node-id="299" stroke="none" target-height="124.11008" target-width="10.727997" target-x="90.334" target-y="125.14592"></path><path d="M 96.06 250.76 L 95.33 250.76 C 91.75 250.76 88.83 247.84 88.83 244.26 L 88.83 128.86 C 88.83 125.83 90.90 123.64 93.74 123.64 C 94.33 123.64 94.94 123.74 95.55 123.93 L 96.75 124.31 C 100.01 125.34 102.56 128.82 102.56 132.24 L 102.56 244.26 C 102.56 245.99 101.88 247.62 100.65 248.85 C 99.42 250.08 97.79 250.76 96.06 250.76 Z M 93.74 126.64 C 92.56 126.64 91.83 127.49 91.83 128.85 L 91.83 244.25 C 91.83 246.19 93.40 247.75 95.33 247.75 L 96.06 247.75 C 97.99 247.75 99.56 246.19 99.56 244.25 L 99.56 132.24 C 99.56 130.16 97.82 127.79 95.84 127.17 L 94.65 126.79 C 94.33 126.69 94.03 126.64 93.74 126.64 Z" fill="#6e6e96" fill-rule="nonzero" group-id="2,11" node-id="301" stroke="none" target-height="127.115" target-width="13.726997" target-x="88.834" target-y="123.641"></path><path d="M 166.04 245.87 C 166.04 248.62 163.79 250.78 161.04 250.68 L 160.47 250.66 C 157.72 250.56 155.47 248.23 155.47 245.48 L 155.47 133.60 C 155.47 130.85 157.61 127.92 160.23 127.08 L 161.28 126.74 C 163.90 125.91 166.04 127.47 166.04 130.22 L 166.04 245.87 L 166.04 245.87 Z" fill="#d9b8a7" fill-rule="nonzero" group-id="2,11" node-id="303" stroke="none" target-height="124.16001" target-width="10.575012" target-x="155.469" target-y="126.52299"></path><path d="M 161.23 252.19 L 160.41 252.16 C 156.86 252.03 153.97 249.03 153.97 245.48 L 153.97 133.60 C 153.97 130.19 156.52 126.69 159.78 125.65 L 160.83 125.31 C 161.44 125.12 162.06 125.02 162.66 125.02 C 165.49 125.02 167.54 127.20 167.54 130.22 L 167.54 245.87 C 167.54 249.35 164.71 252.19 161.23 252.19 Z M 162.66 128.02 C 162.37 128.02 162.06 128.07 161.74 128.17 L 160.69 128.51 C 158.71 129.14 156.97 131.52 156.97 133.60 L 156.97 245.48 C 156.97 247.44 158.56 249.09 160.52 249.16 L 161.23 249.19 C 163.09 249.19 164.54 247.73 164.54 245.87 L 164.54 130.22 C 164.54 128.86 163.82 128.02 162.66 128.02 Z" fill="#6e6e96" fill-rule="nonzero" group-id="2,11" node-id="305" stroke="none" target-height="127.17" target-width="13.574997" target-x="153.97" target-y="125.017"></path><path d="M 110.45 130.38 L 92.48 130.38 C 78.31 130.38 66.71 120.77 66.71 109.03 C 66.71 97.28 78.31 87.67 92.48 87.67 L 162.43 87.67 C 176.61 87.67 188.20 97.28 188.20 109.03 C 188.20 120.77 176.60 130.38 162.43 130.38 L 146.71 130.38" fill="#afe0cf" fill-rule="nonzero" group-id="2,11" node-id="307" stroke="none" target-height="42.706" target-width="121.492004" target-x="66.709" target-y="87.674"></path><path d="M 162.43 131.88 L 146.71 131.88 L 146.71 128.88 L 162.43 128.88 C 175.81 128.88 186.70 119.97 186.70 109.03 C 186.70 98.08 175.81 89.17 162.43 89.17 L 92.48 89.17 C 79.10 89.17 68.21 98.08 68.21 109.03 C 68.21 119.97 79.10 128.88 92.48 128.88 L 110.45 128.88 L 110.45 131.88 L 92.48 131.88 C 77.44 131.88 65.21 121.63 65.21 109.03 C 65.21 96.43 77.44 86.17 92.48 86.17 L 162.43 86.17 C 177.47 86.17 189.70 96.43 189.70 109.03 C 189.70 121.63 177.47 131.88 162.43 131.88 Z" fill="#6e6e96" fill-rule="nonzero" group-id="2,11" node-id="309" stroke="none" target-height="45.706" target-width="124.492004" target-x="65.209" target-y="86.174"></path><path d="M 112.64 121.59 C 92.37 121.59 66.71 115.08 69.15 103.74 C 60.77 114.54 79.13 130.38 92.48 130.38 L 162.43 130.38 C 176.61 130.38 188.20 120.77 188.20 109.03 C 188.20 95.33 173.90 90.55 172.14 87.67 C 188.20 120.73 157.59 121.59 112.64 121.59 Z" fill="#6e6e96" fill-opacity="0.15" fill-rule="nonzero" group-id="2,11,21" node-id="313" stroke-linecap="butt" stroke-opacity="0.15" stroke-width="1" target-height="42.706" target-width="121.120926" target-x="67.08107" target-y="87.673"></path><path d="M 58.76 228.85 C 58.76 228.85 56.21 247.96 121.20 235.91 C 161.94 228.35 166.04 250.87 198.50 237.16 C 198.50 237.16 201.71 248.50 185.16 248.50 C 168.60 248.50 159.01 246.55 120.21 246.55 C 81.42 246.54 55.74 259.07 58.76 228.85 Z" fill="#6e6e96" fill-opacity="0.15" fill-rule="nonzero" group-id="2,11,22" node-id="318" stroke-linecap="butt" stroke-opacity="0.15" stroke-width="1" target-height="20.22168" target-width="140.22623" target-x="58.525764" target-y="228.854"></path><path d="M 145.63 168.17 L 145.63 191.34 C 145.63 195.49 142.23 198.89 138.07 198.89 L 117.43 198.89 C 113.27 198.89 109.87 195.49 109.87 191.34 L 109.87 168.17" fill="#afe0cf" fill-rule="nonzero" group-id="2,11" node-id="321" stroke="none" target-height="30.718002" target-width="35.755005" target-x="109.873" target-y="168.173"></path><path d="M 138.07 200.39 L 117.43 200.39 C 112.44 200.39 108.37 196.33 108.37 191.34 L 108.37 173.72 L 147.13 173.72 L 147.13 191.34 C 147.13 196.33 143.07 200.39 138.07 200.39 Z M 111.37 176.72 L 111.37 191.34 C 111.37 194.68 114.09 197.39 117.43 197.39 L 138.07 197.39 C 141.41 197.39 144.13 194.68 144.13 191.34 L 144.13 176.72 L 111.37 176.72 Z" fill="#6e6e96" fill-rule="nonzero" group-id="2,11" node-id="323" stroke="none" target-height="26.668" target-width="38.755005" target-x="108.373" target-y="173.723"></path><path d="M 138.60 194.47 L 117.95 194.47 C 113.80 194.47 110.40 191.07 110.40 186.91 L 110.40 194.64 C 110.40 198.80 113.80 202.20 117.95 202.20 L 138.60 202.20 C 142.75 202.20 146.15 198.80 146.15 194.64 L 146.15 186.91 C 146.15 191.07 142.75 194.47 138.60 194.47 Z" fill="#6e6e96" fill-opacity="0.15" fill-rule="nonzero" group-id="2,11,23" node-id="327" stroke-linecap="butt" stroke-opacity="0.15" stroke-width="1" target-height="15.285004" target-width="35.753" target-x="110.4" target-y="186.912"></path><path d="M 105.59 174.11 C 105.59 175.76 104.24 177.11 102.59 177.11 L 87.44 177.11 C 85.79 177.11 84.44 175.76 84.44 174.11 L 84.44 163.87 C 84.44 162.22 85.79 160.87 87.44 160.87 L 102.59 160.87 C 104.24 160.87 105.59 162.22 105.59 163.87 L 105.59 174.11 Z" fill="#f0f0ff" fill-rule="nonzero" group-id="2,11" node-id="330" stroke="none" target-height="16.238998" target-width="21.150002" target-x="84.443" target-y="160.87"></path><path d="M 102.59 178.61 L 87.44 178.61 C 84.96 178.61 82.94 176.59 82.94 174.11 L 82.94 163.87 C 82.94 161.39 84.96 159.37 87.44 159.37 L 102.59 159.37 C 105.07 159.37 107.09 161.39 107.09 163.87 L 107.09 174.11 C 107.09 176.59 105.07 178.61 102.59 178.61 Z M 87.44 162.37 C 86.62 162.37 85.94 163.04 85.94 163.87 L 85.94 174.11 C 85.94 174.94 86.62 175.61 87.44 175.61 L 102.59 175.61 C 103.42 175.61 104.09 174.94 104.09 174.11 L 104.09 163.87 C 104.09 163.04 103.42 162.37 102.59 162.37 L 87.44 162.37 Z" fill="#6e6e96" fill-rule="nonzero" group-id="2,11" node-id="332" stroke="none" target-height="19.238998" target-width="24.150002" target-x="82.943" target-y="159.37"></path><path d="M 171.69 174.11 C 171.69 175.76 170.34 177.11 168.69 177.11 L 153.54 177.11 C 151.89 177.11 150.54 175.76 150.54 174.11 L 150.54 163.87 C 150.54 162.22 151.89 160.87 153.54 160.87 L 168.69 160.87 C 170.34 160.87 171.69 162.22 171.69 163.87 L 171.69 174.11 Z" fill="#f0f0ff" fill-rule="nonzero" group-id="2,11" node-id="334" stroke="none" target-height="16.238998" target-width="21.149002" target-x="150.539" target-y="160.87"></path><path d="M 168.69 178.61 L 153.54 178.61 C 151.06 178.61 149.04 176.59 149.04 174.11 L 149.04 163.87 C 149.04 161.39 151.06 159.37 153.54 159.37 L 168.69 159.37 C 171.17 159.37 173.19 161.39 173.19 163.87 L 173.19 174.11 C 173.19 176.59 171.17 178.61 168.69 178.61 Z M 153.54 162.37 C 152.71 162.37 152.04 163.04 152.04 163.87 L 152.04 174.11 C 152.04 174.94 152.71 175.61 153.54 175.61 L 168.69 175.61 C 169.51 175.61 170.19 174.94 170.19 174.11 L 170.19 163.87 C 170.19 163.04 169.51 162.37 168.69 162.37 L 153.54 162.37 Z" fill="#6e6e96" fill-rule="nonzero" group-id="2,11" node-id="336" stroke="none" target-height="19.238998" target-width="24.149002" target-x="149.039" target-y="159.37"></path><path d="M 155.47 165.40 L 166.04 165.40 L 166.04 172.95 L 155.47 172.95 Z" fill="#d9b8a7" fill-rule="nonzero" group-id="2,11" node-id="338" stroke="none" target-height="7.5450134" target-width="10.573013" target-x="155.469" target-y="165.402"></path><path d="M 166.04 174.45 L 155.47 174.45 C 154.64 174.45 153.97 173.78 153.97 172.95 L 153.97 165.40 C 153.97 164.57 154.64 163.90 155.47 163.90 L 166.04 163.90 C 166.87 163.90 167.54 164.57 167.54 165.40 L 167.54 172.95 C 167.54 173.78 166.87 174.45 166.04 174.45 Z M 156.97 171.45 L 164.54 171.45 L 164.54 166.90 L 156.97 166.90 L 156.97 171.45 Z" fill="#6e6e96" fill-rule="nonzero" group-id="2,11" node-id="340" stroke="none" target-height="10.545013" target-width="13.573013" target-x="153.969" target-y="163.902"></path><path d="M 89.75 165.40 L 100.32 165.40 L 100.32 172.95 L 89.75 172.95 Z" fill="#d9b8a7" fill-rule="nonzero" group-id="2,11" node-id="342" stroke="none" target-height="7.5450134" target-width="10.572998" target-x="89.751" target-y="165.402"></path><path d="M 100.32 174.45 L 89.75 174.45 C 88.92 174.45 88.25 173.78 88.25 172.95 L 88.25 165.40 C 88.25 164.57 88.92 163.90 89.75 163.90 L 100.32 163.90 C 101.15 163.90 101.82 164.57 101.82 165.40 L 101.82 172.95 C 101.82 173.78 101.15 174.45 100.32 174.45 Z M 91.25 171.45 L 98.82 171.45 L 98.82 166.90 L 91.25 166.90 L 91.25 171.45 Z" fill="#6e6e96" fill-rule="nonzero" group-id="2,11" node-id="344" stroke="none" target-height="10.545013" target-width="13.572998" target-x="88.251" target-y="163.902"></path><path d="M 88.97 131.03 L 101.06 131.03 L 101.06 137.08 L 88.97 137.08 Z" fill="#6e6e96" fill-opacity="0.15" fill-rule="nonzero" group-id="2,11,24" node-id="348" stroke-linecap="butt" stroke-opacity="0.15" stroke-width="1" target-height="6.0429993" target-width="12.086998" target-x="88.975" target-y="131.033"></path><path d="M 155.47 130.38 L 166.04 130.38 L 166.04 137.08 L 155.47 137.08 Z" fill="#6e6e96" fill-opacity="0.15" fill-rule="nonzero" group-id="2,11,25" node-id="353" stroke-linecap="butt" stroke-opacity="0.15" stroke-width="1" target-height="6.695999" target-width="10.573013" target-x="155.469" target-y="130.38"></path><path d="M 90.33 219.03 L 101.06 219.03 L 101.06 247.41 L 90.33 247.41 Z" fill="#6e6e96" fill-opacity="0.15" fill-rule="nonzero" group-id="2,11,26" node-id="358" stroke-linecap="butt" stroke-opacity="0.15" stroke-width="1" target-height="28.371002" target-width="10.727997" target-x="90.334" target-y="219.034"></path><path d="M 155.47 219.99 L 166.04 219.99 L 166.04 250.87 L 155.47 250.87 Z" fill="#6e6e96" fill-opacity="0.15" fill-rule="nonzero" group-id="2,11,27" node-id="363" stroke-linecap="butt" stroke-opacity="0.15" stroke-width="1" target-height="30.876999" target-width="10.573013" target-x="155.469" target-y="219.99"></path><path d="M 90.33 177.11 L 101.06 177.11 L 101.06 182.78 L 90.33 182.78 Z" fill="#6e6e96" fill-opacity="0.15" fill-rule="nonzero" group-id="2,11,28" node-id="368" stroke-linecap="butt" stroke-opacity="0.15" stroke-width="1" target-height="5.6660004" target-width="10.727997" target-x="90.334" target-y="177.109"></path><path d="M 155.47 177.11 L 166.04 177.11 L 166.04 182.78 L 155.47 182.78 Z" fill="#6e6e96" fill-opacity="0.15" fill-rule="nonzero" group-id="2,11,29" node-id="373" stroke-linecap="butt" stroke-opacity="0.15" stroke-width="1" target-height="5.6660004" target-width="10.573013" target-x="155.469" target-y="177.109"></path><path d="M 110.97 176.38 L 144.12 176.38 L 144.12 180.89 L 110.97 180.89 Z" fill="#ffffff" fill-opacity="0.4" fill-rule="nonzero" group-id="2,11,30" node-id="378" stroke-linecap="butt" stroke-opacity="0.4" stroke-width="1" target-height="4.5059967" target-width="33.145996" target-x="110.972" target-y="176.382"></path><path d="M 117.30 102.71 L 135.81 102.71 L 135.81 110.64 L 117.30 110.64 Z" fill="#f0f0ff" fill-rule="nonzero" group-id="2,11" node-id="381" stroke="none" target-height="7.931999" target-width="18.507004" target-x="117.302" target-y="102.707"></path><path d="M 135.81 112.14 L 117.30 112.14 C 116.47 112.14 115.80 111.47 115.80 110.64 L 115.80 102.71 C 115.80 101.88 116.47 101.21 117.30 101.21 L 135.81 101.21 C 136.64 101.21 137.31 101.88 137.31 102.71 L 137.31 110.64 C 137.31 111.47 136.64 112.14 135.81 112.14 Z M 118.80 109.14 L 134.31 109.14 L 134.31 104.21 L 118.80 104.21 L 118.80 109.14 Z" fill="#6e6e96" fill-rule="nonzero" group-id="2,11" node-id="383" stroke="none" target-height="10.931999" target-width="21.507004" target-x="115.802" target-y="101.207"></path></g><g node-id="409"><path d="M 220.50 35.30 C 220.50 35.22 220.50 35.15 220.50 35.07 C 220.50 26.89 213.29 20.27 204.40 20.27 C 196.75 20.27 190.34 25.18 188.71 31.76 C 188.46 31.74 188.20 31.73 187.94 31.73 C 182.66 31.73 178.37 35.67 178.37 40.53 C 178.37 41.58 178.57 42.58 178.93 43.50 C 177.45 45.43 176.57 47.79 176.57 50.33 C 176.57 56.77 182.18 62.01 189.15 62.15 L 189.15 62.15 L 213.90 62.15 C 222.37 62.15 229.25 55.84 229.25 48.04 C 229.25 42.42 225.67 37.57 220.50 35.30 Z" fill="#ffffff" fill-rule="nonzero" group-id="2,12" node-id="388" stroke="none" target-height="41.884" target-width="52.679993" target-x="176.569" target-y="20.27"></path><path d="M 213.90 63.65 L 189.15 63.65 C 189.09 63.65 189.03 63.65 188.98 63.64 C 181.29 63.42 175.07 57.47 175.07 50.33 C 175.07 47.80 175.82 45.38 177.26 43.25 C 177.00 42.37 176.87 41.46 176.87 40.53 C 176.87 34.97 181.64 30.41 187.59 30.24 C 189.85 23.43 196.59 18.77 204.40 18.77 C 213.84 18.77 221.58 25.69 221.99 34.34 C 227.34 37.07 230.75 42.34 230.75 48.04 C 230.75 56.65 223.19 63.65 213.90 63.65 Z M 189.29 60.65 L 213.90 60.65 C 221.53 60.65 227.75 55.00 227.75 48.04 C 227.75 43.23 224.67 38.77 219.90 36.67 C 219.35 36.43 219.00 35.89 219.00 35.30 L 219.00 35.12 C 219.00 27.73 212.45 21.77 204.40 21.77 C 197.64 21.77 191.65 26.12 190.16 32.12 C 189.99 32.83 189.31 33.30 188.60 33.26 C 188.38 33.24 188.16 33.23 187.95 33.23 C 183.49 33.23 179.87 36.51 179.87 40.53 C 179.87 41.36 180.02 42.18 180.33 42.96 C 180.52 43.45 180.44 44.00 180.12 44.42 C 178.78 46.16 178.07 48.20 178.07 50.33 C 178.07 55.89 183.06 60.52 189.18 60.65 C 189.22 60.65 189.25 60.65 189.29 60.65 Z" fill="#ccccde" fill-rule="nonzero" group-id="2,12" node-id="390" stroke="none" target-height="44.884" target-width="55.679" target-x="175.069" target-y="18.77"></path></g><g node-id="410"><path d="M 49.40 59.62 C 49.40 59.56 49.40 59.49 49.40 59.43 C 49.40 52.51 43.30 46.91 35.78 46.91 C 29.31 46.91 23.89 51.06 22.51 56.63 C 22.30 56.61 22.08 56.60 21.86 56.60 C 17.39 56.60 13.76 59.94 13.76 64.05 C 13.76 64.93 13.93 65.78 14.24 66.56 C 12.98 68.19 12.24 70.18 12.24 72.33 C 12.24 77.78 16.98 82.21 22.89 82.33 L 22.89 82.34 L 43.81 82.34 C 50.99 82.34 56.80 76.99 56.80 70.40 C 56.80 65.65 53.77 61.54 49.40 59.62 Z" fill="#ffffff" fill-rule="nonzero" group-id="2,13" node-id="394" stroke="none" target-height="35.429996" target-width="44.564003" target-x="12.239" target-y="46.907"></path><path d="M 43.81 83.84 L 22.89 83.84 C 22.83 83.84 22.78 83.83 22.73 83.83 C 16.10 83.63 10.74 78.50 10.74 72.33 C 10.74 70.19 11.37 68.12 12.57 66.31 C 12.37 65.58 12.26 64.82 12.26 64.05 C 12.26 59.27 16.32 55.35 21.39 55.12 C 23.38 49.34 29.13 45.41 35.78 45.41 C 43.85 45.41 50.46 51.29 50.88 58.67 C 55.42 61.03 58.30 65.54 58.30 70.40 C 58.30 77.81 51.80 83.84 43.81 83.84 Z M 23.01 80.84 L 43.81 80.84 C 50.15 80.84 55.30 76.15 55.30 70.40 C 55.30 66.42 52.75 62.73 48.80 60.99 C 48.25 60.76 47.90 60.22 47.90 59.62 C 47.90 59.60 47.90 59.48 47.90 59.46 C 47.90 53.35 42.47 48.41 35.78 48.41 C 30.17 48.41 25.20 52.02 23.96 56.99 C 23.79 57.70 23.14 58.18 22.40 58.12 C 22.23 58.11 22.05 58.10 21.86 58.10 C 18.22 58.10 15.26 60.77 15.26 64.05 C 15.26 64.72 15.39 65.38 15.63 66.02 C 15.82 66.50 15.74 67.06 15.42 67.48 C 14.32 68.91 13.74 70.58 13.74 72.33 C 13.74 76.92 17.86 80.73 22.91 80.83 C 22.95 80.83 22.98 80.83 23.01 80.84 Z" fill="#ccccde" fill-rule="nonzero" group-id="2,13" node-id="396" stroke="none" target-height="38.428997" target-width="47.564003" target-x="10.739" target-y="45.408"></path></g></g></svg>