<?xml version="1.0" standalone="no"?><!DOCTYPE svg PUBLIC "-//W3C//DTD SVG 1.1//EN" "http://www.w3.org/Graphics/SVG/1.1/DTD/svg11.dtd"><svg height="244" legacy-metrics="false" node-id="1" sillyvg="true" template-height="244" template-width="251" version="1.1" viewBox="0 0 251 244" width="251" xmlns="http://www.w3.org/2000/svg" xmlns:xlink="http://www.w3.org/1999/xlink"><defs node-id="266"></defs><g node-id="773"><g node-id="775"><path d="M 250.98 109.72 C 250.98 69.01 217.91 36.02 177.11 36.02 C 176.47 36.02 175.85 36.05 175.22 36.07 C 162.33 14.48 138.72 0.00 111.70 0.00 C 70.90 0.00 37.83 32.99 37.83 73.70 C 37.83 74.22 37.86 74.75 37.87 75.27 C 15.56 87.95 0.50 111.88 0.50 139.33 C 0.50 180.03 33.57 213.02 74.37 213.02 C 76.69 213.02 78.98 212.90 81.25 212.69 C 94.80 229.07 115.30 239.50 138.25 239.50 C 175.96 239.50 207.04 211.31 211.54 174.91 C 234.99 162.56 250.98 138.01 250.98 109.72 Z" fill="#d6f0ff" fill-rule="nonzero" group-id="1,3" node-id="270" stroke="none" target-height="239.505" target-width="250.479" target-x="0.5" target-y="0"></path></g><g node-id="776"><path d="M 46.40 52.67 L 164.17 52.67 L 164.17 201.21 L 46.40 201.21 Z" fill="#ffffff" fill-rule="nonzero" group-id="1,4" node-id="274" stroke="none" target-height="148.54199" target-width="117.768005" target-x="46.401" target-y="52.671"></path><g node-id="809"><path d="M 47.40 52.67 L 192.78 52.67 L 192.78 194.12 L 47.40 194.12 Z" fill="#ffffff" fill-opacity="0.33" fill-rule="nonzero" group-id="1,4,37" node-id="278" stroke-linecap="butt" stroke-opacity="0.33" stroke-width="1" target-height="141.454" target-width="145.377" target-x="47.401" target-y="52.671"></path><path d="M 192.78 195.62 L 47.40 195.62 C 46.57 195.62 45.90 194.95 45.90 194.12 L 45.90 52.67 C 45.90 51.84 46.57 51.17 47.40 51.17 L 192.78 51.17 C 193.61 51.17 194.28 51.84 194.28 52.67 L 194.28 194.12 C 194.28 194.95 193.61 195.62 192.78 195.62 Z M 48.90 192.62 L 191.28 192.62 L 191.28 54.17 L 48.90 54.17 L 48.90 192.62 Z" fill="#6e6e96" fill-opacity="0.33" fill-rule="nonzero" group-id="1,4,37" node-id="280" stroke-linecap="butt" stroke-opacity="0.33" stroke-width="1" target-height="144.454" target-width="148.377" target-x="45.901" target-y="51.171"></path><path d="M 144.56 101.24 L 160.22 101.24 L 160.22 125.56 L 144.56 125.56 Z" fill="#bddfff" fill-opacity="0.33" fill-rule="nonzero" group-id="1,4,37" node-id="282" stroke-linecap="butt" stroke-opacity="0.33" stroke-width="1" target-height="24.310997" target-width="15.658005" target-x="144.564" target-y="101.244"></path><path d="M 160.22 127.06 L 144.56 127.06 C 143.74 127.06 143.06 126.38 143.06 125.56 L 143.06 101.24 C 143.06 100.42 143.74 99.74 144.56 99.74 L 160.22 99.74 C 161.05 99.74 161.72 100.42 161.72 101.24 L 161.72 125.56 C 161.72 126.38 161.05 127.06 160.22 127.06 Z M 146.06 124.06 L 158.72 124.06 L 158.72 102.74 L 146.06 102.74 L 146.06 124.06 Z" fill="#6e6e96" fill-opacity="0.33" fill-rule="nonzero" group-id="1,4,37" node-id="284" stroke-linecap="butt" stroke-opacity="0.33" stroke-width="1" target-height="27.310997" target-width="18.658005" target-x="143.064" target-y="99.744"></path><path d="M 144.56 131.44 L 160.22 131.44 L 160.22 155.60 L 144.56 155.60 Z" fill="#bddfff" fill-opacity="0.33" fill-rule="nonzero" group-id="1,4,37" node-id="286" stroke-linecap="butt" stroke-opacity="0.33" stroke-width="1" target-height="24.159988" target-width="15.658005" target-x="144.564" target-y="131.445"></path><path d="M 160.22 157.10 L 144.56 157.10 C 143.74 157.10 143.06 156.43 143.06 155.60 L 143.06 131.44 C 143.06 130.62 143.74 129.94 144.56 129.94 L 160.22 129.94 C 161.05 129.94 161.72 130.62 161.72 131.44 L 161.72 155.60 C 161.72 156.43 161.05 157.10 160.22 157.10 Z M 146.06 154.10 L 158.72 154.10 L 158.72 132.94 L 146.06 132.94 L 146.06 154.10 Z" fill="#6e6e96" fill-opacity="0.33" fill-rule="nonzero" group-id="1,4,37" node-id="288" stroke-linecap="butt" stroke-opacity="0.33" stroke-width="1" target-height="27.159988" target-width="18.658005" target-x="143.064" target-y="129.945"></path><path d="M 122.50 70.67 L 138.16 70.67 L 138.16 95.35 L 122.50 95.35 Z" fill="#bddfff" fill-opacity="0.33" fill-rule="nonzero" group-id="1,4,37" node-id="290" stroke-linecap="butt" stroke-opacity="0.33" stroke-width="1" target-height="24.677002" target-width="15.660004" target-x="122.5" target-y="70.671"></path><path d="M 138.16 96.85 L 122.50 96.85 C 121.67 96.85 121.00 96.18 121.00 95.35 L 121.00 70.67 C 121.00 69.84 121.67 69.17 122.50 69.17 L 138.16 69.17 C 138.99 69.17 139.66 69.84 139.66 70.67 L 139.66 95.35 C 139.66 96.18 138.99 96.85 138.16 96.85 Z M 124.00 93.85 L 136.66 93.85 L 136.66 72.17 L 124.00 72.17 L 124.00 93.85 Z" fill="#6e6e96" fill-opacity="0.33" fill-rule="nonzero" group-id="1,4,37" node-id="292" stroke-linecap="butt" stroke-opacity="0.33" stroke-width="1" target-height="27.677002" target-width="18.660004" target-x="121" target-y="69.171"></path><path d="M 122.50 101.24 L 138.16 101.24 L 138.16 125.56 L 122.50 125.56 Z" fill="#bddfff" fill-opacity="0.33" fill-rule="nonzero" group-id="1,4,37" node-id="294" stroke-linecap="butt" stroke-opacity="0.33" stroke-width="1" target-height="24.310997" target-width="15.660004" target-x="122.5" target-y="101.244"></path><path d="M 138.16 127.06 L 122.50 127.06 C 121.67 127.06 121.00 126.38 121.00 125.56 L 121.00 101.24 C 121.00 100.42 121.67 99.74 122.50 99.74 L 138.16 99.74 C 138.99 99.74 139.66 100.42 139.66 101.24 L 139.66 125.56 C 139.66 126.38 138.99 127.06 138.16 127.06 Z M 124.00 124.06 L 136.66 124.06 L 136.66 102.74 L 124.00 102.74 L 124.00 124.06 Z" fill="#6e6e96" fill-opacity="0.33" fill-rule="nonzero" group-id="1,4,37" node-id="296" stroke-linecap="butt" stroke-opacity="0.33" stroke-width="1" target-height="27.310997" target-width="18.660004" target-x="121" target-y="99.744"></path><path d="M 166.63 101.24 L 185.05 101.24 L 185.05 125.56 L 166.63 125.56 Z" fill="#bddfff" fill-opacity="0.33" fill-rule="nonzero" group-id="1,4,37" node-id="298" stroke-linecap="butt" stroke-opacity="0.33" stroke-width="1" target-height="24.310997" target-width="18.425003" target-x="166.629" target-y="101.244"></path><path d="M 185.05 127.06 L 166.63 127.06 C 165.80 127.06 165.13 126.38 165.13 125.56 L 165.13 101.24 C 165.13 100.42 165.80 99.74 166.63 99.74 L 185.05 99.74 C 185.88 99.74 186.55 100.42 186.55 101.24 L 186.55 125.56 C 186.55 126.38 185.88 127.06 185.05 127.06 Z M 168.13 124.06 L 183.55 124.06 L 183.55 102.74 L 168.13 102.74 L 168.13 124.06 Z" fill="#6e6e96" fill-opacity="0.33" fill-rule="nonzero" group-id="1,4,37" node-id="300" stroke-linecap="butt" stroke-opacity="0.33" stroke-width="1" target-height="27.310997" target-width="21.425003" target-x="165.129" target-y="99.744"></path><path d="M 144.56 70.67 L 160.22 70.67 L 160.22 95.35 L 144.56 95.35 Z" fill="#bddfff" fill-opacity="0.33" fill-rule="nonzero" group-id="1,4,37" node-id="302" stroke-linecap="butt" stroke-opacity="0.33" stroke-width="1" target-height="24.677002" target-width="15.658005" target-x="144.564" target-y="70.671"></path><path d="M 160.22 96.85 L 144.56 96.85 C 143.74 96.85 143.06 96.18 143.06 95.35 L 143.06 70.67 C 143.06 69.84 143.74 69.17 144.56 69.17 L 160.22 69.17 C 161.05 69.17 161.72 69.84 161.72 70.67 L 161.72 95.35 C 161.72 96.18 161.05 96.85 160.22 96.85 Z M 146.06 93.85 L 158.72 93.85 L 158.72 72.17 L 146.06 72.17 L 146.06 93.85 Z" fill="#6e6e96" fill-opacity="0.33" fill-rule="nonzero" group-id="1,4,37" node-id="304" stroke-linecap="butt" stroke-opacity="0.33" stroke-width="1" target-height="27.677002" target-width="18.658005" target-x="143.064" target-y="69.171"></path><path d="M 122.50 131.44 L 138.16 131.44 L 138.16 155.60 L 122.50 155.60 Z" fill="#bddfff" fill-opacity="0.33" fill-rule="nonzero" group-id="1,4,37" node-id="306" stroke-linecap="butt" stroke-opacity="0.33" stroke-width="1" target-height="24.159988" target-width="15.660004" target-x="122.5" target-y="131.445"></path><path d="M 138.16 157.10 L 122.50 157.10 C 121.67 157.10 121.00 156.43 121.00 155.60 L 121.00 131.44 C 121.00 130.62 121.67 129.94 122.50 129.94 L 138.16 129.94 C 138.99 129.94 139.66 130.62 139.66 131.44 L 139.66 155.60 C 139.66 156.43 138.99 157.10 138.16 157.10 Z M 124.00 154.10 L 136.66 154.10 L 136.66 132.94 L 124.00 132.94 L 124.00 154.10 Z" fill="#6e6e96" fill-opacity="0.33" fill-rule="nonzero" group-id="1,4,37" node-id="308" stroke-linecap="butt" stroke-opacity="0.33" stroke-width="1" target-height="27.159988" target-width="18.660004" target-x="121" target-y="129.945"></path><path d="M 166.63 70.67 L 185.05 70.67 L 185.05 95.35 L 166.63 95.35 Z" fill="#bddfff" fill-opacity="0.33" fill-rule="nonzero" group-id="1,4,37" node-id="310" stroke-linecap="butt" stroke-opacity="0.33" stroke-width="1" target-height="24.677002" target-width="18.425003" target-x="166.629" target-y="70.671"></path><path d="M 185.05 96.85 L 166.63 96.85 C 165.80 96.85 165.13 96.18 165.13 95.35 L 165.13 70.67 C 165.13 69.84 165.80 69.17 166.63 69.17 L 185.05 69.17 C 185.88 69.17 186.55 69.84 186.55 70.67 L 186.55 95.35 C 186.55 96.18 185.88 96.85 185.05 96.85 Z M 168.13 93.85 L 183.55 93.85 L 183.55 72.17 L 168.13 72.17 L 168.13 93.85 Z" fill="#6e6e96" fill-opacity="0.33" fill-rule="nonzero" group-id="1,4,37" node-id="312" stroke-linecap="butt" stroke-opacity="0.33" stroke-width="1" target-height="27.677002" target-width="21.425003" target-x="165.129" target-y="69.171"></path><path d="M 166.63 131.44 L 185.05 131.44 L 185.05 155.60 L 166.63 155.60 Z" fill="#bddfff" fill-opacity="0.33" fill-rule="nonzero" group-id="1,4,37" node-id="314" stroke-linecap="butt" stroke-opacity="0.33" stroke-width="1" target-height="24.159988" target-width="18.425003" target-x="166.629" target-y="131.445"></path><path d="M 185.05 157.10 L 166.63 157.10 C 165.80 157.10 165.13 156.43 165.13 155.60 L 165.13 131.44 C 165.13 130.62 165.80 129.94 166.63 129.94 L 185.05 129.94 C 185.88 129.94 186.55 130.62 186.55 131.44 L 186.55 155.60 C 186.55 156.43 185.88 157.10 185.05 157.10 Z M 168.13 154.10 L 183.55 154.10 L 183.55 132.94 L 168.13 132.94 L 168.13 154.10 Z" fill="#6e6e96" fill-opacity="0.33" fill-rule="nonzero" group-id="1,4,37" node-id="316" stroke-linecap="butt" stroke-opacity="0.33" stroke-width="1" target-height="27.159988" target-width="21.425003" target-x="165.129" target-y="129.945"></path><path d="M 55.02 101.24 L 71.97 101.24 L 71.97 125.56 L 55.02 125.56 Z" fill="#bddfff" fill-opacity="0.33" fill-rule="nonzero" group-id="1,4,37" node-id="318" stroke-linecap="butt" stroke-opacity="0.33" stroke-width="1" target-height="24.310997" target-width="16.942001" target-x="55.025" target-y="101.244"></path><path d="M 71.97 127.06 L 55.02 127.06 C 54.20 127.06 53.52 126.38 53.52 125.56 L 53.52 101.24 C 53.52 100.42 54.20 99.74 55.02 99.74 L 71.97 99.74 C 72.80 99.74 73.47 100.42 73.47 101.24 L 73.47 125.56 C 73.47 126.38 72.80 127.06 71.97 127.06 Z M 56.52 124.06 L 70.47 124.06 L 70.47 102.74 L 56.52 102.74 L 56.52 124.06 Z" fill="#6e6e96" fill-opacity="0.33" fill-rule="nonzero" group-id="1,4,37" node-id="320" stroke-linecap="butt" stroke-opacity="0.33" stroke-width="1" target-height="27.310997" target-width="19.942001" target-x="53.525" target-y="99.744"></path><path d="M 55.02 70.67 L 71.97 70.67 L 71.97 95.35 L 55.02 95.35 Z" fill="#bddfff" fill-opacity="0.33" fill-rule="nonzero" group-id="1,4,37" node-id="322" stroke-linecap="butt" stroke-opacity="0.33" stroke-width="1" target-height="24.677002" target-width="16.942001" target-x="55.025" target-y="70.671"></path><path d="M 71.97 96.85 L 55.02 96.85 C 54.20 96.85 53.52 96.18 53.52 95.35 L 53.52 70.67 C 53.52 69.84 54.20 69.17 55.02 69.17 L 71.97 69.17 C 72.80 69.17 73.47 69.84 73.47 70.67 L 73.47 95.35 C 73.47 96.18 72.80 96.85 71.97 96.85 Z M 56.52 93.85 L 70.47 93.85 L 70.47 72.17 L 56.52 72.17 L 56.52 93.85 Z" fill="#6e6e96" fill-opacity="0.33" fill-rule="nonzero" group-id="1,4,37" node-id="324" stroke-linecap="butt" stroke-opacity="0.33" stroke-width="1" target-height="27.677002" target-width="19.942001" target-x="53.525" target-y="69.171"></path><path d="M 55.02 131.44 L 71.97 131.44 L 71.97 155.60 L 55.02 155.60 Z" fill="#bddfff" fill-opacity="0.33" fill-rule="nonzero" group-id="1,4,37" node-id="326" stroke-linecap="butt" stroke-opacity="0.33" stroke-width="1" target-height="24.159988" target-width="16.942001" target-x="55.025" target-y="131.445"></path><path d="M 71.97 157.10 L 55.02 157.10 C 54.20 157.10 53.52 156.43 53.52 155.60 L 53.52 131.44 C 53.52 130.62 54.20 129.94 55.02 129.94 L 71.97 129.94 C 72.80 129.94 73.47 130.62 73.47 131.44 L 73.47 155.60 C 73.47 156.43 72.80 157.10 71.97 157.10 Z M 56.52 154.10 L 70.47 154.10 L 70.47 132.94 L 56.52 132.94 L 56.52 154.10 Z" fill="#6e6e96" fill-opacity="0.33" fill-rule="nonzero" group-id="1,4,37" node-id="328" stroke-linecap="butt" stroke-opacity="0.33" stroke-width="1" target-height="27.159988" target-width="19.942001" target-x="53.525" target-y="129.945"></path><path d="M 78.37 131.44 L 94.03 131.44 L 94.03 155.60 L 78.37 155.60 Z" fill="#bddfff" fill-opacity="0.33" fill-rule="nonzero" group-id="1,4,37" node-id="330" stroke-linecap="butt" stroke-opacity="0.33" stroke-width="1" target-height="24.159988" target-width="15.654999" target-x="78.373" target-y="131.445"></path><path d="M 94.03 157.10 L 78.37 157.10 C 77.54 157.10 76.87 156.43 76.87 155.60 L 76.87 131.44 C 76.87 130.62 77.54 129.94 78.37 129.94 L 94.03 129.94 C 94.86 129.94 95.53 130.62 95.53 131.44 L 95.53 155.60 C 95.53 156.43 94.86 157.10 94.03 157.10 Z M 79.87 154.10 L 92.53 154.10 L 92.53 132.94 L 79.87 132.94 L 79.87 154.10 Z" fill="#6e6e96" fill-opacity="0.33" fill-rule="nonzero" group-id="1,4,37" node-id="332" stroke-linecap="butt" stroke-opacity="0.33" stroke-width="1" target-height="27.159988" target-width="18.654999" target-x="76.873" target-y="129.945"></path><path d="M 78.37 101.24 L 94.03 101.24 L 94.03 125.56 L 78.37 125.56 Z" fill="#bddfff" fill-opacity="0.33" fill-rule="nonzero" group-id="1,4,37" node-id="334" stroke-linecap="butt" stroke-opacity="0.33" stroke-width="1" target-height="24.310997" target-width="15.654999" target-x="78.373" target-y="101.244"></path><path d="M 94.03 127.06 L 78.37 127.06 C 77.54 127.06 76.87 126.38 76.87 125.56 L 76.87 101.24 C 76.87 100.42 77.54 99.74 78.37 99.74 L 94.03 99.74 C 94.86 99.74 95.53 100.42 95.53 101.24 L 95.53 125.56 C 95.53 126.38 94.86 127.06 94.03 127.06 Z M 79.87 124.06 L 92.53 124.06 L 92.53 102.74 L 79.87 102.74 L 79.87 124.06 Z" fill="#6e6e96" fill-opacity="0.33" fill-rule="nonzero" group-id="1,4,37" node-id="336" stroke-linecap="butt" stroke-opacity="0.33" stroke-width="1" target-height="27.310997" target-width="18.654999" target-x="76.873" target-y="99.744"></path><path d="M 100.44 131.44 L 116.10 131.44 L 116.10 155.60 L 100.44 155.60 Z" fill="#bddfff" fill-opacity="0.33" fill-rule="nonzero" group-id="1,4,37" node-id="338" stroke-linecap="butt" stroke-opacity="0.33" stroke-width="1" target-height="24.159988" target-width="15.659004" target-x="100.437" target-y="131.445"></path><path d="M 116.10 157.10 L 100.44 157.10 C 99.61 157.10 98.94 156.43 98.94 155.60 L 98.94 131.44 C 98.94 130.62 99.61 129.94 100.44 129.94 L 116.10 129.94 C 116.92 129.94 117.60 130.62 117.60 131.44 L 117.60 155.60 C 117.60 156.43 116.92 157.10 116.10 157.10 Z M 101.94 154.10 L 114.60 154.10 L 114.60 132.94 L 101.94 132.94 L 101.94 154.10 Z" fill="#6e6e96" fill-opacity="0.33" fill-rule="nonzero" group-id="1,4,37" node-id="340" stroke-linecap="butt" stroke-opacity="0.33" stroke-width="1" target-height="27.159988" target-width="18.659004" target-x="98.937" target-y="129.945"></path><path d="M 100.44 70.67 L 116.10 70.67 L 116.10 95.35 L 100.44 95.35 Z" fill="#bddfff" fill-opacity="0.33" fill-rule="nonzero" group-id="1,4,37" node-id="342" stroke-linecap="butt" stroke-opacity="0.33" stroke-width="1" target-height="24.677002" target-width="15.659004" target-x="100.437" target-y="70.671"></path><path d="M 116.10 96.85 L 100.44 96.85 C 99.61 96.85 98.94 96.18 98.94 95.35 L 98.94 70.67 C 98.94 69.84 99.61 69.17 100.44 69.17 L 116.10 69.17 C 116.92 69.17 117.60 69.84 117.60 70.67 L 117.60 95.35 C 117.60 96.18 116.92 96.85 116.10 96.85 Z M 101.94 93.85 L 114.60 93.85 L 114.60 72.17 L 101.94 72.17 L 101.94 93.85 Z" fill="#6e6e96" fill-opacity="0.33" fill-rule="nonzero" group-id="1,4,37" node-id="344" stroke-linecap="butt" stroke-opacity="0.33" stroke-width="1" target-height="27.677002" target-width="18.659004" target-x="98.937" target-y="69.171"></path><path d="M 100.44 101.24 L 116.10 101.24 L 116.10 125.56 L 100.44 125.56 Z" fill="#bddfff" fill-opacity="0.33" fill-rule="nonzero" group-id="1,4,37" node-id="346" stroke-linecap="butt" stroke-opacity="0.33" stroke-width="1" target-height="24.310997" target-width="15.659004" target-x="100.437" target-y="101.244"></path><path d="M 116.10 127.06 L 100.44 127.06 C 99.61 127.06 98.94 126.38 98.94 125.56 L 98.94 101.24 C 98.94 100.42 99.61 99.74 100.44 99.74 L 116.10 99.74 C 116.92 99.74 117.60 100.42 117.60 101.24 L 117.60 125.56 C 117.60 126.38 116.92 127.06 116.10 127.06 Z M 101.94 124.06 L 114.60 124.06 L 114.60 102.74 L 101.94 102.74 L 101.94 124.06 Z" fill="#6e6e96" fill-opacity="0.33" fill-rule="nonzero" group-id="1,4,37" node-id="348" stroke-linecap="butt" stroke-opacity="0.33" stroke-width="1" target-height="27.310997" target-width="18.659004" target-x="98.937" target-y="99.744"></path><path d="M 78.37 70.67 L 94.03 70.67 L 94.03 95.35 L 78.37 95.35 Z" fill="#bddfff" fill-opacity="0.33" fill-rule="nonzero" group-id="1,4,37" node-id="350" stroke-linecap="butt" stroke-opacity="0.33" stroke-width="1" target-height="24.677002" target-width="15.654999" target-x="78.373" target-y="70.671"></path><path d="M 94.03 96.85 L 78.37 96.85 C 77.54 96.85 76.87 96.18 76.87 95.35 L 76.87 70.67 C 76.87 69.84 77.54 69.17 78.37 69.17 L 94.03 69.17 C 94.86 69.17 95.53 69.84 95.53 70.67 L 95.53 95.35 C 95.53 96.18 94.86 96.85 94.03 96.85 Z M 79.87 93.85 L 92.53 93.85 L 92.53 72.17 L 79.87 72.17 L 79.87 93.85 Z" fill="#6e6e96" fill-opacity="0.33" fill-rule="nonzero" group-id="1,4,37" node-id="352" stroke-linecap="butt" stroke-opacity="0.33" stroke-width="1" target-height="27.677002" target-width="18.654999" target-x="76.873" target-y="69.171"></path><path d="M 43.48 52.67 L 196.71 52.67 L 196.71 59.74 L 43.48 59.74 Z" fill="#d5b697" fill-opacity="0.33" fill-rule="nonzero" group-id="1,4,37" node-id="354" stroke-linecap="butt" stroke-opacity="0.33" stroke-width="1" target-height="7.0739975" target-width="153.227" target-x="43.483" target-y="52.671"></path><path d="M 196.71 61.24 L 43.48 61.24 C 42.65 61.24 41.98 60.57 41.98 59.74 L 41.98 52.67 C 41.98 51.84 42.65 51.17 43.48 51.17 L 196.71 51.17 C 197.54 51.17 198.21 51.84 198.21 52.67 L 198.21 59.74 C 198.21 60.57 197.54 61.24 196.71 61.24 Z M 44.98 58.24 L 195.21 58.24 L 195.21 54.17 L 44.98 54.17 L 44.98 58.24 Z" fill="#6e6e96" fill-opacity="0.33" fill-rule="nonzero" group-id="1,4,37" node-id="356" stroke-linecap="butt" stroke-opacity="0.33" stroke-width="1" target-height="10.0739975" target-width="156.227" target-x="41.983" target-y="51.171"></path><path d="M 144.56 161.90 L 160.22 161.90 L 160.22 186.06 L 144.56 186.06 Z" fill="#bddfff" fill-opacity="0.33" fill-rule="nonzero" group-id="1,4,37" node-id="358" stroke-linecap="butt" stroke-opacity="0.33" stroke-width="1" target-height="24.159988" target-width="15.658005" target-x="144.564" target-y="161.895"></path><path d="M 160.22 187.56 L 144.56 187.56 C 143.74 187.56 143.06 186.88 143.06 186.06 L 143.06 161.90 C 143.06 161.07 143.74 160.40 144.56 160.40 L 160.22 160.40 C 161.05 160.40 161.72 161.07 161.72 161.90 L 161.72 186.06 C 161.72 186.88 161.05 187.56 160.22 187.56 Z M 146.06 184.56 L 158.72 184.56 L 158.72 163.40 L 146.06 163.40 L 146.06 184.56 Z" fill="#6e6e96" fill-opacity="0.33" fill-rule="nonzero" group-id="1,4,37" node-id="360" stroke-linecap="butt" stroke-opacity="0.33" stroke-width="1" target-height="27.159988" target-width="18.658005" target-x="143.064" target-y="160.395"></path><path d="M 166.63 161.90 L 185.05 161.90 L 185.05 186.06 L 166.63 186.06 Z" fill="#bddfff" fill-opacity="0.33" fill-rule="nonzero" group-id="1,4,37" node-id="362" stroke-linecap="butt" stroke-opacity="0.33" stroke-width="1" target-height="24.159988" target-width="18.425003" target-x="166.629" target-y="161.895"></path><path d="M 185.05 187.56 L 166.63 187.56 C 165.80 187.56 165.13 186.88 165.13 186.06 L 165.13 161.90 C 165.13 161.07 165.80 160.40 166.63 160.40 L 185.05 160.40 C 185.88 160.40 186.55 161.07 186.55 161.90 L 186.55 186.06 C 186.55 186.88 185.88 187.56 185.05 187.56 Z M 168.13 184.56 L 183.55 184.56 L 183.55 163.40 L 168.13 163.40 L 168.13 184.56 Z" fill="#6e6e96" fill-opacity="0.33" fill-rule="nonzero" group-id="1,4,37" node-id="364" stroke-linecap="butt" stroke-opacity="0.33" stroke-width="1" target-height="27.159988" target-width="21.425003" target-x="165.129" target-y="160.395"></path><path d="M 55.02 161.90 L 71.97 161.90 L 71.97 186.06 L 55.02 186.06 Z" fill="#bddfff" fill-opacity="0.33" fill-rule="nonzero" group-id="1,4,37" node-id="366" stroke-linecap="butt" stroke-opacity="0.33" stroke-width="1" target-height="24.159988" target-width="16.942001" target-x="55.025" target-y="161.895"></path><path d="M 71.97 187.56 L 55.02 187.56 C 54.20 187.56 53.52 186.88 53.52 186.06 L 53.52 161.90 C 53.52 161.07 54.20 160.40 55.02 160.40 L 71.97 160.40 C 72.80 160.40 73.47 161.07 73.47 161.90 L 73.47 186.06 C 73.47 186.88 72.80 187.56 71.97 187.56 Z M 56.52 184.56 L 70.47 184.56 L 70.47 163.40 L 56.52 163.40 L 56.52 184.56 Z" fill="#6e6e96" fill-opacity="0.33" fill-rule="nonzero" group-id="1,4,37" node-id="368" stroke-linecap="butt" stroke-opacity="0.33" stroke-width="1" target-height="27.159988" target-width="19.942001" target-x="53.525" target-y="160.395"></path><path d="M 78.37 161.90 L 94.03 161.90 L 94.03 186.06 L 78.37 186.06 Z" fill="#bddfff" fill-opacity="0.33" fill-rule="nonzero" group-id="1,4,37" node-id="370" stroke-linecap="butt" stroke-opacity="0.33" stroke-width="1" target-height="24.159988" target-width="15.654999" target-x="78.373" target-y="161.895"></path><path d="M 94.03 187.56 L 78.37 187.56 C 77.54 187.56 76.87 186.88 76.87 186.06 L 76.87 161.90 C 76.87 161.07 77.54 160.40 78.37 160.40 L 94.03 160.40 C 94.86 160.40 95.53 161.07 95.53 161.90 L 95.53 186.06 C 95.53 186.88 94.86 187.56 94.03 187.56 Z M 79.87 184.56 L 92.53 184.56 L 92.53 163.40 L 79.87 163.40 L 79.87 184.56 Z" fill="#6e6e96" fill-opacity="0.33" fill-rule="nonzero" group-id="1,4,37" node-id="372" stroke-linecap="butt" stroke-opacity="0.33" stroke-width="1" target-height="27.159988" target-width="18.654999" target-x="76.873" target-y="160.395"></path><path d="M 100.44 161.90 L 138.22 161.90 L 138.22 194.12 L 100.44 194.12 Z" fill="#e4bc96" fill-opacity="0.33" fill-rule="nonzero" group-id="1,4,37" node-id="374" stroke-linecap="butt" stroke-opacity="0.33" stroke-width="1" target-height="32.22899" target-width="37.783997" target-x="100.437" target-y="161.895"></path><path d="M 138.22 195.62 L 100.44 195.62 C 99.61 195.62 98.94 194.95 98.94 194.12 L 98.94 161.90 C 98.94 161.07 99.61 160.40 100.44 160.40 L 138.22 160.40 C 139.05 160.40 139.72 161.07 139.72 161.90 L 139.72 194.12 C 139.72 194.95 139.05 195.62 138.22 195.62 Z M 101.94 192.62 L 136.72 192.62 L 136.72 163.40 L 101.94 163.40 L 101.94 192.62 Z" fill="#6e6e96" fill-opacity="0.33" fill-rule="nonzero" group-id="1,4,37" node-id="376" stroke-linecap="butt" stroke-opacity="0.33" stroke-width="1" target-height="35.22899" target-width="40.783997" target-x="98.937" target-y="160.395"></path><path d="M 119.11 195.62 C 118.28 195.62 117.61 194.95 117.61 194.12 L 117.61 161.90 C 117.61 161.07 118.28 160.40 119.11 160.40 C 119.94 160.40 120.61 161.07 120.61 161.90 L 120.61 194.12 C 120.61 194.95 119.94 195.62 119.11 195.62 Z" fill="#6e6e96" fill-opacity="0.33" fill-rule="nonzero" group-id="1,4,37" node-id="378" stroke-linecap="butt" stroke-opacity="0.33" stroke-width="1" target-height="35.229996" target-width="3" target-x="117.613" target-y="160.395"></path></g><path d="M 85.83 191.56 L 123.83 191.56 L 123.83 209.56 L 85.83 209.56 Z" fill="#d6f0ff" fill-rule="nonzero" group-id="1,4" node-id="381" stroke="none" target-height="18" target-width="38" target-x="85.833" target-y="191.557"></path><path d="M 101.62 21.60 L 80.50 21.60 C 79.12 21.60 78.00 20.48 78.00 19.10 C 78.00 17.72 79.12 16.60 80.50 16.60 L 101.62 16.60 C 103.01 16.60 104.12 17.72 104.12 19.10 C 104.12 20.48 103.01 21.60 101.62 21.60 Z" fill="#ffffff" fill-rule="nonzero" group-id="1,4" node-id="383" stroke="none" target-height="5" target-width="26.125" target-x="78" target-y="16.598"></path><path d="M 115.47 32.52 L 90.70 32.52 C 89.32 32.52 88.20 31.41 88.20 30.02 C 88.20 28.64 89.32 27.52 90.70 27.52 L 115.47 27.52 C 116.85 27.52 117.97 28.64 117.97 30.02 C 117.97 31.41 116.85 32.52 115.47 32.52 Z" fill="#ffffff" fill-rule="nonzero" group-id="1,4" node-id="385" stroke="none" target-height="5.000002" target-width="29.766998" target-x="88.198" target-y="27.525"></path></g><g node-id="777"><path d="M 156.50 21.59 L 223.62 21.59 L 223.62 31.15 L 156.50 31.15 Z" fill="#ebebf7" fill-rule="nonzero" group-id="1,5" node-id="389" stroke="none" target-height="9.561001" target-width="67.121994" target-x="156.502" target-y="21.587"></path><path d="M 223.62 32.65 L 156.50 32.65 C 155.67 32.65 155.00 31.98 155.00 31.15 L 155.00 21.59 C 155.00 20.76 155.67 20.09 156.50 20.09 L 223.62 20.09 C 224.45 20.09 225.12 20.76 225.12 21.59 L 225.12 31.15 C 225.12 31.98 224.45 32.65 223.62 32.65 Z M 158.00 29.65 L 222.12 29.65 L 222.12 23.09 L 158.00 23.09 L 158.00 29.65 Z" fill="#ccccde" fill-rule="nonzero" group-id="1,5" node-id="391" stroke="none" target-height="12.560999" target-width="70.121994" target-x="155.002" target-y="20.087"></path><path d="M 137.10 30.98 L 242.69 30.98 L 242.69 200.34 L 137.10 200.34 Z" fill="#ffffff" fill-rule="nonzero" group-id="1,5" node-id="393" stroke="none" target-height="169.35501" target-width="105.58899" target-x="137.1" target-y="30.982"></path><path d="M 242.69 201.84 L 137.10 201.84 C 136.27 201.84 135.60 201.16 135.60 200.34 L 135.60 30.98 C 135.60 30.15 136.27 29.48 137.10 29.48 L 242.69 29.48 C 243.52 29.48 244.19 30.15 244.19 30.98 L 244.19 200.34 C 244.19 201.16 243.52 201.84 242.69 201.84 Z M 138.60 198.84 L 241.19 198.84 L 241.19 32.48 L 138.60 32.48 L 138.60 198.84 Z" fill="#ccccde" fill-rule="nonzero" group-id="1,5" node-id="395" stroke="none" target-height="172.35501" target-width="108.58899" target-x="135.6" target-y="29.482"></path><path d="M 146.17 39.45 L 234.21 39.45 L 234.21 200.34 L 146.17 200.34 Z" fill="#cfe7ff" fill-rule="nonzero" group-id="1,5" node-id="397" stroke="none" target-height="160.893" target-width="88.03601" target-x="146.174" target-y="39.445"></path><path d="M 234.21 201.84 L 146.17 201.84 C 145.35 201.84 144.67 201.17 144.67 200.34 L 144.67 39.45 C 144.67 38.62 145.35 37.95 146.17 37.95 L 234.21 37.95 C 235.04 37.95 235.71 38.62 235.71 39.45 L 235.71 200.34 C 235.71 201.17 235.04 201.84 234.21 201.84 Z M 147.67 198.84 L 232.71 198.84 L 232.71 40.95 L 147.67 40.95 L 147.67 198.84 Z" fill="#ccccde" fill-rule="nonzero" group-id="1,5" node-id="399" stroke="none" target-height="163.893" target-width="91.03601" target-x="144.674" target-y="37.945"></path><g node-id="810"><path d="M 147.30 123.09 L 229.94 40.45 L 170.00 40.62 L 147.30 63.99 Z" fill="#ffffff" fill-opacity="0.49" fill-rule="nonzero" group-id="1,5,38" node-id="403" stroke-linecap="butt" stroke-opacity="0.49" stroke-width="1" target-height="82.63901" target-width="82.64101" target-x="147.297" target-y="40.452"></path></g><g node-id="811"><path d="M 233.48 62.66 L 146.65 149.49 L 170.50 150.18 L 233.48 87.20 Z" fill="#ffffff" fill-opacity="0.27" fill-rule="nonzero" group-id="1,5,39" node-id="408" stroke-linecap="butt" stroke-opacity="0.27" stroke-width="1" target-height="87.51199" target-width="86.825" target-x="146.653" target-y="62.664"></path></g><path d="M 146.17 149.54 L 234.21 149.54 L 234.21 200.34 L 146.17 200.34 Z" fill="#cfe7ff" fill-rule="nonzero" group-id="1,5" node-id="411" stroke="none" target-height="50.793" target-width="88.03601" target-x="146.174" target-y="149.544"></path><path d="M 234.21 201.84 L 146.17 201.84 C 145.35 201.84 144.67 201.16 144.67 200.34 L 144.67 149.54 C 144.67 148.72 145.35 148.04 146.17 148.04 L 234.21 148.04 C 235.04 148.04 235.71 148.72 235.71 149.54 L 235.71 200.34 C 235.71 201.16 235.04 201.84 234.21 201.84 Z M 147.67 198.84 L 232.71 198.84 L 232.71 151.04 L 147.67 151.04 L 147.67 198.84 Z" fill="#ccccde" fill-rule="nonzero" group-id="1,5" node-id="413" stroke="none" target-height="53.793" target-width="91.03601" target-x="144.674" target-y="148.044"></path><path d="M 169.29 162.00 L 147.47 183.19 L 147.47 196.12 L 169.29 174.94 Z" fill="#ffffff" fill-opacity="0.1813" fill-rule="nonzero" group-id="1,5,40,46" node-id="419" stroke-linecap="butt" stroke-opacity="0.1813" stroke-width="1" target-height="34.121994" target-width="21.817993" target-x="147.475" target-y="162.003"></path><path d="M 147.35 173.38 L 159.06 162.00 L 147.35 162.00" fill="#ffffff" fill-opacity="0.1813" fill-rule="nonzero" group-id="1,5,40,47" node-id="424" stroke-linecap="butt" stroke-opacity="0.1813" stroke-width="1" target-height="11.373001" target-width="11.712997" target-x="147.349" target-y="162.003"></path><path d="M 200.76 162.00 L 179.57 183.19 L 179.57 196.12 L 200.76 174.94 Z" fill="#ffffff" fill-opacity="0.1813" fill-rule="nonzero" group-id="1,5,41,48" node-id="432" stroke-linecap="butt" stroke-opacity="0.1813" stroke-width="1" target-height="34.121994" target-width="21.184998" target-x="179.573" target-y="162.003"></path><path d="M 180.29 173.38 L 191.67 162.00 L 180.29 162.00" fill="#ffffff" fill-opacity="0.1813" fill-rule="nonzero" group-id="1,5,41,49" node-id="437" stroke-linecap="butt" stroke-opacity="0.1813" stroke-width="1" target-height="11.373001" target-width="11.373001" target-x="180.294" target-y="162.003"></path><path d="M 233.02 162.00 L 209.48 183.19 L 209.48 196.12 L 233.02 174.94 Z" fill="#ffffff" fill-opacity="0.1813" fill-rule="nonzero" group-id="1,5,42,50" node-id="445" stroke-linecap="butt" stroke-opacity="0.1813" stroke-width="1" target-height="34.121994" target-width="23.53801" target-x="209.48" target-y="162.003"></path><path d="M 210.28 173.38 L 222.92 162.00 L 210.28 162.00" fill="#ffffff" fill-opacity="0.1813" fill-rule="nonzero" group-id="1,5,42,51" node-id="450" stroke-linecap="butt" stroke-opacity="0.1813" stroke-width="1" target-height="11.373001" target-width="12.6380005" target-x="210.28" target-y="162.003"></path><path d="M 155.89 39.45 L 158.89 39.45 L 158.89 149.54 L 155.89 149.54 Z" fill="#ccccde" fill-rule="nonzero" group-id="1,5" node-id="454" stroke="none" target-height="110.09901" target-width="3" target-x="155.893" target-y="39.445"></path><path d="M 167.13 39.45 L 170.13 39.45 L 170.13 149.54 L 167.13 149.54 Z" fill="#ccccde" fill-rule="nonzero" group-id="1,5" node-id="456" stroke="none" target-height="110.09901" target-width="3" target-x="167.127" target-y="39.445"></path><path d="M 178.08 39.45 L 181.08 39.45 L 181.08 149.54 L 178.08 149.54 Z" fill="#ccccde" fill-rule="nonzero" group-id="1,5" node-id="458" stroke="none" target-height="110.09901" target-width="3" target-x="178.079" target-y="39.445"></path><path d="M 189.59 39.45 L 192.59 39.45 L 192.59 149.54 L 189.59 149.54 Z" fill="#ccccde" fill-rule="nonzero" group-id="1,5" node-id="460" stroke="none" target-height="110.09901" target-width="3" target-x="189.593" target-y="39.445"></path><path d="M 200.54 39.45 L 203.54 39.45 L 203.54 149.54 L 200.54 149.54 Z" fill="#ccccde" fill-rule="nonzero" group-id="1,5" node-id="462" stroke="none" target-height="110.09901" target-width="3" target-x="200.545" target-y="39.445"></path><path d="M 211.22 39.45 L 214.22 39.45 L 214.22 149.54 L 211.22 149.54 Z" fill="#ccccde" fill-rule="nonzero" group-id="1,5" node-id="464" stroke="none" target-height="110.09901" target-width="3" target-x="211.216" target-y="39.445"></path><path d="M 221.89 39.45 L 224.89 39.45 L 224.89 149.54 L 221.89 149.54 Z" fill="#ccccde" fill-rule="nonzero" group-id="1,5" node-id="466" stroke="none" target-height="110.09901" target-width="3" target-x="221.888" target-y="39.445"></path><path d="M 234.21 64.16 L 146.17 64.16 C 145.35 64.16 144.67 63.49 144.67 62.66 C 144.67 61.83 145.35 61.16 146.17 61.16 L 234.21 61.16 C 235.04 61.16 235.71 61.83 235.71 62.66 C 235.71 63.49 235.04 64.16 234.21 64.16 Z" fill="#ccccde" fill-rule="nonzero" group-id="1,5" node-id="468" stroke="none" target-height="3.0000038" target-width="91.03601" target-x="144.674" target-y="61.16"></path><path d="M 234.21 86.62 L 146.17 86.62 C 145.35 86.62 144.67 85.95 144.67 85.12 C 144.67 84.30 145.35 83.62 146.17 83.62 L 234.21 83.62 C 235.04 83.62 235.71 84.30 235.71 85.12 C 235.71 85.95 235.04 86.62 234.21 86.62 Z" fill="#ccccde" fill-rule="nonzero" group-id="1,5" node-id="470" stroke="none" target-height="3" target-width="91.03601" target-x="144.674" target-y="83.625"></path><path d="M 234.21 107.97 L 146.17 107.97 C 145.35 107.97 144.67 107.30 144.67 106.47 C 144.67 105.64 145.35 104.97 146.17 104.97 L 234.21 104.97 C 235.04 104.97 235.71 105.64 235.71 106.47 C 235.71 107.30 235.04 107.97 234.21 107.97 Z" fill="#ccccde" fill-rule="nonzero" group-id="1,5" node-id="472" stroke="none" target-height="3" target-width="91.03601" target-x="144.674" target-y="104.969"></path><path d="M 146.17 126.31 L 234.21 126.31 L 234.21 129.31 L 146.17 129.31 Z" fill="#ccccde" fill-rule="nonzero" group-id="1,5" node-id="474" stroke="none" target-height="3.0000076" target-width="88.03601" target-x="146.174" target-y="126.311"></path><path d="M 170.59 157.72 L 179.57 157.72 L 179.57 200.34 L 170.59 200.34 Z" fill="#f0f0ff" fill-rule="nonzero" group-id="1,5" node-id="476" stroke="none" target-height="42.61801" target-width="8.981003" target-x="170.592" target-y="157.719"></path><path d="M 179.57 201.84 L 170.59 201.84 C 169.76 201.84 169.09 201.16 169.09 200.34 L 169.09 157.72 C 169.09 156.89 169.76 156.22 170.59 156.22 L 179.57 156.22 C 180.40 156.22 181.07 156.89 181.07 157.72 L 181.07 200.34 C 181.07 201.16 180.40 201.84 179.57 201.84 Z M 172.09 198.84 L 178.07 198.84 L 178.07 159.22 L 172.09 159.22 L 172.09 198.84 Z" fill="#ccccde" fill-rule="nonzero" group-id="1,5" node-id="478" stroke="none" target-height="45.61801" target-width="11.981003" target-x="169.092" target-y="156.219"></path><path d="M 200.50 155.77 L 208.93 155.77 L 208.93 200.34 L 200.50 200.34 Z" fill="#f0f0ff" fill-rule="nonzero" group-id="1,5" node-id="480" stroke="none" target-height="44.56201" target-width="8.425003" target-x="200.5" target-y="155.773"></path><path d="M 208.93 201.84 L 200.50 201.84 C 199.67 201.84 199.00 201.16 199.00 200.34 L 199.00 155.77 C 199.00 154.95 199.67 154.27 200.50 154.27 L 208.93 154.27 C 209.75 154.27 210.43 154.95 210.43 155.77 L 210.43 200.34 C 210.43 201.16 209.75 201.84 208.93 201.84 Z M 202.00 198.84 L 207.43 198.84 L 207.43 157.27 L 202.00 157.27 L 202.00 198.84 Z" fill="#ccccde" fill-rule="nonzero" group-id="1,5" node-id="482" stroke="none" target-height="47.561996" target-width="11.425003" target-x="199" target-y="154.274"></path><path d="M 146.17 149.54 L 234.21 149.54 L 234.21 162.00 L 146.17 162.00 Z" fill="#f0f0ff" fill-rule="nonzero" group-id="1,5" node-id="484" stroke="none" target-height="12.459" target-width="88.03601" target-x="146.174" target-y="149.544"></path><path d="M 234.21 163.50 L 146.17 163.50 C 145.35 163.50 144.67 162.83 144.67 162.00 L 144.67 149.54 C 144.67 148.72 145.35 148.04 146.17 148.04 L 234.21 148.04 C 235.04 148.04 235.71 148.72 235.71 149.54 L 235.71 162.00 C 235.71 162.83 235.04 163.50 234.21 163.50 Z M 147.67 160.50 L 232.71 160.50 L 232.71 151.04 L 147.67 151.04 L 147.67 160.50 Z" fill="#ccccde" fill-rule="nonzero" group-id="1,5" node-id="486" stroke="none" target-height="15.459" target-width="91.03601" target-x="144.674" target-y="148.044"></path><path d="M 175.32 14.08 L 204.81 14.08 L 204.81 21.59 L 175.32 21.59 Z" fill="#ebebf7" fill-rule="nonzero" group-id="1,5" node-id="488" stroke="none" target-height="7.509" target-width="29.485992" target-x="175.319" target-y="14.078"></path><path d="M 204.81 23.09 L 175.32 23.09 C 174.49 23.09 173.82 22.42 173.82 21.59 L 173.82 14.08 C 173.82 13.25 174.49 12.58 175.32 12.58 L 204.81 12.58 C 205.63 12.58 206.31 13.25 206.31 14.08 L 206.31 21.59 C 206.31 22.42 205.63 23.09 204.81 23.09 Z M 176.82 20.09 L 203.31 20.09 L 203.31 15.58 L 176.82 15.58 L 176.82 20.09 Z" fill="#ccccde" fill-rule="nonzero" group-id="1,5" node-id="490" stroke="none" target-height="10.509" target-width="32.485992" target-x="173.819" target-y="12.578"></path><path d="M 190.06 15.58 C 189.24 15.58 188.56 14.91 188.56 14.08 L 188.56 1.83 C 188.56 1.00 189.24 0.33 190.06 0.33 C 190.89 0.33 191.56 1.00 191.56 1.83 L 191.56 14.08 C 191.56 14.91 190.89 15.58 190.06 15.58 Z" fill="#ccccde" fill-rule="nonzero" group-id="1,5" node-id="492" stroke="none" target-height="15.252" target-width="3" target-x="188.563" target-y="0.326"></path><path d="M 133.37 196.05 L 248.10 196.05 L 248.10 204.76 L 133.37 204.76 Z" fill="#f0f0ff" fill-rule="nonzero" group-id="1,5" node-id="494" stroke="none" target-height="8.706009" target-width="114.727005" target-x="133.373" target-y="196.051"></path><path d="M 248.10 206.26 L 133.37 206.26 C 132.54 206.26 131.87 205.59 131.87 204.76 L 131.87 196.05 C 131.87 195.22 132.54 194.55 133.37 194.55 L 248.10 194.55 C 248.93 194.55 249.60 195.22 249.60 196.05 L 249.60 204.76 C 249.60 205.59 248.93 206.26 248.10 206.26 Z M 134.87 203.26 L 246.60 203.26 L 246.60 197.55 L 134.87 197.55 L 134.87 203.26 Z" fill="#ccccde" fill-rule="nonzero" group-id="1,5" node-id="496" stroke="none" target-height="11.706009" target-width="117.727005" target-x="131.873" target-y="194.551"></path></g><g node-id="778"><path d="M 98.44 204.76 L 9.33 204.76 L 9.33 128.59 L 53.89 100.07 L 98.44 128.59 Z" fill="#ffffff" fill-rule="nonzero" group-id="1,6" node-id="500" stroke="none" target-height="104.685005" target-width="89.111" target-x="9.331" target-y="100.072"></path><path d="M 99.94 206.26 L 7.83 206.26 L 7.83 127.77 L 53.89 98.29 L 99.94 127.77 L 99.94 206.26 Z M 10.83 203.26 L 96.94 203.26 L 96.94 129.41 L 53.89 101.85 L 10.83 129.41 L 10.83 203.26 Z" fill="#ccccde" fill-rule="nonzero" group-id="1,6" node-id="502" stroke="none" target-height="107.965004" target-width="92.111" target-x="7.831" target-y="98.292"></path><path d="M 53.89 95.23 L 1.50 127.08 L 1.50 132.32 L 9.33 132.32 L 53.89 104.81 L 98.32 132.68 L 105.19 132.79 L 105.19 127.08 Z" fill="#e0e6fc" fill-rule="nonzero" group-id="1,6" node-id="504" stroke="none" target-height="37.556" target-width="103.693" target-x="1.5" target-y="95.235"></path><path d="M 105.19 134.29 C 105.19 134.29 105.18 134.29 105.17 134.29 L 98.30 134.18 C 98.02 134.18 97.76 134.10 97.53 133.96 L 53.88 106.58 L 10.12 133.60 C 9.88 133.74 9.61 133.82 9.33 133.82 L 1.50 133.82 C 0.67 133.82 0.00 133.15 0.00 132.32 L 0.00 127.08 C 0.00 126.56 0.27 126.07 0.72 125.80 L 53.11 93.95 C 53.59 93.66 54.20 93.66 54.68 93.96 L 105.98 125.81 C 106.42 126.08 106.69 126.56 106.69 127.08 L 106.69 132.79 C 106.69 133.19 106.53 133.58 106.25 133.86 C 105.96 134.14 105.59 134.29 105.19 134.29 Z M 98.76 131.19 L 103.69 131.27 L 103.69 127.92 L 53.88 97.00 L 3.00 127.93 L 3.00 130.82 L 8.90 130.82 L 53.10 103.54 C 53.59 103.24 54.20 103.24 54.68 103.55 L 98.76 131.19 Z" fill="#ccccde" fill-rule="nonzero" group-id="1,6" node-id="506" stroke="none" target-height="40.555115" target-width="106.693" target-x="0" target-y="93.735886"></path><path d="M 17.74 166.61 L 47.99 166.61 L 47.99 186.57 L 17.74 186.57 Z" fill="#d4eaff" fill-rule="nonzero" group-id="1,6" node-id="508" stroke="none" target-height="19.960999" target-width="30.25" target-x="17.744" target-y="166.613"></path><path d="M 47.99 188.07 L 17.74 188.07 C 16.91 188.07 16.24 187.40 16.24 186.57 L 16.24 166.61 C 16.24 165.78 16.91 165.11 17.74 165.11 L 47.99 165.11 C 48.82 165.11 49.49 165.78 49.49 166.61 L 49.49 186.57 C 49.49 187.40 48.82 188.07 47.99 188.07 Z M 19.24 185.07 L 46.49 185.07 L 46.49 168.11 L 19.24 168.11 L 19.24 185.07 Z" fill="#ccccde" fill-rule="nonzero" group-id="1,6" node-id="510" stroke="none" target-height="22.960999" target-width="33.25" target-x="16.244" target-y="165.113"></path><path d="M 9.33 192.63 L 98.44 192.63 L 98.44 204.76 L 9.33 204.76 Z" fill="#fcebe3" fill-rule="nonzero" group-id="1,6" node-id="512" stroke="none" target-height="12.130997" target-width="89.109" target-x="9.331" target-y="192.626"></path><path d="M 98.44 206.26 L 9.33 206.26 C 8.50 206.26 7.83 205.59 7.83 204.76 L 7.83 192.63 C 7.83 191.80 8.50 191.13 9.33 191.13 L 98.44 191.13 C 99.27 191.13 99.94 191.80 99.94 192.63 L 99.94 204.76 C 99.94 205.59 99.27 206.26 98.44 206.26 Z M 10.83 203.26 L 96.94 203.26 L 96.94 194.13 L 10.83 194.13 L 10.83 203.26 Z" fill="#ccccde" fill-rule="nonzero" group-id="1,6" node-id="514" stroke="none" target-height="15.130997" target-width="92.109" target-x="7.831" target-y="191.126"></path><path d="M 49.26 204.76 C 49.26 204.74 49.26 204.71 49.26 204.69 C 49.26 200.93 46.63 197.89 43.40 197.89 C 41.90 197.89 40.53 198.55 39.50 199.62 C 38.69 195.15 35.28 191.80 31.19 191.80 C 29.33 191.80 27.61 192.50 26.21 193.68 C 24.45 190.88 21.61 189.04 18.39 189.04 C 13.97 189.04 10.25 192.48 9.09 197.18 C 8.66 197.07 8.21 197.00 7.75 197.00 C 4.30 197.00 1.50 200.24 1.50 204.25 C 1.50 204.42 1.51 204.59 1.52 204.76 L 49.26 204.76 L 49.26 204.76 Z" fill="#cce8d6" fill-rule="nonzero" group-id="1,6" node-id="516" stroke="none" target-height="15.712997" target-width="47.761" target-x="1.5" target-y="189.044"></path><path d="M 49.26 206.26 L 1.52 206.26 C 0.72 206.26 0.06 205.63 0.02 204.83 C 0.01 204.57 0.00 204.41 0.00 204.25 C 0.00 199.32 3.61 195.32 8.03 195.51 C 9.71 190.76 13.81 187.54 18.39 187.54 C 21.50 187.54 24.46 189.03 26.55 191.60 C 27.98 190.75 29.55 190.30 31.19 190.30 C 35.21 190.30 38.79 193.07 40.35 197.13 C 41.30 196.64 42.33 196.39 43.39 196.39 C 47.45 196.39 50.76 200.11 50.76 204.69 C 50.76 204.73 50.76 204.81 50.75 204.85 C 50.75 205.68 50.09 206.26 49.26 206.26 Z M 3.07 203.26 L 47.61 203.26 C 47.11 201.05 45.41 199.39 43.40 199.39 C 42.08 199.39 41.14 200.08 40.58 200.66 C 40.19 201.06 39.60 201.21 39.06 201.05 C 38.52 200.89 38.12 200.44 38.02 199.89 C 37.33 196.07 34.46 193.30 31.19 193.30 C 29.75 193.30 28.36 193.83 27.18 194.83 C 26.85 195.11 26.41 195.23 25.98 195.16 C 25.55 195.10 25.17 194.85 24.94 194.48 C 23.37 191.98 20.99 190.54 18.39 190.54 C 14.79 190.54 11.57 193.42 10.55 197.54 C 10.46 197.93 10.21 198.26 9.86 198.46 C 9.52 198.67 9.11 198.73 8.72 198.63 C 8.38 198.54 8.06 198.50 7.75 198.50 C 5.41 198.50 3.46 200.56 3.07 203.26 Z" fill="#ccccde" fill-rule="nonzero" group-id="1,6" node-id="518" stroke="none" target-height="18.712997" target-width="50.759" target-x="0" target-y="187.544"></path><path d="M 61.47 166.61 L 84.71 166.61 L 84.71 204.76 L 61.47 204.76 Z" fill="#ffdede" fill-rule="nonzero" group-id="1,6" node-id="520" stroke="none" target-height="38.14499" target-width="23.239998" target-x="61.471" target-y="166.613"></path><path d="M 84.71 206.26 L 61.47 206.26 C 60.64 206.26 59.97 205.59 59.97 204.76 L 59.97 166.61 C 59.97 165.78 60.64 165.11 61.47 165.11 L 84.71 165.11 C 85.54 165.11 86.21 165.78 86.21 166.61 L 86.21 204.76 C 86.21 205.59 85.54 206.26 84.71 206.26 Z M 62.97 203.26 L 83.21 203.26 L 83.21 168.11 L 62.97 168.11 L 62.97 203.26 Z" fill="#ccccde" fill-rule="nonzero" group-id="1,6" node-id="522" stroke="none" target-height="41.14499" target-width="26.239998" target-x="59.971" target-y="165.113"></path><path d="M 98.44 161.01 L 9.33 161.01 C 8.50 161.01 7.83 160.34 7.83 159.51 C 7.83 158.68 8.50 158.01 9.33 158.01 L 98.44 158.01 C 99.27 158.01 99.94 158.68 99.94 159.51 C 99.94 160.34 99.27 161.01 98.44 161.01 Z" fill="#ccccde" fill-rule="nonzero" group-id="1,6" node-id="524" stroke="none" target-height="3" target-width="92.11" target-x="7.831" target-y="158.007"></path><path d="M 17.74 133.69 L 34.02 133.69 L 34.02 152.22 L 17.74 152.22 Z" fill="#d4eaff" fill-rule="nonzero" group-id="1,6" node-id="526" stroke="none" target-height="18.535004" target-width="16.274002" target-x="17.744" target-y="133.689"></path><path d="M 34.02 153.72 L 17.74 153.72 C 16.91 153.72 16.24 153.05 16.24 152.22 L 16.24 133.69 C 16.24 132.86 16.91 132.19 17.74 132.19 L 34.02 132.19 C 34.85 132.19 35.52 132.86 35.52 133.69 L 35.52 152.22 C 35.52 153.05 34.85 153.72 34.02 153.72 Z M 19.24 150.72 L 32.52 150.72 L 32.52 135.19 L 19.24 135.19 L 19.24 150.72 Z" fill="#ccccde" fill-rule="nonzero" group-id="1,6" node-id="528" stroke="none" target-height="21.535004" target-width="19.274002" target-x="16.244" target-y="132.19"></path><path d="M 34.02 144.46 L 17.74 144.46 C 16.91 144.46 16.24 143.78 16.24 142.96 C 16.24 142.13 16.91 141.46 17.74 141.46 L 34.02 141.46 C 34.85 141.46 35.52 142.13 35.52 142.96 C 35.52 143.78 34.85 144.46 34.02 144.46 Z" fill="#ccccde" fill-rule="nonzero" group-id="1,6" node-id="530" stroke="none" target-height="3" target-width="19.276001" target-x="16.244" target-y="141.457"></path><path d="M 73.42 133.69 L 89.70 133.69 L 89.70 152.22 L 73.42 152.22 Z" fill="#d4eaff" fill-rule="nonzero" group-id="1,6" node-id="532" stroke="none" target-height="18.535004" target-width="16.277" target-x="73.422" target-y="133.689"></path><path d="M 89.70 153.72 L 73.42 153.72 C 72.59 153.72 71.92 153.05 71.92 152.22 L 71.92 133.69 C 71.92 132.86 72.59 132.19 73.42 132.19 L 89.70 132.19 C 90.53 132.19 91.20 132.86 91.20 133.69 L 91.20 152.22 C 91.20 153.05 90.53 153.72 89.70 153.72 Z M 74.92 150.72 L 88.20 150.72 L 88.20 135.19 L 74.92 135.19 L 74.92 150.72 Z" fill="#ccccde" fill-rule="nonzero" group-id="1,6" node-id="534" stroke="none" target-height="21.535004" target-width="19.277" target-x="71.922" target-y="132.19"></path><path d="M 89.70 144.46 L 73.42 144.46 C 72.59 144.46 71.92 143.78 71.92 142.96 C 71.92 142.13 72.59 141.46 73.42 141.46 L 89.70 141.46 C 90.53 141.46 91.20 142.13 91.20 142.96 C 91.20 143.78 90.53 144.46 89.70 144.46 Z" fill="#ccccde" fill-rule="nonzero" group-id="1,6" node-id="536" stroke="none" target-height="3" target-width="19.277" target-x="71.922" target-y="141.457"></path><path d="M 45.66 133.69 L 61.94 133.69 L 61.94 152.22 L 45.66 152.22 Z" fill="#d4eaff" fill-rule="nonzero" group-id="1,6" node-id="538" stroke="none" target-height="18.535004" target-width="16.273998" target-x="45.664" target-y="133.689"></path><path d="M 61.94 153.72 L 45.66 153.72 C 44.84 153.72 44.16 153.05 44.16 152.22 L 44.16 133.69 C 44.16 132.86 44.84 132.19 45.66 132.19 L 61.94 132.19 C 62.77 132.19 63.44 132.86 63.44 133.69 L 63.44 152.22 C 63.44 153.05 62.77 153.72 61.94 153.72 Z M 47.16 150.72 L 60.44 150.72 L 60.44 135.19 L 47.16 135.19 L 47.16 150.72 Z" fill="#ccccde" fill-rule="nonzero" group-id="1,6" node-id="540" stroke="none" target-height="21.535004" target-width="19.273998" target-x="44.164" target-y="132.19"></path><path d="M 61.94 144.46 L 45.66 144.46 C 44.84 144.46 44.16 143.78 44.16 142.96 C 44.16 142.13 44.84 141.46 45.66 141.46 L 61.94 141.46 C 62.77 141.46 63.44 142.13 63.44 142.96 C 63.44 143.78 62.77 144.46 61.94 144.46 Z" fill="#ccccde" fill-rule="nonzero" group-id="1,6" node-id="542" stroke="none" target-height="3" target-width="19.275997" target-x="44.164" target-y="141.457"></path><path d="M 32.91 188.07 C 32.08 188.07 31.41 187.40 31.41 186.57 L 31.41 166.61 C 31.41 165.78 32.08 165.11 32.91 165.11 C 33.73 165.11 34.41 165.78 34.41 166.61 L 34.41 186.57 C 34.41 187.40 33.73 188.07 32.91 188.07 Z" fill="#ccccde" fill-rule="nonzero" group-id="1,6" node-id="544" stroke="none" target-height="22.960999" target-width="2.999998" target-x="31.406" target-y="165.113"></path><path d="M 58.33 200.40 L 87.86 200.40 L 87.86 204.75 L 58.33 204.75 Z" fill="#f0f0ff" fill-rule="nonzero" group-id="1,6" node-id="546" stroke="none" target-height="4.355011" target-width="29.531002" target-x="58.325" target-y="200.4"></path><path d="M 87.86 206.26 L 58.33 206.26 C 57.50 206.26 56.83 205.58 56.83 204.76 L 56.83 200.40 C 56.83 199.57 57.50 198.90 58.33 198.90 L 87.86 198.90 C 88.69 198.90 89.36 199.57 89.36 200.40 L 89.36 204.75 C 89.36 205.58 88.69 206.26 87.86 206.26 Z M 59.83 203.26 L 86.36 203.26 L 86.36 201.90 L 59.83 201.90 L 59.83 203.26 Z" fill="#ccccde" fill-rule="nonzero" group-id="1,6" node-id="548" stroke="none" target-height="7.356003" target-width="32.531002" target-x="56.825" target-y="198.9"></path><path d="M 111.88 204.76 C 111.88 204.74 111.88 204.73 111.88 204.71 C 111.88 202.20 110.12 200.16 107.95 200.16 C 106.95 200.16 106.04 200.60 105.34 201.32 C 104.81 198.33 102.53 196.09 99.79 196.09 C 98.55 196.09 97.39 196.56 96.46 197.35 C 95.28 195.47 93.38 194.25 91.23 194.25 C 88.28 194.25 85.79 196.55 85.01 199.68 C 84.72 199.61 84.42 199.57 84.11 199.57 C 81.80 199.57 79.94 201.74 79.94 204.41 C 79.94 204.53 79.94 204.64 79.95 204.76 L 111.88 204.76 L 111.88 204.76 Z" fill="#cce8d6" fill-rule="nonzero" group-id="1,6" node-id="550" stroke="none" target-height="10.512009" target-width="31.943" target-x="79.935" target-y="194.245"></path><path d="M 111.88 206.26 L 111.88 206.26 L 79.95 206.26 C 79.18 206.26 78.53 205.67 78.46 204.90 C 78.44 204.74 78.44 204.57 78.44 204.41 C 78.44 200.97 80.90 198.16 83.96 198.07 C 85.23 194.88 88.07 192.75 91.23 192.75 C 93.33 192.75 95.33 193.69 96.81 195.32 C 97.73 194.84 98.75 194.59 99.79 194.59 C 102.53 194.59 104.98 196.35 106.18 198.99 C 106.75 198.78 107.34 198.66 107.95 198.66 C 110.95 198.66 113.38 201.38 113.38 204.71 C 113.38 204.75 113.38 204.79 113.37 204.84 C 113.35 205.21 113.20 205.56 112.94 205.82 C 112.66 206.10 112.27 206.26 111.88 206.26 Z M 81.60 203.26 L 110.08 203.26 C 109.67 202.31 108.87 201.66 107.95 201.66 C 107.25 201.66 106.73 202.04 106.42 202.36 C 106.03 202.76 105.45 202.91 104.91 202.75 C 104.37 202.59 103.97 202.14 103.87 201.59 C 103.45 199.27 101.73 197.59 99.79 197.59 C 98.95 197.59 98.13 197.90 97.43 198.49 C 97.09 198.77 96.66 198.90 96.23 198.83 C 95.80 198.76 95.42 198.51 95.19 198.14 C 94.24 196.62 92.79 195.75 91.23 195.75 C 89.05 195.75 87.10 197.51 86.47 200.04 C 86.37 200.43 86.13 200.77 85.78 200.97 C 85.44 201.18 85.03 201.24 84.64 201.14 C 83.28 200.79 82.03 201.79 81.60 203.26 Z" fill="#ccccde" fill-rule="nonzero" group-id="1,6" node-id="552" stroke="none" target-height="13.511002" target-width="34.944" target-x="78.435" target-y="192.746"></path><path d="M 65.34 187.38 C 64.52 187.38 63.84 186.70 63.84 185.88 L 63.84 181.03 C 63.84 180.21 64.52 179.53 65.34 179.53 C 66.17 179.53 66.84 180.21 66.84 181.03 L 66.84 185.88 C 66.84 186.70 66.17 187.38 65.34 187.38 Z" fill="#ccccde" fill-rule="nonzero" group-id="1,6" node-id="554" stroke="none" target-height="7.8399963" target-width="3" target-x="63.845" target-y="179.535"></path></g></g><g node-id="774"><g node-id="779"><path d="M 96.52 134.20 C 96.52 134.20 97.08 121.79 109.18 121.79 C 121.27 121.79 94.27 146.60 96.52 134.20 Z" fill="#ffffff" fill-opacity="0.54" fill-rule="nonzero" group-id="2,7" node-id="561" stroke-linecap="butt" stroke-opacity="0.54" stroke-width="1" target-height="15.858604" target-width="15.890762" target-x="96.41036" target-y="121.792"></path></g><g node-id="780"><path d="M 89.50 172.13 C 80.40 172.13 74.54 163.38 76.47 154.67 L 84.34 123.12 C 86.27 114.41 95.29 107.27 104.39 107.27 L 177.44 107.27 C 186.54 107.27 195.10 114.49 196.46 123.31 L 201.89 154.48 C 203.25 163.30 196.92 172.13 187.82 172.13 L 89.50 172.13 Z" fill="#ffe35f" fill-rule="nonzero" group-id="2,8" node-id="566" stroke="none" target-height="64.86099" target-width="125.949615" target-x="76.11012" target-y="107.274"></path><path d="M 89.50 173.63 L 89.50 173.63 C 84.98 173.63 80.94 171.70 78.12 168.18 C 75.08 164.41 73.92 159.24 75.00 154.34 L 82.89 122.76 C 84.95 113.41 94.60 105.77 104.39 105.77 L 177.44 105.77 C 187.28 105.77 196.47 113.54 197.94 123.08 L 203.37 154.22 C 204.14 159.21 202.66 164.43 199.41 168.21 C 196.41 171.71 192.29 173.63 187.82 173.63 L 89.50 173.63 Z M 104.39 108.77 C 95.93 108.77 87.59 115.36 85.81 123.44 L 77.92 155.03 C 77.04 159.00 77.99 163.23 80.46 166.30 C 82.70 169.10 85.91 170.63 89.50 170.63 L 187.82 170.63 C 191.41 170.63 194.71 169.07 197.13 166.25 C 199.82 163.13 201.04 158.81 200.41 154.71 L 194.98 123.56 C 193.72 115.39 185.86 108.77 177.44 108.77 L 104.39 108.77 Z" fill="#6e6e96" fill-rule="nonzero" group-id="2,8" node-id="568" stroke="none" target-height="67.86099" target-width="128.91985" target-x="74.64606" target-y="105.774"></path></g><g node-id="781"><path d="M 92.32 127.02 L 90.58 135.83 C 89.07 142.43 89.23 147.84 96.37 147.84 L 136.32 147.84 L 136.32 115.01 L 108.05 115.01 C 100.42 115.00 94.34 118.22 92.32 127.02 Z M 190.11 135.68 L 188.51 127.16 C 187.45 120.47 183.91 115.00 174.46 115.00 L 145.07 115.00 L 145.07 147.84 L 183.46 147.84 C 190.60 147.84 191.18 142.37 190.11 135.68 Z" fill="#aadbf7" fill-rule="nonzero" group-id="2,9" node-id="573" stroke="none" target-height="32.840996" target-width="100.666824" target-x="89.82396" target-y="115.001"></path><path d="M 136.32 149.34 L 96.37 149.34 C 93.42 149.34 91.24 148.48 89.89 146.78 C 87.58 143.89 88.26 139.23 89.12 135.49 L 90.85 126.73 C 92.83 118.06 98.78 113.50 108.04 113.50 L 136.32 113.50 C 137.15 113.50 137.82 114.18 137.82 115.00 L 137.82 147.84 C 137.82 148.67 137.15 149.34 136.32 149.34 Z M 108.05 116.51 C 100.12 116.51 95.46 120.06 93.79 127.36 L 92.05 136.12 C 91.01 140.68 91.07 143.46 92.23 144.92 C 93.00 145.88 94.35 146.34 96.37 146.34 L 134.82 146.34 L 134.82 116.51 L 108.05 116.51 Z M 183.47 149.34 L 183.47 149.34 L 183.46 149.34 L 145.07 149.34 C 144.24 149.34 143.57 148.66 143.57 147.84 L 143.57 115.00 C 143.57 114.17 144.24 113.50 145.07 113.50 L 174.46 113.50 C 183.35 113.50 188.58 118.02 189.99 126.93 L 191.59 135.41 C 192.19 139.20 192.56 143.88 190.08 146.78 C 188.64 148.48 186.41 149.34 183.47 149.34 Z M 146.57 146.34 L 183.46 146.34 L 183.47 146.34 L 183.47 146.34 C 185.52 146.34 186.94 145.84 187.80 144.83 C 189.10 143.31 189.36 140.48 188.63 135.92 L 187.04 127.44 C 185.85 119.96 181.85 116.50 174.46 116.50 L 146.57 116.50 L 146.57 146.34 Z" fill="#6e6e96" fill-rule="nonzero" group-id="2,9" node-id="575" stroke="none" target-height="35.840996" target-width="103.70061" target-x="88.31619" target-y="113.501"></path></g><path d="M 78.52 158.08 L 86.13 127.63 C 87.98 119.22 96.69 112.33 105.48 112.33 L 176.00 112.33 C 184.78 112.33 193.04 119.29 194.35 127.81 L 199.59 157.90 C 199.61 158.02 199.62 158.15 199.64 158.27 C 199.82 156.87 199.82 155.43 199.59 153.99 L 194.35 123.90 C 193.04 115.39 184.78 108.42 176.00 108.42 L 105.48 108.42 C 96.69 108.42 87.99 115.31 86.13 123.72 L 78.52 154.17 C 78.14 155.92 78.08 157.67 78.30 159.35 C 78.36 158.93 78.43 158.50 78.52 158.08 Z" fill="#fff1b0" fill-rule="nonzero" group-id="2" node-id="578" stroke="none" target-height="50.927002" target-width="121.5851" target-x="78.182755" target-y="108.425"></path><path d="M 49.37 215.91 C 49.37 215.91 40.69 215.88 37.03 215.86 C 33.36 215.83 30.39 212.51 30.42 208.49 L 30.54 181.65 L 30.61 177.44 C 30.61 169.60 37.03 164.66 45.22 162.80 L 74.68 156.66 L 203.49 156.66 C 207.28 158.00 219.52 158.25 219.52 173.56 L 219.74 209.63 C 219.77 213.66 216.51 216.93 212.48 216.91 L 205.08 216.85" fill="#ffe35f" fill-rule="nonzero" group-id="2,10" node-id="582" stroke="none" target-height="60.25" target-width="189.319" target-x="30.419" target-y="156.655"></path><path d="M 212.53 218.41 C 212.51 218.41 212.49 218.41 212.47 218.41 L 205.07 218.35 L 205.09 215.35 L 212.49 215.41 C 212.50 215.41 212.52 215.41 212.53 215.41 C 214.06 215.41 215.49 214.81 216.57 213.73 C 217.66 212.64 218.25 211.19 218.24 209.65 L 218.02 173.57 C 218.02 161.69 210.36 159.88 205.30 158.69 C 204.52 158.51 203.83 158.34 203.24 158.16 L 74.83 158.16 L 45.52 164.27 C 37.13 166.18 32.10 171.10 32.10 177.44 L 32.04 181.67 L 31.92 208.50 C 31.91 210.07 32.45 211.55 33.45 212.67 C 34.42 213.75 35.69 214.35 37.04 214.36 C 40.70 214.38 49.37 214.41 49.37 214.41 L 49.36 217.41 C 49.36 217.41 40.68 217.38 37.02 217.36 C 34.82 217.34 32.76 216.39 31.22 214.67 C 29.72 213.00 28.90 210.80 28.92 208.48 L 29.04 181.64 L 29.10 177.42 C 29.10 169.60 35.00 163.58 44.88 161.34 L 74.67 155.16 L 203.74 155.16 L 203.99 155.24 C 204.47 155.41 205.17 155.58 205.98 155.77 C 210.86 156.92 221.01 159.31 221.01 173.56 L 221.24 209.62 C 221.26 211.97 220.35 214.19 218.69 215.85 C 217.05 217.50 214.86 218.41 212.53 218.41 Z" fill="#6e6e96" fill-rule="nonzero" group-id="2,10" node-id="584" stroke="none" target-height="63.252" target-width="192.318" target-x="28.917" target-y="155.155"></path><path d="M 218.09 175.11 C 218.09 157.66 206.00 159.62 202.25 158.28 L 75.00 158.28 L 45.90 164.40 C 37.81 166.25 31.46 168.96 31.46 178.97 L 31.40 183.16 L 31.28 209.88 C 31.25 213.89 34.19 217.19 37.81 217.22 C 41.43 217.24 50.00 217.26 50.00 217.26 L 203.82 218.22 L 211.13 218.27 C 215.11 218.29 218.34 215.04 218.31 211.03 L 218.09 175.11 Z M 199.75 206.16 L 193.08 206.12 L 52.76 205.36 C 52.76 205.36 44.94 205.34 41.64 205.32 C 38.34 205.30 35.66 202.66 35.68 199.47 L 35.80 182.17 L 35.85 175.60 C 35.85 169.38 41.64 165.45 49.02 163.97 L 75.57 159.09 L 191.65 159.08 C 195.07 160.16 206.09 160.35 206.09 172.52 L 206.29 200.38 C 206.32 203.59 203.38 206.18 199.75 206.16 Z" fill="#edca4c" fill-rule="nonzero" group-id="2,11" node-id="589" stroke="none" target-height="59.990997" target-width="187.02798" target-x="31.277" target-y="158.28"></path><path d="M 40.88 190.94 L 40.94 182.86 C 40.94 175.20 47.23 174.42 55.23 172.60 L 81.32 167.16 L 210.00 166.60 C 211.31 167.06 213.64 167.40 216.11 168.29 C 213.33 159.34 204.39 158.98 201.28 157.88 L 75.32 157.88 L 46.51 163.89 C 38.51 165.70 32.22 170.54 32.22 178.20 L 32.16 182.23 L 32.04 208.47 C 32.01 212.41 34.92 215.65 38.50 215.68 C 39.13 215.68 39.91 215.69 40.77 215.69 L 40.88 190.94 Z" fill="#ffffff" fill-opacity="0.44" fill-rule="nonzero" group-id="2,12" node-id="594" stroke-linecap="butt" stroke-opacity="0.44" stroke-width="1" target-height="57.80899" target-width="184.074" target-x="32.038" target-y="157.88"></path><path d="M 91.94 219.22 L 153.83 219.22 L 153.83 219.22 C 155.40 219.22 156.67 217.95 156.67 216.39 C 156.67 214.82 155.40 213.55 153.83 213.55 L 153.83 213.55 L 91.94 213.55 L 91.94 213.55 C 90.37 213.55 89.10 214.82 89.10 216.39 C 89.10 217.95 90.37 219.22 91.94 219.22 L 91.94 219.22 Z" fill="#6e6e96" fill-rule="nonzero" group-id="2,13" node-id="599" stroke="none" target-height="5.675003" target-width="67.566" target-x="89.102" target-y="213.55"></path><path d="M 40.01 205.54 C 40.01 205.54 44.00 183.70 69.54 183.70 C 95.08 183.70 101.17 205.85 101.17 205.85 L 40.01 205.54 Z" fill="#edca4c" fill-rule="nonzero" group-id="2,14" node-id="604" stroke="none" target-height="22.143997" target-width="61.16" target-x="40.005" target-y="183.702"></path><path d="M 95.15 195.04 L 152.67 195.04 L 152.67 203.25 L 95.15 203.25 Z" fill="#edca4c" fill-rule="nonzero" group-id="2" node-id="607" stroke="none" target-height="8.211014" target-width="57.521004" target-x="95.146" target-y="195.04"></path><path d="M 146.21 206.35 C 146.21 206.35 151.83 182.89 177.37 182.89 C 208.18 182.89 207.37 206.66 207.37 206.66 L 146.21 206.35 Z" fill="#edca4c" fill-rule="nonzero" group-id="2,15" node-id="611" stroke="none" target-height="23.763992" target-width="61.160004" target-x="146.213" target-y="182.893"></path><path d="M 224.76 216.11 C 224.76 218.34 222.94 220.17 220.71 220.17 L 30.45 220.17 C 28.22 220.17 26.39 218.34 26.39 216.11 L 26.39 208.13 C 26.39 205.91 28.22 204.08 30.45 204.08 L 220.71 204.08 C 222.94 204.08 224.77 205.90 224.77 208.13 L 224.76 216.11 L 224.76 216.11 Z" fill="#f0f0ff" fill-rule="nonzero" group-id="2,16" node-id="616" stroke="none" target-height="16.089005" target-width="198.373" target-x="26.394" target-y="204.08"></path><path d="M 220.71 221.67 L 30.45 221.67 C 27.39 221.67 24.89 219.18 24.89 216.11 L 24.89 208.13 C 24.89 205.07 27.39 202.58 30.45 202.58 L 220.71 202.58 C 223.77 202.58 226.27 205.07 226.27 208.13 L 226.26 216.12 C 226.26 219.18 223.77 221.67 220.71 221.67 Z M 30.45 205.58 C 29.04 205.58 27.89 206.73 27.89 208.13 L 27.89 216.11 C 27.89 217.52 29.04 218.67 30.45 218.67 L 220.71 218.67 C 222.12 218.67 223.26 217.52 223.26 216.11 L 223.27 208.13 C 223.27 206.73 222.12 205.58 220.71 205.58 L 30.45 205.58 Z" fill="#6e6e96" fill-rule="nonzero" group-id="2,16" node-id="618" stroke="none" target-height="19.089005" target-width="201.373" target-x="24.894" target-y="202.58"></path><path d="M 26.39 213.42 L 223.58 213.42 L 223.58 219.10 L 26.39 219.10 Z" fill="#6e6e96" fill-opacity="0.15" fill-rule="nonzero" group-id="2,17" node-id="623" stroke-linecap="butt" stroke-opacity="0.15" stroke-width="1" target-height="5.679001" target-width="197.18799" target-x="26.395" target-y="213.419"></path><path d="M 27.90 188.25 L 36.16 188.25 L 36.16 204.06 L 27.90 204.06 Z" fill="#ffff00" fill-rule="nonzero" group-id="2,18" node-id="628" stroke="none" target-height="15.811996" target-width="8.257999" target-x="27.902" target-y="188.251"></path><path d="M 36.16 205.56 L 27.90 205.56 C 27.07 205.56 26.40 204.89 26.40 204.06 L 26.40 188.25 C 26.40 187.42 27.07 186.75 27.90 186.75 L 36.16 186.75 C 36.99 186.75 37.66 187.42 37.66 188.25 L 37.66 204.06 C 37.66 204.89 36.99 205.56 36.16 205.56 Z M 29.40 202.56 L 34.66 202.56 L 34.66 189.75 L 29.40 189.75 L 29.40 202.56 Z" fill="#6e6e96" fill-rule="nonzero" group-id="2,18" node-id="630" stroke="none" target-height="18.811996" target-width="11.258001" target-x="26.401" target-y="186.75"></path><path d="M 83.32 166.95 L 132.41 166.95 L 132.41 163.48 L 83.32 163.48 L 83.32 166.95 Z M 142.33 163.48 L 142.33 166.95 L 192.10 166.95 L 192.10 163.48 L 142.33 163.48 Z" fill="#ffffff" fill-opacity="0.6" fill-rule="nonzero" group-id="2,19" node-id="635" stroke-linecap="butt" stroke-opacity="0.6" stroke-width="1" target-height="3.4660034" target-width="108.78" target-x="83.323" target-y="163.484"></path><path d="M 213.92 186.63 L 223.24 186.63 L 223.24 204.06 L 213.92 204.06 Z" fill="#ff5f5f" fill-rule="nonzero" group-id="2,20" node-id="640" stroke="none" target-height="17.432007" target-width="9.320007" target-x="213.924" target-y="186.631"></path><path d="M 223.24 205.56 L 213.92 205.56 C 213.10 205.56 212.42 204.89 212.42 204.06 L 212.42 186.63 C 212.42 185.80 213.10 185.13 213.92 185.13 L 223.24 185.13 C 224.07 185.13 224.74 185.80 224.74 186.63 L 224.74 204.06 C 224.74 204.89 224.07 205.56 223.24 205.56 Z M 215.42 202.56 L 221.74 202.56 L 221.74 188.13 L 215.42 188.13 L 215.42 202.56 Z" fill="#6e6e96" fill-rule="nonzero" group-id="2,20" node-id="642" stroke="none" target-height="20.431992" target-width="12.320007" target-x="212.424" target-y="185.13"></path><path d="M 213.92 186.63 L 223.24 186.63 L 223.24 195.95 L 213.92 195.95 Z" fill="#ffff00" fill-rule="nonzero" group-id="2,21" node-id="647" stroke="none" target-height="9.320999" target-width="9.320007" target-x="213.924" target-y="186.631"></path><path d="M 223.24 197.45 L 213.92 197.45 C 213.10 197.45 212.42 196.78 212.42 195.95 L 212.42 186.63 C 212.42 185.80 213.10 185.13 213.92 185.13 L 223.24 185.13 C 224.07 185.13 224.74 185.80 224.74 186.63 L 224.74 195.95 C 224.74 196.78 224.07 197.45 223.24 197.45 Z M 215.42 194.45 L 221.74 194.45 L 221.74 188.13 L 215.42 188.13 L 215.42 194.45 Z" fill="#6e6e96" fill-rule="nonzero" group-id="2,21" node-id="649" stroke="none" target-height="12.320999" target-width="12.320007" target-x="212.424" target-y="185.131"></path><path d="M 27.90 188.25 L 35.89 188.25 L 35.89 196.16 L 27.90 196.16 Z" fill="#ffffff" fill-rule="nonzero" group-id="2,22" node-id="654" stroke="none" target-height="7.9079895" target-width="7.984001" target-x="27.902" target-y="188.251"></path><path d="M 35.89 197.66 L 27.90 197.66 C 27.07 197.66 26.40 196.99 26.40 196.16 L 26.40 188.25 C 26.40 187.42 27.07 186.75 27.90 186.75 L 35.89 186.75 C 36.72 186.75 37.39 187.42 37.39 188.25 L 37.39 196.16 C 37.39 196.99 36.72 197.66 35.89 197.66 Z M 29.40 194.66 L 34.39 194.66 L 34.39 189.75 L 29.40 189.75 L 29.40 194.66 Z" fill="#6e6e96" fill-rule="nonzero" group-id="2,22" node-id="656" stroke="none" target-height="10.9079895" target-width="10.984001" target-x="26.402" target-y="186.751"></path><path d="M 106.43 219.91 C 106.31 198.07 92.35 181.26 70.32 181.38 C 48.30 181.51 35.37 198.45 35.49 220.31 L 106.43 219.91 Z" fill="#9c9ca8" fill-rule="nonzero" group-id="2,23" node-id="661" stroke="none" target-height="38.927002" target-width="70.945" target-x="35.486" target-y="181.382"></path><path d="M 33.99 221.82 L 33.99 220.32 C 33.85 196.25 48.45 180.00 70.32 179.88 L 70.57 179.88 C 92.43 179.88 107.80 196.34 107.93 219.90 L 107.94 221.40 L 33.99 221.82 Z M 70.56 182.88 L 70.33 182.88 C 50.72 182.99 37.47 197.36 37.00 218.80 L 104.90 218.41 C 104.15 197.41 90.21 182.88 70.56 182.88 Z" fill="#6e6e96" fill-rule="nonzero" group-id="2,23" node-id="663" stroke="none" target-height="41.936996" target-width="73.954" target-x="33.986" target-y="179.88"></path><path d="M 92.33 216.15 C 92.33 228.04 82.69 237.68 70.80 237.68 C 58.90 237.68 49.26 228.04 49.26 216.15 C 49.26 204.26 58.90 194.62 70.80 194.62 C 82.69 194.62 92.33 204.26 92.33 216.15 Z" fill="#f0f0ff" fill-rule="nonzero" group-id="2,23" node-id="665" stroke="none" target-height="43.06201" target-width="43.061996" target-x="49.264" target-y="194.622"></path><path d="M 70.80 199.49 C 79.98 199.49 87.46 206.97 87.46 216.15 C 87.46 220.60 85.73 224.79 82.58 227.94 C 79.43 231.08 75.25 232.82 70.79 232.82 C 61.60 232.82 54.13 225.34 54.13 216.15 C 54.13 206.97 61.60 199.49 70.80 199.49 Z M 44.40 216.15 C 44.40 230.71 56.24 242.55 70.80 242.55 C 85.35 242.55 97.19 230.71 97.19 216.15 C 97.19 201.60 85.35 189.76 70.80 189.76 C 56.24 189.76 44.40 201.60 44.40 216.15 Z" fill="#ccccde" fill-rule="nonzero" group-id="2,23" node-id="667" stroke="none" target-height="52.791" target-width="52.792" target-x="44.4" target-y="189.757"></path><path d="M 70.80 244.05 C 55.41 244.05 42.90 231.53 42.90 216.15 C 42.90 200.77 55.41 188.26 70.80 188.26 C 86.18 188.26 98.69 200.77 98.69 216.15 C 98.69 231.53 86.18 244.05 70.80 244.05 Z M 70.80 191.26 C 57.07 191.26 45.90 202.43 45.90 216.15 C 45.90 229.88 57.07 241.05 70.80 241.05 C 84.52 241.05 95.69 229.88 95.69 216.15 C 95.69 202.43 84.52 191.26 70.80 191.26 Z M 70.79 234.32 C 60.78 234.32 52.63 226.17 52.63 216.15 C 52.63 206.14 60.78 197.99 70.80 197.99 C 80.81 197.99 88.96 206.14 88.96 216.15 C 88.96 221.00 87.07 225.57 83.64 229.00 C 80.21 232.43 75.65 234.32 70.79 234.32 Z M 70.80 200.99 C 62.43 200.99 55.63 207.79 55.63 216.15 C 55.63 224.51 62.43 231.32 70.79 231.32 C 74.85 231.32 78.65 229.74 81.52 226.88 C 84.38 224.01 85.96 220.20 85.96 216.15 C 85.96 207.79 79.16 200.99 70.80 200.99 Z" fill="#6e6e96" fill-rule="nonzero" group-id="2,23" node-id="669" stroke="none" target-height="55.791" target-width="55.792" target-x="42.9" target-y="188.258"></path><path d="M 71.11 191.00 C 57.52 191.00 46.47 202.05 46.47 215.64 C 46.47 216.36 46.51 217.06 46.56 217.76 C 47.65 205.17 56.73 193.74 69.61 193.74 C 85.60 193.74 94.57 205.16 95.65 217.76 C 95.71 217.06 95.75 216.36 95.75 215.64 C 95.75 202.05 84.70 191.00 71.11 191.00 Z" fill="#e6e6fa" fill-rule="nonzero" group-id="2,23" node-id="671" stroke="none" target-height="26.764008" target-width="49.282" target-x="46.468" target-y="190.999"></path><path d="M 69.91 204.67 C 78.26 204.67 85.28 210.41 87.22 218.16 C 87.58 216.76 87.77 215.30 87.77 213.78 C 87.77 203.92 79.77 195.93 69.91 195.93 C 60.05 195.93 52.05 203.92 52.05 213.78 C 52.05 215.29 52.24 216.76 52.59 218.16 C 54.54 210.41 61.55 204.67 69.91 204.67 Z" fill="#6e6e96" fill-opacity="0.15" fill-rule="nonzero" group-id="2,23,43" node-id="675" stroke-linecap="butt" stroke-opacity="0.15" stroke-width="1" target-height="22.229996" target-width="35.717" target-x="52.049" target-y="195.927"></path><path d="M 76.20 216.45 C 76.20 219.69 73.58 222.31 70.35 222.31 C 67.12 222.31 64.50 219.69 64.50 216.45 C 64.50 213.22 67.12 210.60 70.35 210.60 C 73.58 210.60 76.20 213.22 76.20 216.45 Z" fill="#ccccde" fill-rule="nonzero" group-id="2,23" node-id="678" stroke="none" target-height="11.701996" target-width="11.7020035" target-x="64.502" target-y="210.603"></path><path d="M 70.35 223.81 C 66.30 223.81 63.00 220.51 63.00 216.45 C 63.00 212.40 66.30 209.10 70.35 209.10 C 74.41 209.10 77.70 212.40 77.70 216.45 C 77.70 220.51 74.41 223.81 70.35 223.81 Z M 70.35 212.10 C 67.95 212.10 66.00 214.06 66.00 216.46 C 66.00 218.85 67.95 220.81 70.35 220.81 C 72.75 220.81 74.70 218.85 74.70 216.46 C 74.70 214.06 72.75 212.10 70.35 212.10 Z" fill="#6e6e96" fill-rule="nonzero" group-id="2,23" node-id="680" stroke="none" target-height="14.701996" target-width="14.703003" target-x="63.002" target-y="209.103"></path><path d="M 70.75 200.86 C 79.02 200.86 85.85 206.87 86.77 214.57 C 86.84 213.99 86.89 213.39 86.89 212.79 C 86.89 204.25 79.65 197.31 70.75 197.31 C 61.86 197.31 54.62 204.25 54.62 212.79 C 54.62 213.40 54.66 213.99 54.73 214.57 C 55.66 206.87 62.48 200.86 70.75 200.86 Z M 96.23 214.57 C 95.28 227.27 84.22 237.33 70.75 237.33 C 57.29 237.33 46.23 227.27 45.27 214.57 C 45.23 215.16 45.20 215.76 45.20 216.35 C 45.20 229.88 56.66 240.89 70.75 240.89 C 84.84 240.89 96.31 229.88 96.31 216.35 C 96.31 215.76 96.28 215.16 96.23 214.57 Z" fill="#6e6e96" fill-opacity="0.2" fill-rule="nonzero" group-id="2,23,44" node-id="684" stroke-linecap="butt" stroke-opacity="0.2" stroke-width="1" target-height="43.58101" target-width="51.106" target-x="45.2" target-y="197.305"></path><path d="M 39.48 220.28 C 39.48 220.28 39.62 186.09 73.67 186.09 C 107.73 186.09 101.52 220.56 101.52 220.56 L 106.43 219.91 C 106.43 219.91 105.71 181.38 70.33 181.38 C 34.94 181.38 35.49 220.31 35.49 220.31 L 39.48 220.28 Z" fill="#6e6e96" fill-opacity="0.2" fill-rule="nonzero" group-id="2,23,45" node-id="689" stroke-linecap="butt" stroke-opacity="0.2" stroke-width="1" target-height="39.17801" target-width="70.945" target-x="35.487" target-y="181.385"></path><path d="M 216.10 219.91 C 215.98 198.07 202.01 181.26 180.00 181.38 C 157.97 181.51 145.04 198.45 145.16 220.31 L 216.10 219.91 Z" fill="#9c9ca8" fill-rule="nonzero" group-id="2,24" node-id="695" stroke="none" target-height="38.927002" target-width="70.942" target-x="145.158" target-y="181.382"></path><path d="M 143.67 221.82 L 143.66 220.32 C 143.52 196.25 158.12 180.00 179.99 179.88 L 180.24 179.88 C 202.10 179.88 217.47 196.34 217.60 219.90 L 217.61 221.40 L 143.67 221.82 Z M 180.24 182.88 L 180.00 182.88 C 160.39 182.99 147.15 197.36 146.67 218.80 L 214.57 218.41 C 213.82 197.41 199.88 182.88 180.24 182.88 Z" fill="#6e6e96" fill-rule="nonzero" group-id="2,24" node-id="697" stroke="none" target-height="41.936996" target-width="73.951004" target-x="143.657" target-y="179.88"></path><path d="M 202.00 216.15 C 202.00 228.04 192.36 237.68 180.47 237.68 C 168.57 237.68 158.93 228.04 158.93 216.15 C 158.93 204.26 168.57 194.62 180.47 194.62 C 192.36 194.62 202.00 204.26 202.00 216.15 Z" fill="#f0f0ff" fill-rule="nonzero" group-id="2,25" node-id="702" stroke="none" target-height="43.06201" target-width="43.061996" target-x="158.934" target-y="194.622"></path><path d="M 180.47 199.49 C 189.65 199.49 197.13 206.97 197.13 216.15 C 197.13 220.60 195.40 224.79 192.25 227.94 C 189.10 231.08 184.92 232.82 180.47 232.82 C 171.27 232.82 163.80 225.34 163.80 216.15 C 163.80 206.97 171.27 199.49 180.47 199.49 Z M 154.07 216.15 C 154.07 230.71 165.91 242.55 180.47 242.55 C 195.02 242.55 206.86 230.71 206.86 216.15 C 206.86 201.60 195.02 189.76 180.47 189.76 C 165.91 189.76 154.07 201.60 154.07 216.15 Z" fill="#ccccde" fill-rule="nonzero" group-id="2,26" node-id="707" stroke="none" target-height="52.791" target-width="52.791992" target-x="154.07" target-y="189.757"></path><path d="M 180.47 244.05 C 165.08 244.05 152.57 231.53 152.57 216.15 C 152.57 200.77 165.09 188.26 180.47 188.26 C 195.85 188.26 208.36 200.77 208.36 216.15 C 208.36 231.53 195.85 244.05 180.47 244.05 Z M 180.47 191.26 C 166.74 191.26 155.57 202.43 155.57 216.15 C 155.57 229.88 166.74 241.05 180.47 241.05 C 194.19 241.05 205.36 229.88 205.36 216.15 C 205.36 202.43 194.19 191.26 180.47 191.26 Z M 180.47 234.32 C 170.45 234.32 162.30 226.17 162.30 216.15 C 162.30 206.14 170.45 197.99 180.47 197.99 C 190.48 197.99 198.63 206.14 198.63 216.15 C 198.63 221.00 196.74 225.57 193.31 229.00 C 189.88 232.43 185.32 234.32 180.47 234.32 Z M 180.47 200.99 C 172.10 200.99 165.30 207.79 165.30 216.15 C 165.30 224.51 172.10 231.32 180.47 231.32 C 184.52 231.32 188.32 229.74 191.19 226.88 C 194.05 224.01 195.63 220.20 195.63 216.15 C 195.63 207.79 188.83 200.99 180.47 200.99 Z" fill="#6e6e96" fill-rule="nonzero" group-id="2,26" node-id="709" stroke="none" target-height="55.791" target-width="55.791992" target-x="152.57" target-y="188.258"></path><path d="M 180.78 191.00 C 167.19 191.00 156.14 202.05 156.14 215.64 C 156.14 216.36 156.18 217.06 156.24 217.76 C 157.32 205.17 166.41 193.74 179.28 193.74 C 195.27 193.74 204.24 205.16 205.32 217.76 C 205.38 217.06 205.42 216.36 205.42 215.64 C 205.42 202.05 194.37 191.00 180.78 191.00 Z" fill="#e6e6fa" fill-rule="nonzero" group-id="2" node-id="712" stroke="none" target-height="26.764008" target-width="49.283005" target-x="156.137" target-y="190.999"></path><path d="M 179.58 204.67 C 187.93 204.67 194.95 210.41 196.89 218.16 C 197.25 216.76 197.44 215.30 197.44 213.78 C 197.44 203.92 189.44 195.93 179.58 195.93 C 169.72 195.93 161.72 203.92 161.72 213.78 C 161.72 215.29 161.91 216.76 162.26 218.16 C 164.21 210.41 171.22 204.67 179.58 204.67 Z" fill="#6e6e96" fill-opacity="0.15" fill-rule="nonzero" group-id="2,27" node-id="716" stroke-linecap="butt" stroke-opacity="0.15" stroke-width="1" target-height="22.229996" target-width="35.71501" target-x="161.721" target-y="195.927"></path><path d="M 185.87 216.45 C 185.87 219.69 183.25 222.31 180.02 222.31 C 176.79 222.31 174.17 219.69 174.17 216.45 C 174.17 213.22 176.79 210.60 180.02 210.60 C 183.25 210.60 185.87 213.22 185.87 216.45 Z" fill="#ccccde" fill-rule="nonzero" group-id="2,28" node-id="721" stroke="none" target-height="11.701996" target-width="11.701996" target-x="174.171" target-y="210.603"></path><path d="M 180.02 223.81 C 175.97 223.81 172.67 220.51 172.67 216.45 C 172.67 212.40 175.97 209.10 180.02 209.10 C 184.08 209.10 187.37 212.40 187.37 216.45 C 187.37 220.51 184.07 223.81 180.02 223.81 Z M 180.02 212.10 C 177.62 212.10 175.67 214.06 175.67 216.46 C 175.67 218.85 177.62 220.81 180.02 220.81 C 182.42 220.81 184.37 218.85 184.37 216.46 C 184.37 214.06 182.42 212.10 180.02 212.10 Z" fill="#6e6e96" fill-rule="nonzero" group-id="2,28" node-id="723" stroke="none" target-height="14.701996" target-width="14.702988" target-x="172.671" target-y="209.103"></path><path d="M 180.42 200.86 C 188.69 200.86 195.52 206.87 196.44 214.57 C 196.51 213.99 196.56 213.39 196.56 212.79 C 196.56 204.25 189.32 197.31 180.42 197.31 C 171.53 197.31 164.29 204.25 164.29 212.79 C 164.29 213.40 164.33 213.99 164.40 214.57 C 165.33 206.87 172.15 200.86 180.42 200.86 Z M 205.90 214.57 C 204.95 227.27 193.89 237.33 180.42 237.33 C 166.96 237.33 155.90 227.27 154.94 214.57 C 154.90 215.16 154.87 215.76 154.87 216.35 C 154.87 229.88 166.33 240.89 180.42 240.89 C 194.51 240.89 205.98 229.88 205.98 216.35 C 205.98 215.76 205.95 215.16 205.90 214.57 Z" fill="#6e6e96" fill-opacity="0.2" fill-rule="nonzero" group-id="2,29" node-id="728" stroke-linecap="butt" stroke-opacity="0.2" stroke-width="1" target-height="43.58101" target-width="51.10901" target-x="154.87" target-y="197.305"></path><path d="M 149.15 220.28 C 149.15 220.28 149.29 186.09 183.34 186.09 C 217.40 186.09 211.19 220.56 211.19 220.56 L 216.10 219.91 C 216.10 219.91 215.38 181.38 180.00 181.38 C 144.60 181.38 145.16 220.31 145.16 220.31 L 149.15 220.28 Z" fill="#6e6e96" fill-opacity="0.2" fill-rule="nonzero" group-id="2,30" node-id="733" stroke-linecap="butt" stroke-opacity="0.2" stroke-width="1" target-height="39.17801" target-width="70.942" target-x="145.158" target-y="181.385"></path><path d="M 136.32 196.54 L 107.31 196.54 C 106.73 196.54 106.20 196.21 105.96 195.68 C 96.97 176.64 76.33 175.74 76.12 175.74 C 75.31 175.71 74.67 175.05 74.67 174.24 L 74.67 156.66 C 74.67 155.83 75.34 155.16 76.17 155.16 C 76.99 155.16 77.67 155.83 77.67 156.66 L 77.67 172.86 C 82.73 173.44 99.76 176.63 108.25 193.54 L 134.82 193.54 L 134.82 156.66 C 134.82 155.83 135.50 155.16 136.32 155.16 C 137.15 155.16 137.82 155.83 137.82 156.66 L 137.82 195.04 C 137.82 195.87 137.15 196.54 136.32 196.54 Z" fill="#6e6e96" fill-rule="nonzero" group-id="2" node-id="736" stroke="none" target-height="41.37999" target-width="63.157997" target-x="74.665" target-y="155.16"></path><path d="M 143.30 196.54 L 136.32 196.54 C 135.50 196.54 134.82 195.87 134.82 195.04 C 134.82 194.21 135.50 193.54 136.32 193.54 L 142.38 193.54 C 144.56 189.58 154.72 173.56 176.80 173.56 C 191.27 173.56 197.64 173.83 200.53 174.14 L 200.53 157.87 C 200.53 157.04 201.20 156.37 202.03 156.37 C 202.86 156.37 203.53 157.04 203.53 157.87 L 203.53 175.89 C 203.53 176.50 203.16 177.04 202.60 177.28 C 202.23 177.43 201.81 177.43 201.45 177.27 C 200.96 177.16 197.43 176.56 176.80 176.56 C 153.70 176.56 145.02 194.88 144.66 195.66 C 144.41 196.20 143.88 196.54 143.30 196.54 Z" fill="#6e6e96" fill-rule="nonzero" group-id="2" node-id="738" stroke="none" target-height="40.17" target-width="68.70601" target-x="134.823" target-y="156.37"></path><path d="M 129.65 168.45 L 120.55 168.45 C 119.72 168.45 119.05 167.78 119.05 166.95 C 119.05 166.12 119.72 165.45 120.55 165.45 L 129.65 165.45 C 130.47 165.45 131.15 166.12 131.15 166.95 C 131.15 167.78 130.47 168.45 129.65 168.45 Z" fill="#6e6e96" fill-rule="nonzero" group-id="2" node-id="740" stroke="none" target-height="3" target-width="12.098" target-x="119.049" target-y="165.45"></path><path d="M 195.82 168.16 L 186.31 168.16 C 185.48 168.16 184.81 167.49 184.81 166.66 C 184.81 165.83 185.48 165.16 186.31 165.16 L 195.82 165.16 C 196.65 165.16 197.32 165.83 197.32 166.66 C 197.32 167.49 196.65 168.16 195.82 168.16 Z" fill="#6e6e96" fill-rule="nonzero" group-id="2" node-id="742" stroke="none" target-height="3" target-width="12.5130005" target-x="184.811" target-y="165.157"></path><path d="M 190.11 135.68 L 188.51 127.16 C 187.45 120.47 183.91 115.00 174.46 115.00 L 145.07 115.00 L 145.07 120.79 L 174.46 120.79 C 183.90 120.79 187.45 126.26 188.51 132.95 L 190.11 141.47 C 190.18 141.91 190.25 142.33 190.30 142.76 C 190.69 140.76 190.53 138.32 190.11 135.68 Z M 92.32 127.02 L 90.58 135.83 C 89.87 138.94 89.54 141.77 90.13 143.91 C 90.25 143.17 90.40 142.40 90.58 141.62 L 92.32 132.81 C 94.34 124.01 100.42 120.79 108.05 120.79 L 136.32 120.79 L 136.32 115.00 L 108.05 115.00 C 100.42 115.00 94.34 118.22 92.32 127.02 Z" fill="#6e6e96" fill-opacity="0.15" fill-rule="nonzero" group-id="2,31" node-id="746" stroke-linecap="butt" stroke-opacity="0.15" stroke-width="1" target-height="28.910004" target-width="100.657845" target-x="89.855385" target-y="115"></path><path d="M 99.87 138.81 L 111.31 127.36 L 119.45 127.36 L 108.00 138.81" fill="#ffffff" fill-opacity="0.47" fill-rule="nonzero" group-id="2,32" node-id="751" stroke-linecap="butt" stroke-opacity="0.47" stroke-width="1" target-height="11.443008" target-width="19.576996" target-x="99.869" target-y="127.364"></path><path d="M 150.33 138.81 L 161.77 127.36 L 169.91 127.36 L 158.46 138.81" fill="#ffffff" fill-opacity="0.47" fill-rule="nonzero" group-id="2,33" node-id="756" stroke-linecap="butt" stroke-opacity="0.47" stroke-width="1" target-height="11.443008" target-width="19.580002" target-x="150.326" target-y="127.364"></path><path d="M 112.83 138.81 L 124.27 127.36 L 127.44 127.36 L 116.00 138.81" fill="#ffffff" fill-opacity="0.23" fill-rule="nonzero" group-id="2,34" node-id="761" stroke-linecap="butt" stroke-opacity="0.23" stroke-width="1" target-height="11.443008" target-width="14.616005" target-x="112.826" target-y="127.364"></path><path d="M 164.94 138.81 L 176.38 127.36 L 179.55 127.36 L 168.11 138.81" fill="#ffffff" fill-opacity="0.23" fill-rule="nonzero" group-id="2,35" node-id="766" stroke-linecap="butt" stroke-opacity="0.23" stroke-width="1" target-height="11.443008" target-width="14.613998" target-x="164.94" target-y="127.364"></path><path d="M 49.13 174.06 L 73.50 163.53 L 74.51 168.24 Z" fill="#ffffff" fill-opacity="0.6" fill-rule="nonzero" group-id="2,36" node-id="771" stroke-linecap="butt" stroke-opacity="0.6" stroke-width="1" target-height="10.535004" target-width="25.377003" target-x="49.133" target-y="163.527"></path></g></svg>