<?xml version="1.0" standalone="no"?><!DOCTYPE svg PUBLIC "-//W3C//DTD SVG 1.1//EN" "http://www.w3.org/Graphics/SVG/1.1/DTD/svg11.dtd"><svg height="251" legacy-metrics="false" node-id="1" sillyvg="true" template-height="251" template-width="256" version="1.1" viewBox="0 0 256 251" width="256" xmlns="http://www.w3.org/2000/svg" xmlns:xlink="http://www.w3.org/1999/xlink"><defs node-id="283"></defs><g node-id="636"><path d="M 255.28 113.88 C 255.28 71.64 222.52 37.39 182.11 37.39 C 181.48 37.39 180.87 37.42 180.24 37.44 C 167.48 15.03 144.09 0.00 117.33 0.00 C 76.93 0.00 44.17 34.25 44.17 76.50 C 44.17 77.05 44.20 77.59 44.21 78.13 C 22.11 91.29 7.20 116.13 7.20 144.62 C 7.20 186.87 36.95 226.42 77.35 226.42 C 79.65 226.42 75.11 226.63 77.35 226.42 C 90.77 243.41 121.89 239.01 144.62 239.01 C 181.97 239.01 211.76 219.34 216.22 181.55 C 239.44 168.74 255.28 143.25 255.28 113.88 Z" fill="#f7e5d2" fill-rule="nonzero" group-id="1" node-id="286" stroke="none" target-height="239.49898" target-width="248.079" target-x="7.198" target-y="0"></path><g node-id="650"><path d="M 74.11 86.52 L 57.86 102.77 C 52.02 101.33 45.44 102.40 45.12 107.63 C 45.12 114.84 49.30 111.81 54.44 116.95 C 59.59 122.10 58.24 126.28 63.77 126.28 C 68.89 125.02 70.01 118.93 68.68 113.48 L 84.88 97.29" fill="#f0f0ff" fill-opacity="0.26" fill-rule="nonzero" group-id="1,15" node-id="290" stroke-linecap="butt" stroke-opacity="0.26" stroke-width="1" target-height="39.753998" target-width="39.753" target-x="45.123" target-y="86.521"></path><path d="M 63.77 127.78 C 59.53 127.78 58.30 125.51 57.01 123.12 C 56.19 121.61 55.26 119.90 53.38 118.02 C 51.56 116.20 49.90 115.53 48.43 114.94 C 45.53 113.77 43.62 112.63 43.62 107.63 C 43.75 105.48 44.68 103.77 46.30 102.57 C 49.23 100.42 53.79 100.39 57.38 101.13 L 73.05 85.46 C 73.64 84.87 74.58 84.87 75.17 85.46 C 75.76 86.05 75.76 87.00 75.17 87.58 L 58.92 103.83 C 58.55 104.20 58.01 104.36 57.50 104.23 C 53.69 103.29 49.99 103.59 48.08 104.99 C 47.17 105.66 46.69 106.55 46.62 107.72 C 46.62 110.98 47.36 111.28 49.55 112.16 C 51.12 112.78 53.25 113.64 55.51 115.89 C 57.69 118.08 58.78 120.08 59.65 121.69 C 60.83 123.88 61.29 124.73 63.58 124.77 C 67.64 123.64 68.32 118.34 67.22 113.84 C 67.10 113.33 67.25 112.80 67.62 112.42 L 83.82 96.23 C 84.40 95.64 85.35 95.64 85.94 96.23 C 86.52 96.81 86.52 97.76 85.94 98.35 L 70.32 113.97 C 71.47 119.74 70.05 126.28 64.12 127.73 C 64.01 127.76 63.89 127.78 63.77 127.78 Z" fill="#6e6e96" fill-opacity="0.26" fill-rule="nonzero" group-id="1,15" node-id="292" stroke-linecap="butt" stroke-opacity="0.26" stroke-width="1" target-height="42.7555" target-width="42.754494" target-x="43.622" target-y="85.0205"></path><path d="M 140.91 85.30 C 155.64 70.57 155.64 46.69 140.91 31.96 C 126.18 17.23 102.30 17.23 87.56 31.96 C 81.01 38.51 77.38 46.87 76.66 55.43 C 74.97 56.53 73.38 57.82 71.89 59.30 C 60.39 70.80 65.06 84.79 76.56 96.30 C 88.07 107.81 102.06 112.48 113.57 100.97 C 115.05 99.49 116.34 97.89 117.43 96.21 C 126.00 95.48 134.36 91.85 140.91 85.30 Z" fill="#db7b8c" fill-opacity="0.26" fill-rule="nonzero" group-id="1,15" node-id="294" stroke-linecap="butt" stroke-opacity="0.26" stroke-width="1" target-height="86.68022" target-width="86.6844" target-x="65.27434" target-y="20.910252"></path><path d="M 141.01 37.27 C 140.97 37.23 137.25 33.80 137.21 33.76 C 144.59 41.14 145.18 64.70 133.98 75.90 C 125.10 84.78 106.50 94.71 100.68 86.51 C 99.58 88.19 99.64 84.69 100.68 86.51 C 113.04 108.29 81.14 98.41 69.63 86.90 C 69.24 86.50 68.84 86.09 68.46 85.69 C 70.42 89.36 73.19 92.94 76.56 96.30 C 88.07 107.81 102.06 112.48 113.57 100.97 C 115.05 99.49 116.34 97.89 117.43 96.20 C 126.00 95.48 134.36 91.85 140.91 85.30 C 155.64 70.57 155.74 52.01 141.01 37.27 Z" fill="#bd6b78" fill-opacity="0.26" fill-rule="nonzero" group-id="1,15" node-id="296" stroke-linecap="butt" stroke-opacity="0.26" stroke-width="1" target-height="73.82746" target-width="83.54836" target-x="68.458" target-y="33.762"></path><g node-id="663"><path d="M 74.74 67.22 C 76.14 65.74 84.89 64.45 86.48 63.35 C 87.17 54.79 87.23 45.06 93.41 38.51 C 107.33 23.78 127.09 22.54 141.01 37.27 C 149.15 45.90 151.43 60.27 150.04 71.50 C 154.37 58.39 151.34 43.38 140.91 32.95 C 126.18 18.22 102.30 18.22 87.56 32.95 C 81.01 39.50 77.38 47.86 76.66 56.42 C 74.97 57.52 73.38 58.81 71.89 60.29 C 63.24 68.94 63.74 79.00 69.41 88.35 C 67.33 81.11 68.56 73.76 74.74 67.22 Z" fill="#ebabb6" fill-opacity="0.0962" fill-rule="nonzero" group-id="1,15,28" node-id="300" stroke-linecap="butt" stroke-opacity="0.0962" stroke-width="1" target-height="66.4475" target-width="86.65987" target-x="65.25571" target-y="21.902498"></path></g><path d="M 121.21 70.43 C 121.21 72.89 119.22 74.89 116.76 74.89 C 114.30 74.89 112.30 72.89 112.30 70.43 C 112.30 67.97 114.30 65.98 116.76 65.98 C 119.22 65.98 121.21 67.97 121.21 70.43 Z" fill="#bd6b78" fill-opacity="0.26" fill-rule="nonzero" group-id="1,15" node-id="303" stroke-linecap="butt" stroke-opacity="0.26" stroke-width="1" target-height="8.908005" target-width="8.907997" target-x="112.303" target-y="65.977"></path><path d="M 126.16 60.04 C 126.16 61.13 125.27 62.02 124.18 62.02 C 123.09 62.02 122.20 61.13 122.20 60.04 C 122.20 58.95 123.09 58.06 124.18 58.06 C 125.27 58.06 126.16 58.95 126.16 60.04 Z" fill="#bd6b78" fill-opacity="0.26" fill-rule="nonzero" group-id="1,15" node-id="305" stroke-linecap="butt" stroke-opacity="0.26" stroke-width="1" target-height="3.9580002" target-width="3.9580002" target-x="122.202" target-y="58.059"></path><path d="M 98.79 109.11 C 98.79 109.11 98.79 109.11 98.79 109.11 C 91.24 109.11 83.19 105.05 75.50 97.36 C 69.22 91.08 65.28 84.41 64.12 78.07 C 62.80 70.81 65.12 63.95 70.83 58.24 C 72.18 56.89 73.66 55.66 75.23 54.58 C 76.16 45.65 80.14 37.26 86.50 30.90 C 93.91 23.49 103.76 19.41 114.24 19.41 C 124.71 19.41 134.56 23.49 141.97 30.90 C 149.38 38.31 153.46 48.16 153.46 58.63 C 153.46 69.11 149.38 78.96 141.97 86.36 C 135.61 92.73 127.22 96.71 118.29 97.63 C 117.22 99.20 115.99 100.68 114.63 102.03 C 109.93 106.73 104.60 109.11 98.79 109.11 Z M 114.24 22.41 C 104.56 22.41 95.47 26.18 88.63 33.02 C 82.59 39.05 78.88 47.06 78.16 55.56 L 78.09 56.29 L 77.48 56.69 C 75.85 57.75 74.33 58.98 72.96 60.36 C 67.89 65.42 65.91 71.20 67.07 77.53 C 68.12 83.27 71.77 89.39 77.62 95.24 C 84.73 102.35 92.05 106.11 98.79 106.11 C 103.78 106.11 108.39 104.03 112.51 99.91 C 113.89 98.53 115.13 97.01 116.17 95.39 L 116.57 94.77 L 117.31 94.71 C 125.81 93.99 133.81 90.28 139.85 84.24 C 146.69 77.40 150.46 68.31 150.46 58.63 C 150.46 48.96 146.69 39.86 139.85 33.02 C 133.01 26.18 123.91 22.41 114.24 22.41 Z" fill="#6e6e96" fill-opacity="0.26" fill-rule="nonzero" group-id="1,15" node-id="307" stroke-linecap="butt" stroke-opacity="0.26" stroke-width="1" target-height="89.701996" target-width="89.69648" target-x="63.76252" target-y="19.412"></path><path d="M 47.93 113.10 C 47.93 113.10 57.76 113.82 60.86 116.92 C 63.95 120.01 60.36 112.71 65.56 107.52 C 70.75 102.32 76.56 96.30 76.56 96.30 L 81.21 100.95 L 68.68 113.48 C 68.68 113.48 70.63 124.25 63.77 126.27 C 63.77 126.27 57.64 126.20 57.64 120.63 C 57.64 117.41 47.93 113.10 47.93 113.10 Z" fill="#6e6e96" fill-opacity="0.039" fill-rule="nonzero" group-id="1,15,29" node-id="311" stroke-linecap="butt" stroke-opacity="0.039" stroke-width="1" target-height="29.971" target-width="33.286" target-x="47.926" target-y="96.302"></path></g><path d="M 95.84 119.81 C 95.84 119.81 94.71 97.46 104.14 97.46 C 104.14 97.46 116.27 53.22 156.90 53.22 C 156.90 53.22 136.25 121.67 95.84 119.81 Z" fill="#f7e5d2" fill-rule="nonzero" group-id="1" node-id="315" stroke="none" target-height="66.585" target-width="61.09645" target-x="95.801544" target-y="53.22"></path><path d="M 87.11 120.64 C 87.11 134.07 78.85 144.96 68.67 144.96 C 58.48 144.96 50.23 134.07 50.23 120.64 C 50.23 107.21 58.48 96.33 68.67 96.33 C 78.85 96.33 87.11 107.21 87.11 120.64 Z" fill="#f7e5d2" fill-rule="nonzero" group-id="1" node-id="317" stroke="none" target-height="48.629997" target-width="36.876003" target-x="50.23" target-y="96.327"></path><path d="M 213.12 102.01 C 213.12 79.54 190.38 57.53 162.32 57.53 C 134.26 57.53 111.52 79.53 111.52 102.01" fill="#e8c495" fill-opacity="0.26" fill-rule="nonzero" group-id="1,16" node-id="321" stroke-linecap="butt" stroke-opacity="0.26" stroke-width="1" target-height="44.477005" target-width="101.602005" target-x="111.517" target-y="57.531"></path><path d="M 185.05 62.60 C 186.96 64.95 188.00 67.47 188.00 70.09 C 188.00 82.60 164.46 92.74 135.42 92.74 C 127.56 92.74 120.11 92.00 113.42 90.67 C 112.18 94.36 111.52 98.18 111.52 102.01 L 213.12 102.01 C 213.12 86.08 201.69 70.39 185.05 62.60 Z" fill="#c28f4c" fill-opacity="0.0962" fill-rule="nonzero" group-id="1,16,30" node-id="325" stroke-linecap="butt" stroke-opacity="0.0962" stroke-width="1" target-height="39.404003" target-width="101.604" target-x="111.518" target-y="62.605"></path><path d="M 215.15 102.49 L 212.15 102.49 C 212.15 91.97 206.91 81.20 197.76 72.93 C 188.19 64.28 175.78 59.51 162.85 59.51 C 149.91 59.51 137.51 64.28 127.93 72.93 C 118.79 81.20 113.54 91.97 113.54 102.49 L 110.54 102.49 C 110.54 91.12 116.15 79.54 125.92 70.71 C 136.05 61.55 149.16 56.51 162.85 56.51 C 176.53 56.51 189.64 61.55 199.77 70.71 C 209.54 79.54 215.15 91.12 215.15 102.49 Z" fill="#6e6e96" fill-opacity="0.26" fill-rule="nonzero" group-id="1,16" node-id="328" stroke-linecap="butt" stroke-opacity="0.26" stroke-width="1" target-height="45.975" target-width="104.604" target-x="110.544" target-y="56.511"></path><path d="M 111.52 133.52 C 111.52 156.84 134.26 164.35 162.32 164.35 C 190.38 164.35 213.12 156.84 213.12 133.52" fill="#e8c495" fill-opacity="0.26" fill-rule="nonzero" group-id="1,16" node-id="330" stroke-linecap="butt" stroke-opacity="0.26" stroke-width="1" target-height="30.82901" target-width="101.603" target-x="111.517" target-y="133.523"></path><path d="M 222.62 116.29 C 222.62 126.15 215.14 134.21 206.00 134.21 L 117.69 134.21 C 108.55 134.21 101.07 126.15 101.07 116.29 L 101.07 116.29 C 101.07 106.44 108.55 98.38 117.69 98.38 L 206.00 98.38 C 215.14 98.38 222.62 106.44 222.62 116.29 L 222.62 116.29 Z" fill="#fc9c9c" fill-opacity="0.26" fill-rule="nonzero" group-id="1,16" node-id="332" stroke-linecap="butt" stroke-opacity="0.26" stroke-width="1" target-height="35.828995" target-width="121.545006" target-x="101.07" target-y="98.379"></path><path d="M 206.00 98.38 L 198.25 98.38 C 204.16 100.97 207.55 104.00 207.55 107.24 C 207.55 125.19 177.74 124.62 140.97 124.62 C 126.30 124.62 112.74 123.38 101.74 121.28 C 103.75 128.73 110.15 134.21 117.69 134.21 L 206.00 134.21 C 215.14 134.21 222.61 126.15 222.61 116.29 C 222.62 106.44 215.14 98.38 206.00 98.38 Z" fill="#d98686" fill-opacity="0.182" fill-rule="nonzero" group-id="1,16,31" node-id="336" stroke-linecap="butt" stroke-opacity="0.182" stroke-width="1" target-height="35.828995" target-width="120.877" target-x="101.737" target-y="98.379"></path><path d="M 197.49 133.52 C 196.36 137.03 113.81 130.47 111.52 133.52 C 109.09 136.76 203.33 139.62 183.34 152.14 C 173.91 158.06 162.04 157.09 148.55 157.09 C 137.45 157.09 127.19 156.06 118.86 151.42 C 127.77 163.61 143.90 164.35 162.31 164.35 C 190.38 164.35 213.12 156.84 213.12 133.52 L 197.49 133.52 L 197.49 133.52 Z" fill="#c28f4c" fill-opacity="0.0962" fill-rule="nonzero" group-id="1,16,32" node-id="341" stroke-linecap="butt" stroke-opacity="0.0962" stroke-width="1" target-height="31.626785" target-width="101.603004" target-x="111.516" target-y="132.72621"></path><path d="M 162.84 166.29 C 128.63 166.29 110.55 155.11 110.55 133.96 L 113.55 133.96 C 113.55 153.43 130.13 163.29 162.84 163.29 C 195.56 163.29 212.15 153.43 212.15 133.96 L 215.15 133.96 C 215.15 155.11 197.06 166.29 162.84 166.29 Z" fill="#6e6e96" fill-opacity="0.26" fill-rule="nonzero" group-id="1,16" node-id="344" stroke-linecap="butt" stroke-opacity="0.26" stroke-width="1" target-height="32.333008" target-width="104.601006" target-x="110.546" target-y="133.961"></path><path d="M 102.63 121.45 C 104.28 122.70 108.93 123.23 114.92 123.23 C 114.92 123.23 101.11 122.32 105.63 110.78 C 111.23 96.50 209.88 99.28 203.68 116.40 C 203.68 116.40 213.96 101.95 199.21 98.81 L 118.22 98.81 C 118.22 98.81 103.37 100.28 102.55 110.78 C 102.55 110.78 99.27 118.89 102.63 121.45 Z" fill="#fcb0b0" fill-opacity="0.26" fill-rule="nonzero" group-id="1,16" node-id="346" stroke-linecap="butt" stroke-opacity="0.26" stroke-width="1" target-height="24.419998" target-width="106.030685" target-x="101.12602" target-y="98.814"></path><path d="M 206.53 136.15 L 118.22 136.15 C 108.23 136.15 100.10 127.44 100.10 116.73 C 100.10 106.02 108.23 97.31 118.22 97.31 L 206.53 97.31 C 216.52 97.31 224.64 106.03 224.64 116.73 C 224.64 127.44 216.52 136.15 206.53 136.15 Z M 118.22 100.31 C 109.88 100.31 103.10 107.68 103.10 116.73 C 103.10 125.78 109.88 133.15 118.22 133.15 L 206.53 133.15 C 214.86 133.15 221.64 125.78 221.64 116.73 C 221.64 107.68 214.86 100.31 206.53 100.31 L 118.22 100.31 Z" fill="#6e6e96" fill-opacity="0.26" fill-rule="nonzero" group-id="1,16" node-id="348" stroke-linecap="butt" stroke-opacity="0.26" stroke-width="1" target-height="38.832" target-width="124.543" target-x="100.101" target-y="97.313"></path><path d="M 188.18 78.51 C 187.93 79.19 186.33 79.14 184.61 78.40 C 182.90 77.66 181.72 76.50 181.97 75.82 C 182.22 75.14 183.82 75.19 185.53 75.93 C 187.25 76.68 188.43 77.83 188.18 78.51 Z" fill="#f5d9a7" fill-opacity="0.26" fill-rule="nonzero" group-id="1,16" node-id="350" stroke-linecap="butt" stroke-opacity="0.26" stroke-width="1" target-height="3.6463776" target-width="6.2109985" target-x="181.968" target-y="75.343124"></path><path d="M 203.50 91.62 C 203.25 92.30 201.65 92.25 199.94 91.50 C 198.22 90.76 197.04 89.61 197.29 88.92 C 197.55 88.24 199.14 88.29 200.86 89.03 C 202.57 89.78 203.76 90.94 203.50 91.62 Z" fill="#f5d9a7" fill-opacity="0.26" fill-rule="nonzero" group-id="1,16" node-id="352" stroke-linecap="butt" stroke-opacity="0.26" stroke-width="1" target-height="3.6486206" target-width="6.2119904" target-x="197.292" target-y="88.44537"></path><path d="M 177.92 86.44 C 177.66 87.12 176.06 87.07 174.35 86.33 C 172.64 85.58 171.45 84.43 171.70 83.75 C 171.96 83.07 173.55 83.12 175.27 83.86 C 176.99 84.60 178.17 85.76 177.92 86.44 Z" fill="#f5d9a7" fill-opacity="0.26" fill-rule="nonzero" group-id="1,16" node-id="354" stroke-linecap="butt" stroke-opacity="0.26" stroke-width="1" target-height="3.645874" target-width="6.2129974" target-x="171.703" target-y="83.272"></path><path d="M 149.99 76.11 C 150.22 76.80 149.01 77.92 147.27 78.61 C 145.54 79.29 143.94 79.29 143.71 78.60 C 143.47 77.91 144.69 76.80 146.42 76.11 C 148.16 75.42 149.75 75.42 149.99 76.11 Z" fill="#f5d9a7" fill-opacity="0.26" fill-rule="nonzero" group-id="1,16" node-id="356" stroke-linecap="butt" stroke-opacity="0.26" stroke-width="1" target-height="3.5250015" target-width="6.284012" target-x="143.706" target-y="75.595245"></path><path d="M 160.31 69.60 C 160.69 69.00 162.24 69.43 163.75 70.57 C 165.28 71.70 166.19 73.11 165.80 73.72 C 165.41 74.32 163.87 73.89 162.35 72.75 C 160.83 71.62 159.92 70.20 160.31 69.60 Z" fill="#f5d9a7" fill-opacity="0.26" fill-rule="nonzero" group-id="1,16" node-id="358" stroke-linecap="butt" stroke-opacity="0.26" stroke-width="1" target-height="4.6249313" target-width="5.637863" target-x="160.23495" target-y="69.34817"></path><path d="M 160.94 86.47 C 160.79 86.86 159.87 86.84 158.88 86.41 C 157.89 85.98 157.20 85.31 157.35 84.92 C 157.49 84.52 158.42 84.55 159.41 84.98 C 160.40 85.41 161.09 86.08 160.94 86.47 Z" fill="#f5d9a7" fill-opacity="0.26" fill-rule="nonzero" group-id="1,16" node-id="360" stroke-linecap="butt" stroke-opacity="0.26" stroke-width="1" target-height="2.10775" target-width="3.5910034" target-x="157.349" target-y="84.63975"></path><path d="M 187.49 91.03 C 187.34 91.42 186.42 91.39 185.42 90.97 C 184.43 90.53 183.75 89.87 183.89 89.48 C 184.04 89.08 184.96 89.11 185.95 89.54 C 186.95 89.97 187.63 90.64 187.49 91.03 Z" fill="#f5d9a7" fill-opacity="0.26" fill-rule="nonzero" group-id="1,16" node-id="362" stroke-linecap="butt" stroke-opacity="0.26" stroke-width="1" target-height="2.108368" target-width="3.5950012" target-x="183.89" target-y="89.19875"></path><path d="M 179.51 67.60 C 179.37 67.99 178.44 67.96 177.45 67.53 C 176.46 67.10 175.77 66.44 175.92 66.04 C 176.07 65.65 176.99 65.68 177.98 66.11 C 178.97 66.53 179.66 67.20 179.51 67.60 Z" fill="#f5d9a7" fill-opacity="0.26" fill-rule="nonzero" group-id="1,16" node-id="364" stroke-linecap="butt" stroke-opacity="0.26" stroke-width="1" target-height="2.1086197" target-width="3.5930023" target-x="175.92" target-y="65.7665"></path><path d="M 138.37 89.41 C 138.60 90.09 137.38 91.21 135.65 91.90 C 133.91 92.58 132.32 92.58 132.08 91.90 C 131.85 91.21 133.06 90.09 134.80 89.40 C 136.53 88.72 138.13 88.72 138.37 89.41 Z" fill="#f5d9a7" fill-opacity="0.26" fill-rule="nonzero" group-id="1,16" node-id="366" stroke-linecap="butt" stroke-opacity="0.26" stroke-width="1" target-height="3.524376" target-width="6.2830048" target-x="132.082" target-y="88.888626"></path><path d="M 134.86 75.18 C 135.05 75.59 134.38 76.39 133.36 76.97 C 132.34 77.54 131.34 77.69 131.15 77.28 C 130.95 76.87 131.62 76.07 132.65 75.49 C 133.67 74.91 134.66 74.78 134.86 75.18 Z" fill="#f5d9a7" fill-opacity="0.26" fill-rule="nonzero" group-id="1,16" node-id="368" stroke-linecap="butt" stroke-opacity="0.26" stroke-width="1" target-height="2.5250015" target-width="3.7215881" target-x="131.1421" target-y="74.9675"></path><path d="M 255.60 169.74 C 255.60 200.72 230.49 225.84 199.51 225.84 C 168.53 225.84 143.42 200.72 143.42 169.74 C 143.42 138.76 168.53 113.65 199.51 113.65 C 230.49 113.65 255.60 138.76 255.60 169.74 Z" fill="#f7e5d2" fill-rule="nonzero" group-id="1" node-id="371" stroke="none" target-height="112.186005" target-width="112.18599" target-x="143.417" target-y="113.649"></path><path d="M 223.45 144.79 C 217.02 138.24 214.14 129.79 215.12 122.52 C 210.07 120.73 204.65 119.75 198.99 119.75 C 172.32 119.75 150.70 141.37 150.70 168.04 C 150.70 194.71 172.32 216.34 198.99 216.34 C 225.66 216.34 247.28 194.71 247.28 168.04 C 247.28 163.00 246.51 158.15 245.07 153.58 C 237.90 154.24 229.74 151.20 223.45 144.79 Z M 198.99 183.60 C 190.40 183.60 183.43 176.63 183.43 168.04 C 183.43 159.45 190.40 152.49 198.99 152.49 C 207.58 152.49 214.54 159.45 214.54 168.04 C 214.54 176.63 207.58 183.60 198.99 183.60 Z" fill="#ffb8b8" fill-opacity="0.26" fill-rule="nonzero" group-id="1,17" node-id="375" stroke-linecap="butt" stroke-opacity="0.26" stroke-width="1" target-height="96.582" target-width="96.57799" target-x="150.699" target-y="119.754"></path><path d="M 193.55 135.28 C 193.55 137.30 191.92 138.93 189.90 138.93 C 187.89 138.93 186.25 137.30 186.25 135.28 C 186.25 133.27 187.89 131.63 189.90 131.63 C 191.92 131.63 193.55 133.27 193.55 135.28 Z" fill="#000000" fill-opacity="0.054599997" fill-rule="nonzero" group-id="1,17,33" node-id="379" stroke-linecap="butt" stroke-opacity="0.054599997" stroke-width="1" target-height="7.2960052" target-width="7.2960052" target-x="186.254" target-y="131.633"></path><path d="M 169.08 163.18 C 169.08 164.25 168.22 165.11 167.15 165.11 C 166.09 165.11 165.22 164.25 165.22 163.18 C 165.22 162.12 166.09 161.25 167.15 161.25 C 168.22 161.25 169.08 162.12 169.08 163.18 Z" fill="#000000" fill-opacity="0.054599997" fill-rule="nonzero" group-id="1,17,34" node-id="384" stroke-linecap="butt" stroke-opacity="0.054599997" stroke-width="1" target-height="3.8619995" target-width="3.8619995" target-x="165.221" target-y="161.252"></path><path d="M 184.53 194.74 C 184.53 197.11 182.61 199.03 180.24 199.03 C 177.87 199.03 175.95 197.11 175.95 194.74 C 175.95 192.36 177.87 190.44 180.24 190.44 C 182.61 190.44 184.53 192.36 184.53 194.74 Z" fill="#000000" fill-opacity="0.054599997" fill-rule="nonzero" group-id="1,17,35" node-id="389" stroke-linecap="butt" stroke-opacity="0.054599997" stroke-width="1" target-height="8.584" target-width="8.584" target-x="175.951" target-y="190.443"></path><path d="M 213.73 197.74 C 213.73 198.45 213.15 199.03 212.44 199.03 C 211.73 199.03 211.15 198.45 211.15 197.74 C 211.15 197.03 211.73 196.45 212.44 196.45 C 213.15 196.45 213.73 197.03 213.73 197.74 Z" fill="#000000" fill-opacity="0.054599997" fill-rule="nonzero" group-id="1,17,36" node-id="394" stroke-linecap="butt" stroke-opacity="0.054599997" stroke-width="1" target-height="2.578003" target-width="2.578003" target-x="211.149" target-y="196.45"></path><path d="M 232.40 175.74 C 232.40 177.81 230.72 179.50 228.64 179.50 C 226.57 179.50 224.89 177.81 224.89 175.74 C 224.89 173.67 226.57 171.99 228.64 171.99 C 230.72 171.99 232.40 173.67 232.40 175.74 Z" fill="#000000" fill-opacity="0.054599997" fill-rule="nonzero" group-id="1,17,37" node-id="399" stroke-linecap="butt" stroke-opacity="0.054599997" stroke-width="1" target-height="7.5099945" target-width="7.51001" target-x="224.887" target-y="171.985"></path><path d="M 150.70 166.11 C 150.70 193.92 170.75 216.55 198.56 216.55 C 226.37 216.55 247.24 193.92 247.24 166.11 L 247.28 166.11 C 247.28 164.92 246.76 157.63 245.58 157.63 C 244.39 157.63 244.71 164.92 244.71 166.11 L 244.71 166.11 C 244.71 191.55 221.03 208.29 195.59 208.29 C 170.15 208.29 152.42 191.56 152.42 166.11 L 152.42 166.11 C 152.42 164.92 154.03 163.96 152.85 163.96 C 151.66 163.96 150.70 164.92 150.70 166.11 L 150.70 166.11 Z" fill="#6e6e96" fill-opacity="0.039" fill-rule="nonzero" group-id="1,17,38" node-id="404" stroke-linecap="butt" stroke-opacity="0.039" stroke-width="1" target-height="58.91301" target-width="96.582" target-x="150.699" target-y="157.633"></path><path d="M 185.15 166.11 C 185.15 158.71 191.17 152.70 198.56 152.70 C 202.14 152.70 205.51 154.09 208.04 156.63 C 210.57 159.16 211.97 162.53 211.97 166.11 L 211.97 166.11 C 211.97 167.29 212.93 168.25 214.11 168.25 C 215.30 168.25 216.26 167.29 216.26 166.11 L 216.26 166.11 C 216.26 161.38 214.42 156.93 211.08 153.59 C 207.73 150.25 203.29 148.41 198.56 148.41 C 188.80 148.41 180.86 156.35 180.86 166.11 L 180.86 166.11 C 180.86 167.29 181.82 168.25 183.00 168.25 C 184.19 168.25 185.15 167.29 185.15 166.11 L 185.15 166.11 Z" fill="#6e6e96" fill-opacity="0.039" fill-rule="nonzero" group-id="1,17,38" node-id="406" stroke-linecap="butt" stroke-opacity="0.039" stroke-width="1" target-height="19.845993" target-width="35.401" target-x="180.858" target-y="148.408"></path><path d="M 244.75 153.36 C 237.93 153.99 230.48 150.94 224.86 145.21 C 219.08 139.32 214.48 133.80 215.42 126.87 C 213.29 125.86 216.67 122.76 215.72 122.42 C 210.31 120.50 204.64 119.53 198.87 119.53 C 177.93 119.53 150.14 142.16 150.14 169.97 L 150.14 169.97 C 150.14 171.16 149.39 172.12 150.58 172.12 C 151.76 172.12 152.72 171.16 152.72 169.97 L 152.72 169.97 C 152.72 144.53 173.42 123.82 198.87 123.82 C 204.15 123.82 209.34 124.71 214.28 126.47 C 213.33 126.12 212.74 125.16 212.87 124.16 C 211.76 132.40 215.09 144.36 221.79 151.19 C 228.32 157.84 237.05 158.38 245.15 157.64 L 245.15 157.64 C 246.33 157.54 247.20 156.49 247.09 155.31 C 246.98 154.13 245.94 153.25 244.75 153.36 L 244.75 153.36 Z" fill="#ffffff" fill-opacity="0.11699999" fill-rule="nonzero" group-id="1,17,39" node-id="411" stroke-linecap="butt" stroke-opacity="0.11699999" stroke-width="1" target-height="52.584007" target-width="97.17537" target-x="149.91463" target-y="119.531"></path><path d="M 198.87 183.38 C 191.47 183.38 185.46 177.36 185.46 169.97 C 185.46 162.57 191.47 156.56 198.87 156.56 C 202.44 156.56 205.81 157.96 208.34 160.49 C 210.88 163.02 212.27 166.39 212.27 169.97 C 212.27 173.55 210.88 176.92 208.34 179.45 C 205.81 181.98 202.45 183.38 198.87 183.38 Z M 216.57 169.97 C 216.57 165.24 214.72 160.80 211.38 157.45 C 208.04 154.11 203.59 152.27 198.87 152.27 C 189.11 152.27 181.16 160.21 181.16 169.97 C 181.16 179.73 189.10 187.67 198.87 187.67 C 203.59 187.67 208.04 185.83 211.38 182.49 C 214.72 179.14 216.57 174.69 216.57 169.97 Z" fill="#ffffff" fill-opacity="0.11699999" fill-rule="nonzero" group-id="1,17,39" node-id="413" stroke-linecap="butt" stroke-opacity="0.11699999" stroke-width="1" target-height="35.397995" target-width="35.401993" target-x="181.164" target-y="152.268"></path><path d="M 198.99 217.84 C 171.54 217.84 149.20 195.50 149.20 168.05 C 149.20 140.59 171.54 118.25 198.99 118.25 C 204.69 118.25 210.29 119.21 215.63 121.11 L 216.77 121.51 L 216.61 122.72 C 215.65 129.85 218.60 137.71 224.52 143.74 C 229.78 149.10 236.56 152.17 243.12 152.17 C 243.73 152.17 244.34 152.14 244.94 152.09 L 246.14 151.98 L 246.50 153.13 C 248.01 157.94 248.78 162.95 248.78 168.05 C 248.78 195.50 226.44 217.84 198.99 217.84 Z M 198.99 121.25 C 173.19 121.25 152.20 142.25 152.20 168.05 C 152.20 193.85 173.19 214.84 198.99 214.84 C 224.79 214.84 245.78 193.85 245.78 168.05 C 245.78 163.65 245.17 159.32 243.98 155.15 C 236.36 155.44 228.42 152.00 222.38 145.84 C 216.15 139.49 212.89 131.25 213.50 123.55 C 208.83 122.03 203.95 121.25 198.99 121.25 Z M 198.99 185.10 C 189.59 185.10 181.93 177.45 181.93 168.04 C 181.93 158.64 189.59 150.99 198.99 150.99 C 208.39 150.99 216.04 158.64 216.04 168.04 C 216.04 177.45 208.39 185.10 198.99 185.10 Z M 198.99 153.99 C 191.24 153.99 184.93 160.30 184.93 168.04 C 184.93 175.79 191.24 182.10 198.99 182.10 C 206.74 182.10 213.04 175.79 213.04 168.04 C 213.04 160.30 206.74 153.99 198.99 153.99 Z" fill="#6e6e96" fill-opacity="0.26" fill-rule="nonzero" group-id="1,17" node-id="416" stroke-linecap="butt" stroke-opacity="0.26" stroke-width="1" target-height="99.58201" target-width="99.576996" target-x="149.2" target-y="118.255"></path><path d="M 74.53 108.13 C 74.53 108.13 75.69 102.36 67.44 102.36 C 61.84 102.36 61.12 109.08 61.12 109.08 C 64.75 149.86 15.73 146.11 9.09 157.97 C 4.83 169.14 16.64 172.32 23.82 173.24 C 23.86 173.24 23.91 173.25 23.96 173.25 C 24.33 173.30 24.68 173.34 25.03 173.38 C 25.24 173.40 25.45 173.42 25.66 173.44 C 25.83 173.46 26.00 173.46 26.15 173.48 C 27.08 173.55 27.99 173.59 28.89 173.62 C 28.23 174.34 27.77 175.07 27.54 175.84 C 24.74 185.44 38.73 187.04 38.73 187.04 C 65.01 187.04 86.31 165.74 86.31 139.47 C 86.30 123.90 74.53 123.83 74.53 108.13 Z" fill="#ffe870" fill-opacity="0.26" fill-rule="nonzero" group-id="1,18" node-id="421" stroke-linecap="butt" stroke-opacity="0.26" stroke-width="1" target-height="84.674995" target-width="78.11073" target-x="8.200268" target-y="102.363"></path><path d="M 36.00 181.25 C 36.00 181.25 28.93 179.51 33.73 174.71 C 38.53 169.91 69.70 155.18 68.99 131.73 C 68.99 131.73 62.28 153.49 49.65 160.31 C 37.02 167.13 16.45 178.54 36.00 181.25 Z" fill="#fff0a1" fill-opacity="0.26" fill-rule="nonzero" group-id="1,18" node-id="423" stroke-linecap="butt" stroke-opacity="0.26" stroke-width="1" target-height="49.529007" target-width="41.04528" target-x="27.941717" target-y="131.726"></path><path d="M 71.89 103.20 C 70.85 102.70 69.41 102.36 67.44 102.36 C 61.84 102.36 61.12 109.08 61.12 109.08 C 64.75 149.86 15.73 146.11 9.09 157.97 C 8.62 159.22 8.34 160.37 8.24 161.42 C 8.73 162.83 9.51 164.03 10.61 164.98 C 10.61 164.98 8.01 160.29 14.67 157.28 C 21.32 154.28 58.24 144.97 61.65 127.16 C 65.06 109.36 64.51 102.73 74.25 106.52 C 74.25 106.51 73.71 104.99 71.89 103.20 Z" fill="#fff0a1" fill-opacity="0.26" fill-rule="nonzero" group-id="1,18" node-id="425" stroke-linecap="butt" stroke-opacity="0.26" stroke-width="1" target-height="62.613007" target-width="66.015" target-x="8.239" target-y="102.364"></path><path d="M 38.02 188.40 C 35.46 188.40 30.62 186.55 28.91 185.30 C 26.65 183.64 24.28 180.55 25.82 175.26 C 25.86 175.12 25.91 174.97 25.97 174.83 C 21.31 174.50 11.88 173.13 8.07 167.63 C 6.10 164.78 5.88 161.30 7.41 157.28 C 7.44 157.21 7.47 157.15 7.50 157.08 C 9.94 152.74 16.54 150.53 24.90 147.74 C 41.30 142.26 61.70 135.45 59.35 109.05 C 59.34 108.95 59.34 108.86 59.35 108.76 C 59.65 105.97 61.67 100.70 67.16 100.70 C 70.56 100.70 73.02 101.61 74.48 103.39 C 75.82 105.03 75.92 107.04 75.76 108.10 C 75.79 115.38 78.50 118.99 81.36 122.82 C 84.40 126.86 87.53 131.04 87.53 139.30 C 87.53 166.35 65.53 188.36 38.49 188.37 C 38.34 188.39 38.18 188.40 38.02 188.40 Z M 29.62 174.56 C 29.17 175.08 28.85 175.59 28.70 176.10 C 28.06 178.30 28.25 180.06 29.27 181.49 C 31.71 184.86 38.00 185.35 38.46 185.38 C 63.87 185.37 84.53 164.71 84.53 139.30 C 84.53 132.04 81.83 128.44 78.96 124.62 C 75.91 120.55 72.75 116.34 72.75 107.97 C 72.75 107.87 72.77 107.77 72.78 107.67 C 72.79 107.63 73.02 106.32 72.14 105.27 C 71.28 104.25 69.56 103.71 67.16 103.71 C 63.28 103.71 62.47 108.11 62.35 108.95 C 64.81 137.57 42.30 145.09 25.85 150.59 C 18.48 153.05 12.11 155.18 10.18 158.46 C 9.04 161.49 9.16 163.93 10.54 165.92 C 13.81 170.66 23.71 171.84 28.00 171.94 C 30.18 169.83 33.66 167.93 37.71 165.71 C 48.80 159.64 64.00 151.33 66.98 131.90 C 67.11 131.08 67.87 130.52 68.69 130.64 C 69.51 130.77 70.07 131.54 69.95 132.35 C 66.73 153.25 50.13 162.33 39.15 168.34 C 35.17 170.52 31.61 172.46 29.82 174.34 C 29.76 174.42 29.70 174.50 29.62 174.56 Z" fill="#6e6e96" fill-opacity="0.26" fill-rule="nonzero" group-id="1,18" node-id="427" stroke-linecap="butt" stroke-opacity="0.26" stroke-width="1" target-height="87.69499" target-width="81.12099" target-x="6.4110117" target-y="100.705"></path><path d="M 8.81 157.82 C 8.81 157.82 4.43 168.08 23.38 168.08 C 42.32 168.08 65.43 144.02 66.76 132.65 C 66.76 132.65 66.95 128.67 68.84 128.67 C 70.74 128.67 68.28 133.25 68.28 133.25 C 68.28 133.25 64.87 149.72 53.90 157.12 C 42.94 164.51 29.94 172.12 29.28 172.78 C 28.62 173.44 3.34 174.83 8.81 157.82 Z" fill="#d59758" fill-opacity="0.0676" fill-rule="nonzero" group-id="1,18,40" node-id="431" stroke-linecap="butt" stroke-opacity="0.0676" stroke-width="1" target-height="44.44406" target-width="61.504696" target-x="8.05074" target-y="128.673"></path><path d="M 30.96 171.30 C 30.96 171.30 23.00 178.69 33.23 180.96 C 43.46 183.23 82.86 173.00 82.86 141.56 C 82.86 141.56 83.43 130.95 79.64 127.16 C 75.85 123.37 74.49 111.60 74.49 111.60 C 74.49 111.60 76.68 118.45 79.64 122.80 C 82.61 127.16 94.24 140.06 78.13 165.55 C 61.46 191.95 33.08 186.34 31.01 184.85 C 28.93 183.36 23.38 177.17 30.96 171.30 Z" fill="#d59758" fill-opacity="0.0676" fill-rule="nonzero" group-id="1,18,41" node-id="436" stroke-linecap="butt" stroke-opacity="0.0676" stroke-width="1" target-height="74.772224" target-width="59.364166" target-x="27.113935" target-y="111.604"></path><path d="M 77.64 108.28 C 77.64 108.28 75.26 102.90 68.52 107.68 C 63.96 110.92 67.26 116.82 67.26 116.82 C 93.83 147.98 51.69 173.29 53.13 186.81 C 56.13 198.37 67.59 194.14 73.98 190.73 C 74.02 190.71 74.06 190.68 74.10 190.66 C 74.43 190.48 74.75 190.31 75.04 190.14 C 75.23 190.04 75.41 189.93 75.60 189.83 C 75.74 189.74 75.88 189.66 76.02 189.58 C 76.81 189.10 77.59 188.61 78.33 188.10 C 78.21 189.07 78.26 189.94 78.52 190.70 C 81.79 200.15 94.13 193.35 94.13 193.35 C 115.55 178.14 120.59 148.45 105.39 127.02 C 96.38 114.33 86.73 121.08 77.64 108.28 Z" fill="#ffe870" fill-opacity="0.26" fill-rule="nonzero" group-id="1,18" node-id="439" stroke-linecap="butt" stroke-opacity="0.26" stroke-width="1" target-height="89.953354" target-width="61.025173" target-x="53.131" target-y="105.76056"></path><path d="M 88.55 190.21 C 88.55 190.21 81.78 192.88 82.92 186.19 C 84.05 179.50 100.93 149.44 86.78 130.73 C 86.78 130.73 93.91 152.37 87.56 165.24 C 81.21 178.11 71.04 199.31 88.55 190.21 Z" fill="#fff0a1" fill-opacity="0.26" fill-rule="nonzero" group-id="1,18" node-id="441" stroke-linecap="butt" stroke-opacity="0.26" stroke-width="1" target-height="61.654907" target-width="13.5937805" target-x="78.80799" target-y="130.734"></path><path d="M 72.64 105.79 C 71.50 105.98 70.14 106.54 68.52 107.69 C 63.96 110.93 67.26 116.82 67.26 116.82 C 93.83 147.98 51.69 173.29 53.13 186.81 C 53.47 188.10 53.91 189.19 54.44 190.12 C 55.65 190.98 56.98 191.50 58.43 191.64 C 58.43 191.64 53.59 189.32 57.28 183.02 C 60.96 176.71 85.68 147.76 78.16 131.26 C 70.63 114.77 66.35 109.67 76.48 107.13 C 76.48 107.12 75.16 106.19 72.64 105.79 Z" fill="#fff0a1" fill-opacity="0.26" fill-rule="nonzero" group-id="1,18" node-id="443" stroke-linecap="butt" stroke-opacity="0.26" stroke-width="1" target-height="85.84699" target-width="26.41579" target-x="53.132" target-y="105.79"></path><path d="M 85.26 197.62 C 85.21 197.62 85.17 197.62 85.12 197.62 C 82.31 197.57 78.59 196.43 76.78 191.22 C 76.73 191.08 76.69 190.93 76.65 190.78 C 72.66 193.20 64.18 197.56 57.89 195.27 C 54.64 194.09 52.44 191.38 51.36 187.21 C 51.34 187.14 51.33 187.07 51.32 186.99 C 50.79 182.04 54.90 176.42 60.10 169.31 C 70.30 155.35 82.99 137.99 65.80 117.82 C 65.73 117.75 65.68 117.67 65.63 117.58 C 64.26 115.14 62.86 109.68 67.34 106.50 C 70.11 104.53 72.64 103.84 74.86 104.45 C 76.90 105.01 78.15 106.59 78.62 107.55 C 82.87 113.47 87.17 114.85 91.72 116.31 C 96.53 117.85 101.50 119.44 106.29 126.18 C 121.95 148.25 116.74 178.94 94.67 194.60 L 94.65 194.57 C 94.61 194.60 94.57 194.63 94.52 194.66 L 94.54 194.69 C 94.49 194.72 94.44 194.74 94.39 194.76 C 92.60 196.03 88.38 197.62 85.26 197.62 Z M 79.48 188.44 C 79.40 189.13 79.44 189.73 79.62 190.24 C 80.37 192.40 81.54 193.73 83.20 194.30 C 87.13 195.65 92.56 192.39 92.95 192.15 C 113.66 177.44 118.54 148.63 103.84 127.92 C 99.64 122.00 95.35 120.62 90.80 119.17 C 85.96 117.61 80.95 116.01 76.11 109.18 C 76.05 109.10 76.00 109.02 75.96 108.92 C 75.94 108.89 75.36 107.68 74.03 107.34 C 72.74 107.00 71.03 107.56 69.08 108.94 C 65.91 111.19 67.80 115.25 68.19 116.00 C 86.76 137.92 72.75 157.08 62.52 171.08 C 57.94 177.35 53.97 182.78 54.30 186.57 C 55.13 189.70 56.64 191.62 58.91 192.45 C 64.92 194.63 74.36 188.75 76.64 187.24 C 77.19 184.26 78.93 180.70 80.95 176.55 C 86.48 165.18 94.06 149.61 85.25 132.03 C 84.88 131.29 85.17 130.39 85.92 130.02 C 86.66 129.65 87.56 129.95 87.93 130.69 C 97.41 149.59 89.12 166.61 83.64 177.87 C 81.66 181.94 79.88 185.59 79.51 188.16 C 79.51 188.26 79.50 188.35 79.48 188.44 Z" fill="#6e6e96" fill-opacity="0.26" fill-rule="nonzero" group-id="1,18" node-id="445" stroke-linecap="butt" stroke-opacity="0.26" stroke-width="1" target-height="93.3831" target-width="64.0004" target-x="51.312496" target-y="104.23489"></path><path d="M 52.81 186.84 C 52.81 186.84 55.19 197.74 70.63 186.77 C 86.08 175.81 91.00 142.81 85.50 132.78 C 85.50 132.78 83.36 129.42 84.90 128.33 C 86.45 127.23 87.09 132.38 87.09 132.38 C 87.09 132.38 93.84 147.79 89.18 160.17 C 84.53 172.55 78.33 186.28 78.17 187.19 C 78.01 188.11 58.20 203.88 52.81 186.84 Z" fill="#d59758" fill-opacity="0.0676" fill-rule="nonzero" group-id="1,18,42" node-id="449" stroke-linecap="butt" stroke-opacity="0.0676" stroke-width="1" target-height="66.524216" target-width="38.004597" target-x="52.815" target-y="128.18553"></path><path d="M 78.68 185.01 C 78.68 185.01 76.47 195.64 86.12 191.58 C 95.78 187.51 121.99 156.36 103.79 130.72 C 103.79 130.72 98.11 121.74 92.83 120.84 C 87.54 119.94 79.62 111.14 79.62 111.14 C 79.62 111.14 85.37 115.45 90.31 117.29 C 95.25 119.12 112.20 122.91 113.82 153.02 C 115.50 184.20 89.12 196.06 86.56 196.04 C 84.00 196.02 75.90 194.19 78.68 185.01 Z" fill="#d59758" fill-opacity="0.0676" fill-rule="nonzero" group-id="1,18,43" node-id="454" stroke-linecap="butt" stroke-opacity="0.0676" stroke-width="1" target-height="84.90099" target-width="35.721336" target-x="78.11505" target-y="111.137"></path><path d="M 61.77 212.82 L 112.07 112.00 C 112.07 112.00 114.71 105.73 118.34 105.73 C 121.97 105.73 148.55 157.09 148.55 157.09 C 148.55 157.09 111.72 214.96 96.04 215.14 C 80.36 215.32 64.60 215.65 61.77 212.82 Z" fill="#f7e5d2" fill-rule="nonzero" group-id="1" node-id="458" stroke="none" target-height="109.52044" target-width="86.77799" target-x="61.775" target-y="105.73"></path><path d="M 166.39 215.49 C 168.01 213.21 168.30 209.30 167.04 206.80 L 121.28 116.58 C 120.01 114.08 117.98 114.11 116.77 116.63 L 73.96 205.38 C 72.75 207.90 73.03 211.86 74.59 214.18 C 74.59 214.18 84.58 229.02 120.69 229.02 C 156.80 229.01 166.39 215.49 166.39 215.49 Z" fill="#ffe5a6" fill-opacity="0.26" fill-rule="nonzero" group-id="1,19" node-id="462" stroke-linecap="butt" stroke-opacity="0.26" stroke-width="1" target-height="114.296005" target-width="94.5585" target-x="73.23712" target-y="114.722"></path><path d="M 78.17 210.08 L 120.97 121.33 C 121.27 120.71 121.62 120.24 121.99 119.93 L 119.79 115.59 C 118.53 113.09 116.50 113.12 115.28 115.64 L 72.47 204.39 C 71.26 206.91 71.55 210.87 73.11 213.19 C 73.11 213.19 74.54 215.32 78.29 217.96 C 77.19 215.61 77.10 212.29 78.17 210.08 Z" fill="#ffefc9" fill-opacity="0.26" fill-rule="nonzero" group-id="1,19" node-id="464" stroke-linecap="butt" stroke-opacity="0.26" stroke-width="1" target-height="104.23064" target-width="50.242744" target-x="71.75025" target-y="113.73137"></path><path d="M 140.83 186.09 C 140.83 190.02 137.64 193.21 133.71 193.21 C 129.77 193.21 126.58 190.02 126.58 186.09 C 126.58 182.16 129.77 178.97 133.71 178.97 C 137.64 178.97 140.83 182.16 140.83 186.09 Z" fill="#f79b9b" fill-opacity="0.26" fill-rule="nonzero" group-id="1,19" node-id="466" stroke-linecap="butt" stroke-opacity="0.26" stroke-width="1" target-height="14.242004" target-width="14.241997" target-x="126.585" target-y="178.967"></path><path d="M 133.71 194.71 C 128.95 194.71 125.08 190.84 125.08 186.09 C 125.08 181.33 128.95 177.47 133.71 177.47 C 138.46 177.47 142.33 181.33 142.33 186.09 C 142.33 190.84 138.46 194.71 133.71 194.71 Z M 133.71 180.47 C 130.61 180.47 128.09 182.99 128.09 186.09 C 128.09 189.19 130.61 191.71 133.71 191.71 C 136.81 191.71 139.33 189.19 139.33 186.09 C 139.33 182.99 136.81 180.47 133.71 180.47 Z" fill="#6e6e96" fill-opacity="0.26" fill-rule="nonzero" group-id="1,19" node-id="468" stroke-linecap="butt" stroke-opacity="0.26" stroke-width="1" target-height="17.242004" target-width="17.241997" target-x="125.085" target-y="177.467"></path><path d="M 109.33 182.29 C 109.33 184.40 107.62 186.11 105.51 186.11 C 103.41 186.11 101.70 184.40 101.70 182.29 C 101.70 180.19 103.41 178.48 105.51 178.48 C 107.62 178.48 109.33 180.19 109.33 182.29 Z" fill="#ffffff" fill-opacity="0.26" fill-rule="nonzero" group-id="1,19" node-id="470" stroke-linecap="butt" stroke-opacity="0.26" stroke-width="1" target-height="7.6279907" target-width="7.628006" target-x="101.7" target-y="178.481"></path><path d="M 105.51 187.61 C 102.58 187.61 100.20 185.22 100.20 182.29 C 100.20 179.37 102.58 176.98 105.51 176.98 C 108.44 176.98 110.83 179.37 110.83 182.29 C 110.83 185.22 108.44 187.61 105.51 187.61 Z M 105.51 179.98 C 104.24 179.98 103.20 181.02 103.20 182.29 C 103.20 183.57 104.24 184.61 105.51 184.61 C 106.79 184.61 107.83 183.57 107.83 182.29 C 107.83 181.02 106.79 179.98 105.51 179.98 Z" fill="#6e6e96" fill-opacity="0.26" fill-rule="nonzero" group-id="1,19" node-id="472" stroke-linecap="butt" stroke-opacity="0.26" stroke-width="1" target-height="10.626999" target-width="10.627007" target-x="100.201" target-y="176.982"></path><path d="M 119.00 114.72 L 154.99 195.10 C 154.99 195.10 117.93 214.20 80.85 191.08 L 78.03 197.81 C 78.03 197.81 115.20 227.19 164.25 201.31 C 164.25 201.31 121.17 116.89 119.00 114.72 Z" fill="#eda470" fill-opacity="0.10919999" fill-rule="nonzero" group-id="1,19,44" node-id="476" stroke-linecap="butt" stroke-opacity="0.10919999" stroke-width="1" target-height="97.204315" target-width="86.22099" target-x="78.028" target-y="114.72"></path><path d="M 124.98 158.79 C 124.98 161.32 122.94 163.37 120.41 163.37 C 117.88 163.37 115.83 161.32 115.83 158.79 C 115.83 156.26 117.88 154.21 120.41 154.21 C 122.94 154.21 124.98 156.26 124.98 158.79 Z" fill="#86cf9f" fill-opacity="0.26" fill-rule="nonzero" group-id="1,19" node-id="479" stroke-linecap="butt" stroke-opacity="0.26" stroke-width="1" target-height="9.154007" target-width="9.153999" target-x="115.831" target-y="154.213"></path><path d="M 120.41 164.87 C 117.06 164.87 114.33 162.14 114.33 158.79 C 114.33 155.44 117.06 152.71 120.41 152.71 C 123.76 152.71 126.48 155.44 126.48 158.79 C 126.48 162.14 123.76 164.87 120.41 164.87 Z M 120.41 155.71 C 118.71 155.71 117.33 157.09 117.33 158.79 C 117.33 160.49 118.71 161.87 120.41 161.87 C 122.10 161.87 123.48 160.49 123.48 158.79 C 123.48 157.09 122.11 155.71 120.41 155.71 Z" fill="#6e6e96" fill-opacity="0.26" fill-rule="nonzero" group-id="1,19" node-id="481" stroke-linecap="butt" stroke-opacity="0.26" stroke-width="1" target-height="12.154007" target-width="12.153" target-x="114.331" target-y="152.713"></path><path d="M 166.09 205.21 C 163.62 207.92 152.24 218.08 120.94 218.08 C 89.23 218.08 77.67 206.64 75.32 203.85 L 74.22 206.14 C 73.00 208.66 73.29 212.62 74.85 214.94 C 74.85 214.94 84.84 229.78 120.94 229.78 C 157.05 229.78 166.65 216.25 166.65 216.25 C 168.27 213.97 168.56 210.06 167.29 207.57 L 166.09 205.21 Z" fill="#eda470" fill-opacity="0.10919999" fill-rule="nonzero" group-id="1,19,45" node-id="485" stroke-linecap="butt" stroke-opacity="0.10919999" stroke-width="1" target-height="25.925003" target-width="94.55988" target-x="73.493126" target-y="203.853"></path><path d="M 120.69 230.52 L 120.69 230.52 C 84.20 230.52 73.78 215.65 73.35 215.02 C 71.49 212.25 71.16 207.73 72.61 204.73 L 115.41 115.97 C 116.26 114.22 117.57 113.22 119.02 113.22 C 119.85 113.22 121.43 113.57 122.61 115.90 L 168.37 206.12 C 169.89 209.12 169.56 213.62 167.61 216.36 C 167.21 216.93 157.15 230.51 120.69 230.52 Z M 119.02 116.22 C 118.89 116.22 118.50 116.48 118.12 117.28 L 75.31 206.03 C 74.34 208.06 74.58 211.47 75.84 213.35 C 75.86 213.37 78.34 216.91 85.05 220.40 C 91.28 223.65 102.52 227.52 120.69 227.52 C 138.85 227.52 150.00 223.99 156.15 221.04 C 162.76 217.86 165.15 214.64 165.17 214.61 C 166.46 212.80 166.71 209.47 165.70 207.48 L 119.94 117.26 C 119.54 116.48 119.15 116.22 119.02 116.22 Z" fill="#6e6e96" fill-opacity="0.26" fill-rule="nonzero" group-id="1,19" node-id="488" stroke-linecap="butt" stroke-opacity="0.26" stroke-width="1" target-height="117.295006" target-width="97.554016" target-x="71.739746" target-y="113.223"></path><path d="M 121.25 209.72 C 112.83 209.72 105.83 208.41 100.33 206.75 C 86.11 202.48 78.77 195.20 78.47 194.89 L 80.60 192.78 C 80.67 192.85 87.81 199.90 101.36 203.93 C 113.88 207.66 134.59 209.50 162.21 197.12 L 163.43 199.86 C 146.93 207.26 132.77 209.72 121.25 209.72 Z" fill="#6e6e96" fill-opacity="0.26" fill-rule="nonzero" group-id="1,19" node-id="490" stroke-linecap="butt" stroke-opacity="0.26" stroke-width="1" target-height="16.938995" target-width="84.965" target-x="78.468" target-y="192.776"></path><path d="M 217.00 57.08 L 203.14 57.08 C 202.31 57.08 201.64 56.41 201.64 55.58 C 201.64 54.75 202.31 54.08 203.14 54.08 L 217.00 54.08 C 217.82 54.08 218.50 54.75 218.50 55.58 C 218.50 56.41 217.82 57.08 217.00 57.08 Z" fill="#ffffff" fill-rule="nonzero" group-id="1" node-id="493" stroke="none" target-height="3" target-width="16.857986" target-x="201.639" target-y="54.077"></path><path d="M 230.86 57.08 L 226.90 57.08 C 226.07 57.08 225.40 56.41 225.40 55.58 C 225.40 54.75 226.07 54.08 226.90 54.08 L 230.86 54.08 C 231.68 54.08 232.36 54.75 232.36 55.58 C 232.36 56.41 231.68 57.08 230.86 57.08 Z" fill="#ffffff" fill-rule="nonzero" group-id="1" node-id="495" stroke="none" target-height="3" target-width="6.9589996" target-x="225.397" target-y="54.077"></path><path d="M 240.79 65.99 L 222.94 65.99 C 222.11 65.99 221.44 65.31 221.44 64.49 C 221.44 63.66 222.11 62.99 222.94 62.99 L 240.79 62.99 C 241.62 62.99 242.29 63.66 242.29 64.49 C 242.29 65.31 241.62 65.99 240.79 65.99 Z" fill="#ffffff" fill-rule="nonzero" group-id="1" node-id="497" stroke="none" target-height="3" target-width="20.852997" target-x="221.436" target-y="62.986"></path><path d="M 212.05 65.99 L 207.10 65.99 C 206.27 65.99 205.60 65.31 205.60 64.49 C 205.60 63.66 206.27 62.99 207.10 62.99 L 212.05 62.99 C 212.88 62.99 213.55 63.66 213.55 64.49 C 213.55 65.31 212.88 65.99 212.05 65.99 Z" fill="#ffffff" fill-rule="nonzero" group-id="1" node-id="499" stroke="none" target-height="3" target-width="7.94899" target-x="205.6" target-y="62.986"></path><path d="M 36.84 132.80 L 27.93 132.80 C 27.10 132.80 26.43 132.13 26.43 131.30 C 26.43 130.47 27.10 129.80 27.93 129.80 L 36.84 129.80 C 37.67 129.80 38.34 130.47 38.34 131.30 C 38.34 132.13 37.67 132.80 36.84 132.80 Z" fill="#ffffff" fill-rule="nonzero" group-id="1" node-id="501" stroke="none" target-height="3" target-width="11.9089985" target-x="26.433" target-y="129.802"></path><path d="M 22.49 132.80 L 17.05 132.80 C 16.22 132.80 15.55 132.13 15.55 131.30 C 15.55 130.47 16.22 129.80 17.05 129.80 L 22.49 129.80 C 23.32 129.80 23.99 130.47 23.99 131.30 C 23.99 132.13 23.32 132.80 22.49 132.80 Z" fill="#ffffff" fill-rule="nonzero" group-id="1" node-id="503" stroke="none" target-height="3" target-width="8.444" target-x="15.546" target-y="129.802"></path><path d="M 29.67 125.63 L 14.32 125.63 C 13.49 125.63 12.82 124.95 12.82 124.13 C 12.82 123.30 13.49 122.63 14.32 122.63 L 29.67 122.63 C 30.50 122.63 31.17 123.30 31.17 124.13 C 31.17 124.95 30.50 125.63 29.67 125.63 Z" fill="#ffffff" fill-rule="nonzero" group-id="1" node-id="505" stroke="none" target-height="3" target-width="18.343" target-x="12.823" target-y="122.626"></path><path d="M 41.30 125.63 L 36.84 125.63 C 36.01 125.63 35.34 124.95 35.34 124.13 C 35.34 123.30 36.01 122.63 36.84 122.63 L 41.30 122.63 C 42.13 122.63 42.80 123.30 42.80 124.13 C 42.80 124.95 42.13 125.63 41.30 125.63 Z" fill="#ffffff" fill-rule="nonzero" group-id="1" node-id="507" stroke="none" target-height="3" target-width="7.455002" target-x="35.342" target-y="122.626"></path></g><g node-id="637"><g node-id="655"><path d="M 118.63 132.69 C 112.11 123.25 89.05 120.77 78.75 131.50 C 66.02 144.77 70.08 171.78 55.80 181.38 C 99.08 193.08 118.63 132.69 118.63 132.69 Z" fill="#ffa88f" fill-rule="nonzero" group-id="2,20" node-id="514" stroke="none" target-height="58.31183" target-width="62.833004" target-x="55.799" target-y="124.53108"></path><path d="M 66.72 183.38 C 66.72 183.38 66.72 183.38 66.71 183.38 C 63.12 183.38 59.40 182.87 55.67 181.86 C 55.48 181.81 55.34 181.66 55.31 181.46 C 55.27 181.27 55.36 181.08 55.52 180.97 C 62.91 176.00 65.27 166.31 67.77 156.05 C 70.00 146.93 72.29 137.51 78.39 131.16 C 82.77 126.59 89.92 123.97 97.99 123.97 C 107.10 123.97 115.56 127.36 119.04 132.41 C 119.13 132.54 119.16 132.70 119.11 132.85 C 118.94 133.35 102.34 183.38 66.72 183.38 Z M 56.96 181.16 C 60.26 181.97 63.54 182.38 66.71 182.38 C 100.37 182.39 116.80 136.49 118.08 132.78 C 114.69 128.10 106.66 124.97 97.99 124.97 C 90.19 124.97 83.31 127.48 79.11 131.85 C 73.20 138.01 70.94 147.30 68.75 156.28 C 66.30 166.33 63.98 175.84 56.96 181.16 Z" fill="#6e6e96" fill-rule="nonzero" group-id="2,20" node-id="516" stroke="none" target-height="59.414993" target-width="63.802002" target-x="55.306" target-y="123.97"></path></g><g node-id="656"><path d="M 118.07 135.43 C 118.07 135.43 105.23 140.26 95.00 164.09 C 84.77 187.93 68.72 178.41 68.72 178.41 C 68.72 178.41 86.34 172.56 86.72 148.82 C 87.09 125.08 106.45 129.09 106.45 129.09 C 112.26 130.11 118.07 135.43 118.07 135.43 Z" fill="#d18a75" fill-opacity="0.48" fill-rule="nonzero" group-id="2,21" node-id="521" stroke-linecap="butt" stroke-opacity="0.48" stroke-width="1" target-height="51.435028" target-width="49.345" target-x="68.723" target-y="128.85251"></path></g><path d="M 66.72 184.38 C 66.72 184.38 66.72 184.38 66.71 184.38 C 63.03 184.38 59.23 183.86 55.41 182.83 L 52.23 181.97 L 54.96 180.14 C 62.03 175.39 64.35 165.88 66.80 155.81 C 69.06 146.57 71.39 137.01 77.66 130.47 C 82.24 125.70 89.64 122.97 97.99 122.97 C 107.56 122.97 116.15 126.45 119.87 131.84 L 120.29 132.45 L 120.06 133.16 C 119.89 133.68 115.83 146.05 107.29 158.63 C 95.85 175.48 81.82 184.38 66.72 184.38 Z M 59.14 180.62 C 61.70 181.13 64.24 181.38 66.71 181.38 C 98.58 181.39 114.79 139.04 116.96 132.95 C 113.58 128.75 106.10 125.97 97.99 125.97 C 90.46 125.97 83.84 128.37 79.83 132.54 C 74.11 138.51 71.88 147.66 69.72 156.52 C 67.51 165.56 65.24 174.87 59.14 180.62 Z" fill="#6e6e96" fill-rule="nonzero" group-id="2" node-id="524" stroke="none" target-height="61.415993" target-width="68.053" target-x="52.233" target-y="122.969"></path><path d="M 65.95 209.48 C 65.95 235.31 108.34 247.75 133.41 247.75 C 177.65 247.75 201.97 219.10 205.86 200.96 C 214.21 162.03 177.67 130.48 142.89 130.48 C 93.38 130.48 109.70 160.34 80.82 182.55" fill="#ffa88f" fill-rule="nonzero" group-id="2" node-id="526" stroke="none" target-height="117.27699" target-width="141.08951" target-x="65.952" target-y="130.477"></path><path d="M 65.95 209.48 C 65.95 219.42 72.25 227.39 81.41 233.42 C 76.76 228.51 73.92 222.72 73.92 216.03 L 88.79 189.10 C 117.67 166.89 101.34 137.03 150.85 137.03 C 164.18 137.03 177.77 141.67 189.00 149.59 C 176.65 137.74 159.57 130.48 142.89 130.48 C 93.38 130.48 109.70 160.34 80.82 182.55 L 65.95 209.48 Z" fill="#ffede8" fill-opacity="0.34" fill-rule="nonzero" group-id="2,22" node-id="530" stroke-linecap="butt" stroke-opacity="0.34" stroke-width="1" target-height="102.93901" target-width="123.042" target-x="65.954" target-y="130.478"></path><path d="M 127.74 169.53 C 121.79 169.53 115.19 170.56 108.13 172.61 C 101.78 174.44 95.43 177.01 89.73 180.03 L 89.73 180.03 C 86.35 181.84 82.59 182.67 77.91 182.67 C 74.95 182.67 71.95 182.33 69.13 181.99 C 68.85 181.95 68.58 181.92 68.31 181.88 C 65.42 181.53 62.69 181.19 60.08 181.19 C 56.64 181.19 53.83 181.81 51.48 183.10 C 49.36 184.25 46.57 186.54 45.12 190.90 C 44.81 191.64 44.35 192.92 44.05 194.49 C 43.35 198.17 43.90 201.58 45.66 204.35 C 46.95 206.39 48.87 208.01 51.21 209.02 C 53.29 209.92 55.65 210.36 58.42 210.36 C 60.67 210.36 63.13 210.07 65.95 209.48 C 67.14 209.24 68.37 209.11 69.61 209.11 C 75.71 209.11 82.10 212.15 88.86 215.37 C 92.77 217.24 96.82 219.16 101.11 220.66 C 106.31 222.47 111.08 223.35 115.70 223.35 C 129.95 223.35 144.62 215.88 151.38 205.19 C 153.53 201.80 154.80 198.23 155.18 194.58 C 155.59 190.54 154.90 186.56 153.10 182.77 C 151.95 180.34 150.38 178.20 148.44 176.38 C 146.64 174.71 144.52 173.32 142.13 172.25 C 138.10 170.44 133.26 169.53 127.74 169.53 L 127.74 169.53 Z M 44.96 191.38 C 44.97 191.36 44.97 191.35 44.97 191.34 C 44.97 191.35 44.97 191.36 44.96 191.38 L 44.96 191.38 Z" fill="#ffa88f" fill-rule="nonzero" group-id="2" node-id="533" stroke="none" target-height="53.824005" target-width="111.5231" target-x="43.75851" target-y="169.528"></path><path d="M 45.66 204.35 C 46.95 206.39 48.87 208.01 51.21 209.02 C 53.29 209.92 55.65 210.35 58.42 210.35 C 60.67 210.35 63.13 210.07 65.95 209.48 C 67.14 209.24 68.37 209.10 69.61 209.10 C 75.71 209.10 82.10 212.15 88.86 215.37 C 92.77 217.23 96.81 219.16 101.11 220.65 C 106.30 222.47 111.08 223.35 115.69 223.35 C 129.94 223.35 144.62 215.88 151.38 205.19 C 153.52 201.80 154.80 198.23 155.18 194.58 C 155.59 190.53 154.89 186.56 153.09 182.77 C 151.94 180.34 150.38 178.20 148.43 176.38 C 148.18 176.14 147.90 175.92 147.62 175.69 C 147.53 178.05 146.45 173.19 147.62 175.69 C 155.29 192.05 135.31 199.47 122.26 201.75 C 118.03 202.49 106.39 202.62 101.41 202.13 C 97.28 201.74 93.34 200.99 89.51 200.26 C 82.91 199.02 76.68 197.83 71.09 198.81 C 69.96 199.01 68.85 199.30 67.79 199.66 C 65.28 200.54 63.06 201.14 61.00 201.50 C 58.46 201.95 56.25 202.01 54.23 201.69 C 51.96 201.33 50.00 200.47 48.55 199.20 C 46.59 197.47 45.65 195.09 45.83 192.31 C 45.91 191.12 46.17 190.12 46.35 189.54 C 46.72 187.96 47.41 186.67 48.22 185.61 C 47.01 186.89 45.88 188.60 45.12 190.90 C 44.81 191.64 44.34 192.92 44.05 194.49 C 43.34 198.17 43.90 201.58 45.66 204.35 Z" fill="#d18a75" fill-opacity="0.48" fill-rule="nonzero" group-id="2,23" node-id="537" stroke-linecap="butt" stroke-opacity="0.48" stroke-width="1" target-height="48.379837" target-width="111.522766" target-x="43.75583" target-y="174.96817"></path><path d="M 66.47 214.31 C 71.35 236.86 109.96 247.75 133.41 247.75 C 177.65 247.75 201.97 219.10 205.86 200.96 C 210.68 178.50 200.55 158.50 184.44 145.59 C 189.73 155.92 194.26 167.62 194.26 180.68 C 194.26 219.31 164.50 234.69 120.26 234.69 C 97.10 234.69 81.05 215.62 66.47 214.31 Z" fill="#d18a75" fill-opacity="0.48" fill-rule="nonzero" group-id="2,24" node-id="542" stroke-linecap="butt" stroke-opacity="0.48" stroke-width="1" target-height="102.162994" target-width="140.59663" target-x="66.468" target-y="145.591"></path><path d="M 65.95 209.48 C 65.95 235.31 108.34 247.75 133.41 247.75 C 177.65 247.75 201.97 219.10 205.86 200.96 C 213.81 163.90 181.08 133.53 147.91 130.69 C 165.76 134.87 175.15 145.33 178.71 163.21 C 178.50 163.18 178.29 163.16 178.07 163.16 C 175.69 163.16 173.76 165.09 173.76 167.47 C 173.76 167.84 173.81 168.20 173.90 168.54 C 171.44 170.00 169.79 172.68 169.79 175.74 C 169.79 178.74 171.38 181.37 173.75 182.85 C 171.49 183.96 169.93 186.28 169.93 188.97 C 169.93 191.22 171.02 193.22 172.70 194.46 C 162.51 207.41 140.93 220.49 114.71 220.49 C 100.62 220.49 79.64 215.34 68.55 204.76 L 65.95 209.48 Z M 158.15 160.59 C 158.15 163.04 160.13 165.02 162.58 165.02 C 165.02 165.02 167.00 163.04 167.00 160.59 C 167.00 158.15 165.02 156.17 162.58 156.17 C 160.13 156.17 158.15 158.15 158.15 160.59 Z M 160.36 172.48 C 159.14 172.48 158.15 173.47 158.15 174.69 C 158.15 175.92 159.14 176.91 160.36 176.91 C 161.58 176.91 162.58 175.92 162.58 174.69 C 162.57 173.47 161.58 172.48 160.36 172.48 Z" fill="#d18a75" fill-opacity="0.48" fill-rule="nonzero" group-id="2,25" node-id="547" stroke-linecap="butt" stroke-opacity="0.48" stroke-width="1" target-height="117.06" target-width="141.11078" target-x="65.952" target-y="130.692"></path><path d="M 124.81 176.59 L 128.16 176.50 L 131.08 176.84 L 133.74 177.61 L 135.69 178.64 L 136.74 179.57 L 137.37 180.55 L 137.67 181.62 L 137.58 182.72 L 137.15 183.81 L 136.30 184.91 L 134.58 186.30 L 132.12 187.56 L 129.32 188.46 L 126.01 189.01 L 122.66 189.10 L 119.74 188.76 L 117.08 187.99 L 115.13 186.95 L 114.09 186.03 L 113.45 185.05 L 113.16 183.98 L 113.24 182.88 L 113.68 181.79 L 114.53 180.68 L 116.24 179.29 L 118.71 178.03 L 121.51 177.14 L 124.81 176.59 Z" fill="#ffe1d9" fill-opacity="0.46" fill-rule="nonzero" group-id="2,26" node-id="552" stroke-linecap="butt" stroke-opacity="0.46" stroke-width="1.0000186" target-height="12.59967" target-width="24.512726" target-x="113.15738" target-y="176.4985"></path><path d="M 133.41 249.25 C 122.29 249.25 104.96 246.74 89.65 239.66 C 73.17 232.05 64.45 221.61 64.45 209.48 L 67.45 209.48 C 67.45 223.22 80.21 232.00 90.91 236.94 C 105.78 243.81 122.61 246.25 133.41 246.25 C 175.62 246.25 200.33 219.58 204.39 200.64 C 207.72 185.12 203.80 169.46 193.35 156.53 C 181.11 141.38 161.77 131.98 142.89 131.98 C 113.12 131.98 108.03 142.86 101.60 156.65 C 97.56 165.29 92.98 175.09 81.74 183.74 L 79.91 181.36 C 90.58 173.15 94.99 163.71 98.88 155.38 C 105.49 141.21 111.21 128.98 142.89 128.98 C 162.66 128.98 182.89 138.81 195.68 154.64 C 206.71 168.29 210.85 184.85 207.32 201.27 C 203.06 221.19 177.30 249.25 133.41 249.25 Z" fill="#6e6e96" fill-rule="nonzero" group-id="2" node-id="555" stroke="none" target-height="120.27701" target-width="144.07327" target-x="64.452" target-y="128.978"></path><path d="M 115.70 224.85 C 110.92 224.85 105.99 223.94 100.62 222.07 C 96.20 220.53 91.96 218.51 88.21 216.72 C 81.58 213.57 75.36 210.61 69.61 210.61 C 68.48 210.61 67.36 210.72 66.25 210.95 C 59.67 212.33 54.69 212.16 50.62 210.40 C 48.00 209.27 45.85 207.45 44.39 205.15 C 42.43 202.06 41.80 198.28 42.58 194.21 C 42.88 192.59 43.36 191.24 43.71 190.38 C 45.32 185.57 48.43 183.05 50.76 181.78 C 53.34 180.37 56.39 179.69 60.08 179.69 C 62.76 179.69 65.51 180.03 68.42 180.38 L 69.31 180.50 C 72.09 180.84 75.05 181.17 77.91 181.17 C 82.34 181.17 85.87 180.39 89.03 178.71 C 94.82 175.64 101.28 173.03 107.72 171.17 C 121.64 167.13 134.01 166.97 142.74 170.88 C 145.28 172.01 147.54 173.50 149.46 175.29 C 151.54 177.23 153.22 179.53 154.45 182.13 C 156.37 186.17 157.11 190.41 156.67 194.74 C 156.27 198.62 154.92 202.41 152.65 205.99 C 145.63 217.10 130.43 224.85 115.70 224.85 Z M 69.61 207.61 C 76.04 207.61 82.56 210.71 89.46 213.99 C 93.36 215.85 97.35 217.76 101.60 219.24 C 106.65 221.00 111.26 221.85 115.69 221.85 C 129.46 221.85 143.61 214.67 150.11 204.39 C 152.13 201.20 153.33 197.85 153.68 194.43 C 154.07 190.66 153.42 186.95 151.74 183.41 C 150.67 181.16 149.22 179.17 147.41 177.48 C 145.73 175.92 143.75 174.62 141.51 173.61 C 133.47 170.01 121.76 170.22 108.55 174.05 C 102.30 175.85 96.04 178.38 90.44 181.36 C 86.83 183.28 82.84 184.17 77.91 184.17 C 74.88 184.17 71.82 183.83 68.94 183.47 L 68.11 183.37 C 65.23 183.02 62.57 182.69 60.08 182.69 C 56.90 182.69 54.32 183.25 52.19 184.41 C 50.33 185.43 47.84 187.46 46.54 191.37 L 46.51 191.47 C 46.49 191.50 46.48 191.54 46.46 191.59 L 46.45 191.68 L 46.36 191.91 L 46.34 191.90 C 46.06 192.63 45.74 193.62 45.52 194.77 C 44.89 198.07 45.38 201.11 46.93 203.55 C 48.06 205.34 49.75 206.75 51.81 207.64 C 55.29 209.15 59.71 209.26 65.65 208.01 C 66.95 207.75 68.28 207.61 69.61 207.61 Z" fill="#6e6e96" fill-rule="nonzero" group-id="2" node-id="557" stroke="none" target-height="56.808395" target-width="114.524704" target-x="42.25465" target-y="168.04361"></path><path d="M 69.44 190.99 C 69.44 192.98 65.67 194.60 61.02 194.60 C 56.37 194.60 52.60 192.98 52.60 190.99 C 52.60 188.99 56.37 187.37 61.02 187.37 C 65.67 187.37 69.44 188.99 69.44 190.99 Z" fill="#ffe1d9" fill-opacity="0.46" fill-rule="nonzero" group-id="2,27" node-id="561" stroke-linecap="butt" stroke-opacity="0.46" stroke-width="1" target-height="7.23999" target-width="16.831997" target-x="52.604" target-y="187.365"></path></g><path d="M 227.37 235.98 C 227.37 243.03 221.56 248.81 210.84 248.81 L 60.80 248.81 C 50.09 248.81 44.27 243.03 44.27 235.98 C 44.27 228.92 50.09 223.15 60.80 223.15 L 210.84 223.15 C 221.55 223.15 227.37 228.93 227.37 235.98 Z" fill="#b9b9c9" fill-rule="nonzero" node-id="565" stroke="none" target-height="25.653992" target-width="183.1" target-x="44.269" target-y="223.151"></path><path d="M 142.53 103.34 C 146.52 92.84 158.27 87.56 168.78 91.56 C 179.28 95.55 184.55 107.30 180.56 117.80" fill="#cacadb" fill-rule="nonzero" group-id="3" node-id="569" stroke="none" target-height="27.58326" target-width="39.369537" target-x="142.531" target-y="90.21874"></path><path d="M 180.56 119.30 C 180.38 119.30 180.21 119.27 180.03 119.20 C 179.26 118.91 178.87 118.04 179.16 117.27 C 182.85 107.56 177.96 96.65 168.25 92.96 C 163.54 91.17 158.42 91.32 153.83 93.38 C 149.24 95.44 145.72 99.17 143.93 103.88 C 143.64 104.65 142.77 105.04 142.00 104.75 C 141.22 104.45 140.84 103.58 141.13 102.81 C 143.20 97.36 147.28 93.03 152.60 90.64 C 157.92 88.26 163.85 88.08 169.31 90.15 C 174.76 92.23 179.08 96.30 181.47 101.62 C 183.86 106.95 184.04 112.88 181.97 118.33 C 181.74 118.93 181.17 119.30 180.56 119.30 Z" fill="#6e6e96" fill-rule="nonzero" group-id="3" node-id="571" stroke="none" target-height="30.575378" target-width="42.361053" target-x="141.03206" target-y="88.72662"></path><path d="M 48.47 159.50 C 66.39 111.80 117.11 91.19 163.56 108.64 C 210.02 126.09 234.63 175.00 216.71 222.70 L 48.47 159.50 Z" fill="#cacadb" fill-rule="nonzero" group-id="4" node-id="576" stroke="none" target-height="120.17645" target-width="174.0539" target-x="48.467" target-y="102.52554"></path><path d="M 216.71 224.20 C 216.53 224.20 216.35 224.17 216.18 224.10 L 47.94 160.91 C 47.57 160.77 47.27 160.49 47.10 160.12 C 46.94 159.76 46.92 159.35 47.06 158.98 C 53.75 141.18 65.27 126.36 80.38 116.12 C 94.97 106.23 112.22 101.00 130.25 101.00 C 141.69 101.00 153.07 103.10 164.09 107.24 C 187.17 115.91 205.48 132.40 215.63 153.68 C 225.95 175.31 226.83 200.01 218.11 223.23 C 217.88 223.83 217.31 224.20 216.71 224.20 Z M 50.41 158.63 L 215.82 220.77 C 223.69 198.73 222.68 175.43 212.92 154.97 C 203.11 134.40 185.39 118.44 163.03 110.05 C 152.36 106.04 141.33 104.00 130.26 104.00 C 112.82 104.00 96.16 109.05 82.06 118.60 C 67.87 128.22 56.95 142.04 50.41 158.63 Z" fill="#6e6e96" fill-rule="nonzero" group-id="4" node-id="578" stroke="none" target-height="123.198006" target-width="177.05383" target-x="46.9685" target-y="101.003"></path><path d="M 219.03 217.44 C 235.55 173.44 209.74 127.17 163.07 109.61 C 150.69 104.96 138.09 102.80 125.95 102.95 C 185.25 107.50 195.87 147.66 190.18 162.64 C 183.53 180.12 133.99 177.51 79.53 156.81 C 70.42 153.34 61.75 149.59 53.65 145.66 C 52.31 148.30 51.10 151.04 50.02 153.89 C 49.30 155.85 48.63 156.99 47.96 157.85 L 217.99 221.56 C 218.08 220.50 218.37 219.24 219.03 217.44 Z" fill="#646485" fill-opacity="0.15" fill-rule="nonzero" group-id="5" node-id="583" stroke-linecap="butt" stroke-opacity="0.15" stroke-width="1" target-height="118.61101" target-width="176.07346" target-x="47.962" target-y="102.948"></path><path d="M 138.88 123.90 C 140.94 131.71 127.06 135.49 113.01 139.19 C 98.96 142.88 90.06 145.08 88.00 137.27 C 85.94 129.46 95.67 120.13 109.72 116.44 C 123.77 112.74 136.83 116.08 138.88 123.90 Z" fill="#ffffff" fill-opacity="0.27" fill-rule="nonzero" group-id="6" node-id="588" stroke-linecap="butt" stroke-opacity="0.27" stroke-width="1" target-height="27.528915" target-width="51.321754" target-x="87.74206" target-y="114.97737"></path><path d="M 168.78 91.56 C 168.78 91.56 177.07 95.26 170.82 111.71 L 181.24 115.67 C 181.24 115.67 184.23 97.43 168.78 91.56 Z" fill="#646485" fill-opacity="0.28" fill-rule="nonzero" group-id="7" node-id="593" stroke-linecap="butt" stroke-opacity="0.28" stroke-width="1" target-height="24.113998" target-width="12.691772" target-x="168.778" target-y="91.557"></path><path d="M 182.56 233.19 C 182.56 245.27 160.56 244.23 149.84 244.23 L 79.08 244.23 C 68.37 244.23 59.61 239.26 59.61 233.19 C 59.61 227.12 68.37 222.15 79.08 222.15 L 149.85 222.15 C 160.56 222.16 182.56 223.15 182.56 233.19 Z" fill="#c8c8d9" fill-rule="nonzero" node-id="596" stroke="none" target-height="22.089615" target-width="122.94899" target-x="59.606" target-y="222.154"></path><path d="M 66.00 166.77 L 63.79 172.99 L 200.84 224.88 L 215.50 222.06 Z" fill="#6e6e96" fill-opacity="0.15" fill-rule="nonzero" group-id="8" node-id="600" stroke-linecap="butt" stroke-opacity="0.15" stroke-width="1" target-height="58.110992" target-width="151.711" target-x="63.792" target-y="166.766"></path><path d="M 152.45 100.15 L 152.31 99.35 L 152.50 98.47 L 153.10 97.46 L 154.43 96.15 L 156.44 94.97 L 158.65 94.28 L 160.52 94.16 L 161.67 94.40 L 162.45 94.85 L 162.95 95.50 L 163.09 96.30 L 162.91 97.18 L 162.31 98.20 L 160.97 99.50 L 158.97 100.68 L 156.75 101.37 L 154.89 101.49 L 153.73 101.25 L 152.95 100.80 L 152.45 100.15 Z" fill="#ffffff" fill-opacity="0.33" fill-rule="nonzero" group-id="9" node-id="605" stroke-linecap="butt" stroke-opacity="0.33" stroke-width="1.0000451" target-height="7.326393" target-width="10.783646" target-x="152.31035" target-y="94.162155"></path><path d="M 131.63 229.35 C 131.63 236.77 109.64 236.13 98.92 236.13 L 96.60 236.13 C 85.89 236.13 77.12 233.08 77.12 229.35 C 77.12 225.62 85.89 222.56 96.60 222.56 L 98.92 222.56 C 109.63 222.57 131.63 223.18 131.63 229.35 Z" fill="#d6d6e8" fill-rule="nonzero" node-id="608" stroke="none" target-height="13.571274" target-width="54.505997" target-x="77.125" target-y="222.565"></path><path d="M 210.84 250.31 L 60.80 250.31 C 48.34 250.31 42.77 243.11 42.77 235.98 C 42.77 228.85 48.34 221.65 60.80 221.65 L 210.84 221.65 C 223.30 221.65 228.87 228.85 228.87 235.98 C 228.87 243.11 223.29 250.31 210.84 250.31 Z M 60.80 224.65 C 51.67 224.65 45.77 229.10 45.77 235.98 C 45.77 242.86 51.67 247.31 60.80 247.31 L 210.84 247.31 C 219.97 247.31 225.87 242.86 225.87 235.98 C 225.87 229.10 219.97 224.65 210.84 224.65 L 60.80 224.65 Z" fill="#6e6e96" fill-rule="nonzero" node-id="610" stroke="none" target-height="28.653992" target-width="186.1" target-x="42.769" target-y="221.651"></path><path d="M 241.44 114.68 C 242.16 112.48 244.41 109.79 246.44 108.69 L 246.45 108.68 C 248.48 107.58 248.48 105.78 246.45 104.68 L 246.44 104.67 C 244.41 103.57 242.04 101.09 241.19 99.16 C 240.34 97.23 238.94 97.23 238.09 99.16 C 237.23 101.10 234.87 103.57 232.84 104.67 L 232.82 104.68 C 230.79 105.78 230.79 107.58 232.82 108.68 L 232.84 108.69 C 234.87 109.79 237.11 112.48 237.83 114.68 L 238.34 116.23 C 239.06 118.43 240.22 118.43 240.94 116.23 L 241.44 114.68 Z" fill="#7fe5ff" fill-rule="nonzero" group-id="10" node-id="614" stroke="none" target-height="20.165253" target-width="16.670746" target-x="231.30026" target-y="97.71575"></path><path d="M 27.13 26.87 C 27.75 24.94 29.73 22.57 31.51 21.61 L 31.52 21.61 C 33.30 20.64 33.30 19.06 31.52 18.10 L 31.51 18.09 C 29.73 17.13 27.66 14.96 26.91 13.26 C 26.16 11.57 24.93 11.57 24.19 13.26 C 23.44 14.96 21.37 17.13 19.59 18.09 L 19.58 18.10 C 17.80 19.06 17.80 20.64 19.58 21.61 L 19.59 21.61 C 21.37 22.57 23.34 24.94 23.97 26.87 L 24.41 28.23 C 25.04 30.16 26.06 30.16 26.69 28.23 L 27.13 26.87 Z" fill="#ffb0b8" fill-rule="nonzero" group-id="11" node-id="619" stroke="none" target-height="17.680502" target-width="14.610752" target-x="18.24125" target-y="11.99275"></path><path d="M 8.09 147.47 C 8.70 145.60 10.61 143.31 12.34 142.37 L 12.35 142.37 C 14.07 141.43 14.07 139.90 12.35 138.96 L 12.34 138.96 C 10.61 138.02 8.60 135.91 7.88 134.27 C 7.15 132.63 5.96 132.63 5.23 134.27 C 4.51 135.91 2.50 138.02 0.77 138.96 L 0.76 138.96 C -0.97 139.90 -0.97 141.43 0.76 142.37 L 0.77 142.37 C 2.50 143.31 4.41 145.60 5.02 147.47 L 5.45 148.79 C 6.06 150.66 7.05 150.66 7.66 148.79 L 8.09 147.47 Z" fill="#9adfc0" fill-rule="nonzero" group-id="12" node-id="624" stroke="none" target-height="17.15451" target-width="14.177501" target-x="-0.53575" target-y="133.03824"></path><path d="M 199.68 22.78 C 200.13 21.41 201.53 19.73 202.79 19.05 L 202.79 19.05 C 204.06 18.36 204.06 17.24 202.79 16.56 L 202.79 16.55 C 201.52 15.87 200.06 14.33 199.53 13.12 C 199.00 11.92 198.13 11.92 197.59 13.12 C 197.06 14.33 195.59 15.87 194.33 16.55 L 194.32 16.56 C 193.06 17.24 193.06 18.36 194.32 19.05 L 194.33 19.05 C 195.59 19.73 196.99 21.41 197.43 22.78 L 197.75 23.74 C 198.19 25.11 198.92 25.11 199.37 23.74 L 199.68 22.78 Z" fill="#ffe870" fill-rule="nonzero" group-id="13" node-id="629" stroke="none" target-height="12.545751" target-width="10.368256" target-x="193.37401" target-y="12.2235"></path><path d="M 237.49 250.30 L 36.49 250.30 C 35.66 250.30 34.99 249.63 34.99 248.80 C 34.99 247.98 35.66 247.30 36.49 247.30 L 237.49 247.30 C 238.32 247.30 238.99 247.98 238.99 248.80 C 238.99 249.63 238.32 250.30 237.49 250.30 Z" fill="#6e6e96" fill-opacity="0.15" fill-rule="nonzero" group-id="14" node-id="634" stroke-linecap="butt" stroke-opacity="0.15" stroke-width="1" target-height="3" target-width="204" target-x="34.988" target-y="247.304"></path></svg>