<?xml version="1.0" standalone="no"?><!DOCTYPE svg PUBLIC "-//W3C//DTD SVG 1.1//EN" "http://www.w3.org/Graphics/SVG/1.1/DTD/svg11.dtd"><svg t="1681387619861" class="icon" viewBox="0 0 1024 1024" version="1.1" xmlns="http://www.w3.org/2000/svg" p-id="12935" xmlns:xlink="http://www.w3.org/1999/xlink" width="200" height="200"><path d="M502.869333 988.288h-13.013333a101.973333 101.973333 0 0 1 0-203.946667h13.013333a101.973333 101.973333 0 0 1 0 203.946667z m79.872-319.061333v35.541333H405.418667v-48.768c-2.986667-91.52 35.541333-165.418667 115.157333-221.568 73.685333-58.965333 109.226667-112.256 106.410667-159.530667-5.845333-61.994667-39.893333-96-101.888-101.888-82.773333 0-134.4 54.613333-155.008 163.882667L170.666667 292.693333C206.208 91.946667 334.549333-5.632 556.074667 0.256c183.168 8.874667 282.026667 91.477333 296.789333 248.192 6.058667 94.506667-47.061333 180.138667-159.36 256.853333-82.773333 56.192-119.637333 110.805333-110.762667 163.925334z" fill="#111111" p-id="12936"></path></svg>